{"glyphs":{"0":{"ha":939,"x_min":0,"x_max":0,"o":"m 474 1053 b 51 522 264 1053 51 833 b 474 -11 51 211 264 -11 b 888 522 683 -11 888 211 b 474 1053 888 833 683 1053 z m 474 1040 b 697 522 596 1040 697 890 b 474 1 697 156 613 1 b 243 522 336 1 243 156 b 474 1040 243 890 350 1040 z "},"1":{"ha":451,"x_min":0,"x_max":0,"o":"m 419 0 l 419 10 b 321 347 325 25 321 44 l 321 1064 l 36 861 l 36 850 b 143 642 140 857 143 846 l 143 347 b 39 10 143 44 133 25 l 39 0 z "},"2":{"ha":735,"x_min":0,"x_max":0,"o":"m 151 153 l 357 314 b 679 778 542 458 679 604 b 329 1053 679 992 464 1053 b 36 881 131 1053 36 958 b 114 800 36 836 68 800 b 199 883 164 800 193 833 b 328 1040 210 964 210 1040 b 492 788 443 1040 492 956 b 275 318 492 626 436 504 l 6 0 l 625 0 b 667 53 651 0 654 7 l 715 232 l 703 232 b 365 153 672 161 651 153 z "},"3":{"ha":786,"x_min":0,"x_max":0,"o":"m 319 4 b 188 175 193 4 194 117 b 103 250 182 225 154 250 b 28 176 57 250 28 215 b 319 -8 28 89 138 -8 b 735 346 586 -8 735 146 b 407 654 735 561 579 654 b 282 625 353 654 314 642 l 703 1031 l 703 1042 l 133 1042 b 101 997 113 1042 111 1038 l 54 810 l 67 810 b 369 894 93 881 103 894 l 544 894 l 199 560 l 206 551 b 407 642 261 603 303 642 b 551 347 528 642 551 515 b 319 4 551 154 490 4 z "},"4":{"ha":872,"x_min":0,"x_max":0,"o":"m 792 253 l 846 368 l 671 368 l 671 1050 l 614 1050 l 14 265 l 14 253 l 493 253 b 421 10 493 43 479 24 l 421 0 l 743 0 l 743 10 b 671 253 685 24 671 43 z m 110 368 l 493 869 l 493 368 z "},"5":{"ha":786,"x_min":0,"x_max":0,"o":"m 638 899 b 668 929 658 899 658 901 l 706 1042 l 217 1042 l 100 583 l 108 576 b 357 661 158 622 251 661 b 542 358 486 661 542 538 b 314 0 542 164 468 0 b 171 169 167 0 178 90 b 92 240 167 213 138 240 b 17 169 51 240 17 213 b 314 -12 17 68 144 -12 b 725 357 543 -12 725 135 b 357 674 725 578 546 674 b 115 596 263 674 172 642 l 193 899 z "},"6":{"ha":885,"x_min":0,"x_max":0,"o":"m 517 1039 b 640 915 610 1039 629 1008 b 724 839 647 860 681 839 b 794 908 763 839 794 865 b 517 1051 794 982 696 1051 b 54 508 304 1051 54 840 b 468 -11 54 158 290 -11 b 842 368 628 -11 842 124 b 456 719 842 592 660 719 b 246 636 372 719 300 685 b 517 1039 267 897 356 1039 z m 240 508 b 244 618 240 546 242 583 b 454 707 299 669 371 707 b 658 368 558 707 658 628 b 468 1 658 128 607 1 b 240 508 336 1 240 158 z "},"7":{"ha":722,"x_min":0,"x_max":0,"o":"m 697 1031 l 697 1042 l 111 1042 b 76 1001 88 1042 86 1033 l 28 824 l 38 824 b 276 896 67 882 76 896 l 628 896 l 269 0 l 285 0 z "},"8":{"ha":808,"x_min":0,"x_max":0,"o":"m 761 286 b 508 603 761 426 664 514 b 721 831 614 644 721 721 b 407 1056 721 951 600 1056 b 86 793 253 1056 86 965 b 299 514 86 671 156 594 b 43 239 158 458 43 374 b 410 -14 43 106 201 -14 b 761 286 597 -14 761 115 z m 410 -1 b 181 250 235 -1 181 104 b 311 506 181 390 229 463 l 375 471 b 622 185 531 389 622 331 b 410 -1 622 69 571 -1 z m 446 636 b 211 876 303 713 211 769 b 407 1043 211 993 285 1043 b 603 828 535 1043 603 967 b 494 610 603 704 561 647 z "},"9":{"ha":883,"x_min":0,"x_max":0,"o":"m 371 1 b 239 132 260 1 250 43 b 156 207 233 186 204 207 b 86 136 113 207 86 175 b 371 -11 86 58 193 -11 b 831 533 631 -11 831 211 b 417 1049 831 878 617 1049 b 43 674 260 1049 43 918 b 422 321 43 435 224 321 b 642 410 511 321 588 360 b 371 1 631 146 564 1 z m 226 678 b 417 1036 226 924 300 1036 b 644 533 542 1036 644 894 b 643 426 644 496 644 461 b 424 333 589 375 513 333 b 226 678 275 333 226 451 z "},"!":{"ha":333,"x_min":0,"x_max":0,"o":"m 174 297 b 268 942 203 700 268 853 b 167 1053 268 1013 232 1053 b 65 942 101 1053 65 1013 b 160 297 65 853 131 700 z m 168 -19 b 261 74 222 -19 261 19 b 168 168 261 129 222 168 b 74 74 114 168 74 129 b 168 -19 74 19 114 -19 z "},"\"":{"ha":461,"x_min":0,"x_max":0,"o":"m 338 724 b 411 979 353 818 411 921 b 332 1060 411 1028 386 1060 b 253 979 278 1060 253 1028 b 325 724 253 921 310 818 z m 135 724 b 208 979 150 818 208 921 b 129 1060 208 1028 183 1060 b 50 979 75 1060 50 1028 b 124 724 50 921 104 818 z "},"#":{"ha":643,"x_min":0,"x_max":0,"o":"m 24 372 l 181 372 l 117 1 l 136 1 l 200 372 l 385 372 l 321 1 l 340 1 l 404 372 l 567 372 l 567 389 l 407 389 l 465 722 l 628 722 l 628 739 l 468 739 l 521 1042 l 501 1042 l 449 739 l 264 739 l 317 1042 l 297 1042 l 244 739 l 85 739 l 85 722 l 242 722 l 183 389 l 24 389 z m 203 389 l 261 722 l 446 722 l 388 389 z "},"$":{"ha":696,"x_min":0,"x_max":0,"o":"m 276 1160 l 276 1047 b 29 785 136 1029 29 932 b 276 486 29 640 125 560 l 276 8 b 154 174 178 24 169 79 b 79 249 147 224 122 249 b 7 179 36 249 7 224 b 276 -4 7 88 115 11 l 276 -132 l 294 -132 l 294 -6 b 350 -8 313 -7 329 -8 b 385 -7 363 -8 374 -8 l 385 -132 l 403 -132 l 403 -6 b 675 299 568 17 675 139 b 403 629 675 463 563 551 l 403 1033 b 494 917 485 1018 483 971 b 578 831 504 863 529 831 b 639 893 613 831 639 856 b 403 1047 639 965 553 1032 l 403 1160 l 385 1160 l 385 1050 b 332 1051 368 1051 350 1051 b 294 1050 319 1051 307 1051 l 294 1160 z m 563 215 b 403 7 563 111 513 28 l 403 425 b 563 215 521 360 563 303 z m 350 3 b 294 6 329 3 311 4 l 294 478 l 300 475 l 385 435 l 385 4 b 350 3 374 3 363 3 z m 132 874 b 276 1033 132 961 188 1017 l 276 690 b 132 874 182 739 132 783 z m 382 639 l 294 681 l 294 1036 b 332 1039 307 1038 319 1039 b 385 1036 353 1039 369 1038 l 385 638 z "},"%":{"ha":1032,"x_min":0,"x_max":0,"o":"m 268 526 b 504 789 381 526 504 628 b 268 1050 504 950 381 1050 b 32 789 153 1050 32 950 b 268 526 32 628 153 526 z m 181 -3 l 863 1036 l 846 1047 l 164 8 z m 268 539 b 154 789 214 539 154 606 b 268 1038 154 972 214 1038 b 383 789 322 1038 383 972 b 268 539 383 606 322 539 z m 763 -8 b 1000 254 874 -8 1000 93 b 763 515 1000 415 874 515 b 526 254 647 515 526 415 b 763 -8 526 93 647 -8 z m 763 4 b 649 254 708 4 649 71 b 763 503 649 438 708 503 b 878 254 817 503 878 438 b 763 4 878 71 817 4 z "},"&":{"ha":1050,"x_min":0,"x_max":0,"o":"m 219 826 b 324 590 219 744 250 683 b 36 268 217 542 36 458 b 399 -14 36 97 183 -14 b 688 136 515 -14 614 42 l 797 0 l 1039 0 l 1039 10 b 772 283 988 25 943 72 l 850 450 b 1031 639 921 610 960 621 l 1031 647 l 828 647 l 828 639 b 836 454 910 621 894 583 l 763 296 b 743 321 757 306 750 311 l 504 618 l 492 635 b 718 872 572 671 718 742 b 490 1058 718 985 606 1058 b 219 826 351 1058 219 960 z m 217 274 b 331 581 217 449 269 540 b 382 518 346 560 361 540 l 679 147 b 400 -1 607 53 511 -1 b 217 274 276 -1 217 101 z m 363 896 b 490 1046 363 978 403 1046 b 608 869 549 1046 608 997 b 483 643 608 740 538 679 b 363 896 428 714 363 789 z "},"'":{"ha":258,"x_min":0,"x_max":0,"o":"m 135 724 b 208 979 150 818 208 921 b 129 1060 208 1028 183 1060 b 50 979 75 1060 50 1028 b 124 724 50 921 104 818 z "},"(":{"ha":436,"x_min":0,"x_max":0,"o":"m 424 -139 b 222 481 350 -74 222 125 b 424 1097 222 833 350 1035 l 415 1106 b 71 481 296 1013 71 807 b 415 -147 71 156 296 -54 z "},")":{"ha":436,"x_min":0,"x_max":0,"o":"m 21 -147 b 367 481 143 -54 367 157 b 21 1106 367 807 143 1013 l 14 1097 b 214 481 85 1033 214 833 b 14 -139 214 125 85 -72 z "},"*":{"ha":433,"x_min":0,"x_max":0,"o":"m 254 721 b 219 860 254 756 229 800 b 294 735 254 814 268 761 b 353 732 313 714 336 715 b 349 789 371 750 369 768 b 224 863 322 815 269 829 b 363 828 281 853 328 828 b 406 865 392 828 406 840 b 363 903 406 890 392 903 b 224 867 328 903 281 876 b 347 942 269 904 321 915 b 350 999 368 963 367 983 b 293 996 332 1017 313 1015 b 219 869 269 969 253 918 b 254 1010 229 926 254 976 b 217 1053 254 1038 239 1053 b 179 1010 192 1053 179 1039 b 214 869 179 976 204 929 b 139 996 181 918 163 972 b 82 1000 118 1017 99 1015 b 86 942 65 983 65 963 b 210 867 111 917 165 904 b 69 903 154 876 104 903 b 28 865 42 903 28 890 b 69 828 28 840 42 828 b 210 863 104 828 150 853 b 83 789 164 829 110 813 b 81 732 63 769 63 750 b 138 735 96 715 119 714 b 214 860 164 758 176 814 b 179 721 204 804 179 756 b 217 678 179 692 192 678 b 254 721 239 678 254 693 z "},"+":{"ha":654,"x_min":0,"x_max":0,"o":"m 338 221 l 338 479 l 592 479 l 592 496 l 338 496 l 338 756 l 318 756 l 318 496 l 63 496 l 63 479 l 318 479 l 318 221 z "},",":{"ha":313,"x_min":0,"x_max":0,"o":"m 203 26 b 215 -11 211 18 215 6 b 82 -154 215 -72 167 -121 l 88 -162 b 253 40 182 -129 253 -64 b 144 168 253 129 200 168 b 57 79 100 168 57 133 b 138 -4 57 31 94 -4 b 203 26 175 -4 192 8 z "},"-":{"ha":388,"x_min":0,"x_max":0,"o":"m 47 329 l 313 329 l 340 438 l 76 438 z "},".":{"ha":303,"x_min":0,"x_max":0,"o":"m 151 -19 b 244 74 206 -19 244 19 b 151 168 244 129 206 168 b 57 74 97 168 57 129 b 151 -19 57 19 97 -19 z "},"/":{"ha":590,"x_min":0,"x_max":0,"o":"m 547 1113 l -35 -225 l -15 -233 l 567 1104 z "},":":{"ha":311,"x_min":0,"x_max":0,"o":"m 156 446 b 250 539 211 446 250 483 b 156 632 250 593 211 632 b 63 539 101 632 63 593 b 156 446 63 483 101 446 z m 156 -19 b 250 74 211 -19 250 19 b 156 168 250 129 211 168 b 63 74 101 168 63 129 b 156 -19 63 19 101 -19 z "},";":{"ha":321,"x_min":0,"x_max":0,"o":"m 160 446 b 253 539 214 446 253 483 b 160 632 253 593 214 632 b 67 539 106 632 67 593 b 160 446 67 483 106 446 z m 207 26 b 219 -11 215 18 219 6 b 86 -154 219 -72 171 -121 l 92 -162 b 257 40 186 -129 257 -64 b 149 168 257 129 204 168 b 61 79 104 168 61 133 b 142 -4 61 31 99 -4 b 207 26 179 -4 196 8 z "},"<":{"ha":625,"x_min":0,"x_max":0,"o":"m 68 476 l 556 272 l 556 293 l 92 488 l 556 682 l 556 701 l 68 497 z "},"=":{"ha":654,"x_min":0,"x_max":0,"o":"m 63 564 l 592 564 l 592 581 l 63 581 z m 63 385 l 592 385 l 592 403 l 63 403 z "},">":{"ha":625,"x_min":0,"x_max":0,"o":"m 556 476 l 556 497 l 68 701 l 68 682 l 532 488 l 68 293 l 68 272 z "},"?":{"ha":583,"x_min":0,"x_max":0,"o":"m 211 281 b 546 832 217 544 546 599 b 242 1054 546 965 426 1054 b 28 949 97 1054 28 1008 b 94 885 28 917 54 885 b 179 985 157 885 168 935 b 240 1043 189 1022 203 1043 b 369 853 335 1043 369 990 b 200 281 369 656 194 553 z m 228 -19 b 321 74 282 -19 321 19 b 228 168 321 129 282 168 b 133 74 174 168 133 129 b 228 -19 133 19 174 -19 z "},"@":{"ha":1169,"x_min":0,"x_max":0,"o":"m 978 -74 b 574 -212 918 -129 785 -212 b 104 297 308 -212 104 -39 b 642 851 104 653 331 851 b 1078 421 893 851 1078 682 b 854 51 1078 232 1000 100 b 822 214 782 29 796 67 l 893 631 l 883 631 b 811 596 861 607 838 596 b 643 644 764 596 725 644 b 285 246 476 644 285 485 b 488 7 285 83 376 7 b 644 99 551 7 586 40 l 629 10 b 1139 446 954 -6 1139 194 b 663 875 1139 713 950 875 b 33 260 335 875 33 611 b 568 -225 33 -83 294 -225 b 986 -82 786 -225 924 -137 z m 449 239 b 643 633 449 465 561 633 b 714 513 715 633 721 564 l 647 115 b 522 32 585 53 556 32 b 449 239 474 32 449 96 z "},"B":{"ha":850,"x_min":0,"x_max":0,"o":"m 24 0 l 360 0 b 817 300 632 0 817 94 b 450 568 817 428 718 539 l 450 569 b 760 804 694 596 760 697 b 376 1042 760 950 636 1042 l 24 1042 l 24 1032 b 96 692 92 1013 96 992 l 96 350 b 24 10 96 50 92 29 z m 375 1029 b 603 797 544 1029 603 946 b 367 574 603 638 553 574 l 276 574 l 276 1029 z m 369 563 b 638 281 597 563 638 458 b 353 13 638 76 557 13 l 276 13 l 276 563 z "},"C":{"ha":899,"x_min":0,"x_max":0,"o":"m 533 -17 b 863 136 711 -17 819 75 l 854 144 b 575 14 803 83 707 14 b 243 543 382 14 243 153 b 531 1043 243 894 369 1043 b 831 797 667 1043 786 968 l 843 797 l 843 1038 l 831 1038 b 783 999 824 1011 807 999 b 531 1056 724 999 674 1056 b 47 522 304 1056 47 886 b 533 -17 47 190 271 -17 z "},"D":{"ha":988,"x_min":0,"x_max":0,"o":"m 24 0 l 335 0 b 940 535 728 0 940 208 b 335 1042 940 874 701 1042 l 24 1042 l 24 1032 b 96 692 92 1013 96 992 l 96 350 b 24 10 96 50 92 29 z m 335 1029 b 744 536 578 1029 744 932 b 335 11 744 151 618 11 l 276 11 l 276 1029 z "},"E":{"ha":811,"x_min":0,"x_max":0,"o":"m 24 0 l 739 0 b 765 25 754 0 761 -1 l 782 186 l 769 186 b 469 13 732 42 676 13 l 276 13 l 276 569 l 353 569 b 514 456 494 569 496 518 l 525 456 l 525 696 l 514 696 b 353 582 496 633 494 582 l 276 582 l 276 1029 l 451 1029 b 738 874 644 1029 696 997 l 751 874 l 726 1013 b 701 1042 721 1040 717 1042 l 24 1042 l 24 1032 b 96 692 92 1013 96 992 l 96 350 b 24 10 96 50 92 29 z "},"F":{"ha":797,"x_min":0,"x_max":0,"o":"m 24 0 l 349 0 l 349 10 b 276 350 281 29 276 49 l 276 576 l 379 576 b 538 463 519 576 522 522 l 549 463 l 549 704 l 538 704 b 379 589 522 642 519 589 l 276 589 l 276 1029 l 479 1029 b 765 865 690 1029 725 990 l 779 865 l 757 1013 b 733 1042 753 1042 749 1042 l 24 1042 l 24 1032 b 96 692 92 1013 96 993 l 96 350 b 24 10 96 49 92 29 z "},"G":{"ha":1010,"x_min":0,"x_max":0,"o":"m 536 -17 b 914 158 692 -17 847 74 l 914 200 b 993 464 914 424 921 444 l 993 474 l 663 474 l 663 464 b 743 271 725 446 743 422 l 743 261 b 536 -4 743 76 693 -4 b 242 543 351 -4 242 151 b 542 1043 242 921 371 1043 b 851 799 701 1043 814 956 l 865 799 l 865 1039 l 851 1039 b 810 1003 846 1015 831 1003 b 542 1056 736 1003 692 1056 b 47 529 321 1056 47 890 b 536 -17 47 210 253 -17 z "},"H":{"ha":988,"x_min":0,"x_max":0,"o":"m 24 0 l 344 0 l 344 10 b 272 350 276 29 272 49 l 272 565 l 715 565 l 715 350 b 643 10 715 49 711 29 l 643 0 l 965 0 l 965 10 b 893 350 897 29 893 49 l 893 692 b 965 1032 893 993 897 1013 l 965 1042 l 643 1042 l 643 1032 b 715 692 711 1013 715 993 l 715 576 l 272 576 l 272 692 b 344 1032 272 993 276 1013 l 344 1042 l 24 1042 l 24 1032 b 96 692 92 1013 96 993 l 96 350 b 24 10 96 49 92 29 z "},"I":{"ha":368,"x_min":0,"x_max":0,"o":"m 24 0 l 344 0 l 344 10 b 272 350 276 29 272 50 l 272 692 b 344 1032 272 993 276 1013 l 344 1042 l 24 1042 l 24 1032 b 96 692 92 1013 96 993 l 96 350 b 24 10 96 50 92 29 z "},"J":{"ha":600,"x_min":0,"x_max":0,"o":"m 247 -14 b 510 235 383 -14 510 76 l 510 692 b 582 1032 510 996 514 1013 l 582 1042 l 260 1042 l 260 1032 b 332 692 328 1013 332 996 l 332 90 b 250 -1 332 25 296 -1 b 160 111 182 -1 175 32 b 78 193 144 174 118 193 b 8 124 43 193 8 169 b 247 -14 8 39 114 -14 z "},"K":{"ha":893,"x_min":0,"x_max":0,"o":"m 24 0 l 344 0 l 344 10 b 272 350 276 29 272 49 l 272 565 l 586 115 b 592 8 632 47 643 19 l 592 0 l 903 0 l 903 8 b 800 110 865 24 849 42 l 408 669 l 701 932 b 844 1033 772 997 817 1026 l 844 1042 l 674 1042 l 674 1033 b 656 908 736 1011 744 986 l 272 565 l 272 692 b 344 1032 272 993 276 1013 l 344 1042 l 24 1042 l 24 1032 b 96 692 92 1013 96 993 l 96 350 b 24 10 96 49 92 29 z "},"L":{"ha":775,"x_min":0,"x_max":0,"o":"m 24 0 l 699 0 b 724 25 714 0 718 -1 l 758 211 l 743 211 b 444 13 692 49 642 13 l 276 13 l 276 692 b 351 1032 276 993 281 1014 l 351 1042 l 24 1042 l 24 1032 b 96 692 92 1013 96 993 l 96 350 b 24 10 96 49 92 29 z "},"M":{"ha":1140,"x_min":0,"x_max":0,"o":"m 24 0 l 192 0 l 192 10 b 110 356 114 43 110 64 l 110 1011 l 486 -4 l 501 -4 l 861 1007 l 861 350 b 789 10 861 49 857 29 l 789 0 l 1117 0 l 1117 10 b 1044 350 1049 29 1044 49 l 1044 692 b 1117 1032 1044 993 1049 1013 l 1117 1042 l 857 1042 l 578 254 l 303 1008 b 274 1042 290 1040 289 1042 l 24 1042 l 24 1032 b 96 692 92 1013 96 992 l 96 356 b 24 10 96 64 92 43 z "},"N":{"ha":890,"x_min":0,"x_max":0,"o":"m 24 0 l 192 0 l 192 10 b 110 356 114 43 110 63 l 110 1013 l 768 -4 l 806 -4 l 806 686 b 878 1032 806 979 810 999 l 878 1042 l 710 1042 l 710 1032 b 792 686 788 999 792 979 l 792 281 l 326 1000 b 272 1042 300 1039 299 1042 l 24 1042 l 24 1032 b 96 692 92 1013 96 992 l 96 356 b 24 10 96 63 92 43 z "},"O":{"ha":1040,"x_min":0,"x_max":0,"o":"m 519 -18 b 993 522 767 -18 993 207 b 519 1056 993 838 767 1056 b 47 522 274 1056 47 838 b 519 -18 47 207 274 -18 z m 519 -6 b 243 522 360 -6 243 154 b 519 1044 243 889 375 1044 b 797 522 665 1044 797 889 b 519 -6 797 154 679 -6 z "},"P":{"ha":814,"x_min":0,"x_max":0,"o":"m 24 0 l 353 0 l 353 10 b 276 350 279 28 276 49 l 276 481 l 410 481 b 797 778 626 481 797 575 b 408 1042 797 972 636 1042 l 24 1042 l 24 1032 b 96 692 92 1013 96 993 l 96 350 b 24 10 96 49 92 29 z m 407 1029 b 629 763 535 1029 629 969 b 406 493 629 557 538 493 l 276 493 l 276 1029 z "},"Q":{"ha":1040,"x_min":0,"x_max":0,"o":"m 519 -17 b 597 -10 546 -17 571 -14 b 878 -231 646 -194 763 -231 b 1029 -169 978 -231 1006 -196 l 1022 -162 b 931 -207 1001 -183 975 -207 b 761 -3 846 -207 794 -114 l 744 44 b 993 522 890 131 993 300 b 519 1056 993 846 774 1056 b 47 522 267 1056 47 846 b 519 -17 47 200 267 -17 z m 519 1044 b 797 522 675 1044 797 889 b 724 92 797 299 772 169 b 492 254 667 203 586 254 b 350 131 404 254 350 201 b 419 8 350 76 374 35 b 243 522 299 51 243 201 b 519 1044 243 889 365 1044 z m 367 131 b 457 229 367 193 408 229 b 589 29 526 229 560 183 b 594 3 590 18 593 10 b 519 -4 571 -3 546 -4 b 367 131 429 -4 367 36 z "},"R":{"ha":892,"x_min":0,"x_max":0,"o":"m 24 0 l 349 0 l 349 10 b 276 350 281 29 276 49 l 276 522 l 317 522 b 494 256 422 522 450 499 b 771 -10 535 50 626 -10 b 906 46 844 -10 885 24 l 897 54 b 826 24 879 33 864 24 b 678 265 754 24 717 103 b 413 522 633 440 547 504 l 425 522 b 828 796 646 522 828 606 b 385 1042 828 951 696 1042 l 24 1042 l 24 1032 b 96 692 92 1013 96 993 l 96 350 b 24 10 96 49 92 29 z m 379 1029 b 654 772 593 1029 654 935 b 414 533 654 610 588 533 l 276 533 l 276 1029 z "},"S":{"ha":758,"x_min":0,"x_max":0,"o":"m 365 -12 b 717 310 544 -12 717 97 b 383 660 717 496 569 574 b 160 886 229 728 160 786 b 351 1043 160 986 219 1043 b 636 825 506 1043 610 969 l 650 825 l 650 1035 l 638 1035 b 599 1000 632 1011 619 1000 b 351 1056 540 1000 497 1056 b 51 789 167 1056 51 935 b 310 476 51 629 154 547 b 592 196 510 383 592 335 b 364 0 592 68 526 0 b 46 296 174 0 67 114 l 32 296 l 32 31 l 44 31 b 81 61 49 51 61 61 b 365 -12 164 61 197 -12 z "},"T":{"ha":881,"x_min":0,"x_max":0,"o":"m 276 0 l 601 0 l 601 10 b 529 350 533 29 529 50 l 529 1029 l 600 1029 b 857 825 758 1029 821 994 l 871 825 l 849 1013 b 825 1042 844 1042 840 1042 l 53 1042 b 29 1013 38 1042 33 1042 l 10 825 l 24 825 b 282 1029 57 997 119 1029 l 349 1029 l 349 350 b 276 10 349 50 344 29 z "},"U":{"ha":925,"x_min":0,"x_max":0,"o":"m 494 -15 b 833 349 704 -15 833 88 l 833 686 b 906 1032 833 979 838 999 l 906 1042 l 738 1042 l 738 1032 b 818 686 814 999 818 978 l 818 349 b 500 -3 818 93 696 -3 b 267 324 285 -3 267 113 l 267 692 b 339 1032 267 993 271 1013 l 339 1042 l 19 1042 l 19 1032 b 89 692 86 1014 89 993 l 89 354 b 494 -15 89 106 244 -15 z "},"V":{"ha":901,"x_min":0,"x_max":0,"o":"m 438 -7 l 469 -7 l 786 865 b 892 1033 835 999 851 1015 l 892 1042 l 735 1042 l 735 1033 b 772 867 814 1011 801 953 l 538 218 l 286 910 b 303 1033 254 994 263 1022 l 303 1042 l 10 1042 l 10 1033 b 115 851 61 1007 71 967 z "},"W":{"ha":1263,"x_min":0,"x_max":0,"o":"m 425 -7 l 458 -7 l 642 500 l 825 -7 l 858 -7 l 1149 865 b 1251 1032 1193 1000 1210 1013 l 1251 1042 l 1096 1042 l 1096 1032 b 1133 865 1174 1006 1160 944 l 915 211 l 751 690 l 817 867 b 919 1032 865 1001 879 1014 l 919 1042 l 782 1042 l 782 1032 b 801 867 847 1006 828 946 l 744 711 l 674 918 b 686 1032 647 996 647 1021 l 686 1042 l 410 1042 l 410 1032 b 510 865 463 1010 474 964 l 633 522 l 524 217 l 275 919 b 289 1032 247 996 250 1021 l 289 1042 l 11 1042 l 11 1032 b 110 865 64 1006 72 965 z "},"X":{"ha":915,"x_min":0,"x_max":0,"o":"m 18 0 l 193 0 l 193 8 b 181 163 132 26 121 74 l 392 474 l 568 171 b 574 8 635 60 629 26 l 574 0 l 900 0 l 900 8 b 757 178 847 33 817 74 l 518 593 l 707 872 b 857 1033 782 985 794 1004 l 857 1042 l 692 1042 l 692 1033 b 694 879 757 1018 757 969 l 510 606 l 349 886 b 339 1033 289 988 288 1022 l 339 1042 l 17 1042 l 17 1033 b 156 879 65 1018 89 990 l 383 488 l 168 169 b 18 8 97 67 76 38 z "},"Y":{"ha":871,"x_min":0,"x_max":0,"o":"m 281 0 l 603 0 l 603 10 b 531 350 535 29 531 50 l 531 531 l 718 867 b 863 1033 789 997 821 1015 l 863 1042 l 710 1042 l 710 1033 b 703 867 778 1011 754 963 l 524 546 l 304 929 b 321 1033 271 989 282 1018 l 321 1042 l 8 1042 l 8 1033 b 147 867 68 1003 94 957 l 353 513 l 353 350 b 281 10 353 50 349 29 z "},"Z":{"ha":843,"x_min":0,"x_max":0,"o":"m 24 0 l 792 0 l 825 232 l 811 232 b 494 13 767 64 714 13 l 225 13 l 786 1042 l 83 1042 l 47 851 l 60 851 b 347 1029 100 965 157 1029 l 578 1029 z "},"[":{"ha":388,"x_min":0,"x_max":0,"o":"m 93 1101 l 93 -147 l 369 -147 l 369 -135 l 228 -135 l 228 1089 l 369 1089 l 369 1101 z "},"\\":{"ha":590,"x_min":0,"x_max":0,"o":"m 44 1113 l 25 1104 l 607 -233 l 626 -225 z "},"]":{"ha":388,"x_min":0,"x_max":0,"o":"m 296 1101 l 18 1101 l 18 1089 l 160 1089 l 160 -135 l 18 -135 l 18 -147 l 296 -147 z "},"^":{"ha":539,"x_min":0,"x_max":0,"o":"m 43 679 l 54 674 l 269 1033 l 485 674 l 496 679 l 275 1050 l 264 1050 z "},"_":{"ha":501,"x_min":0,"x_max":0,"o":"m -7 -119 l 508 -119 l 508 -103 l -7 -103 z "},"`":{"ha":619,"x_min":0,"x_max":0,"o":"m 417 721 l 424 729 l 304 910 b 224 971 278 953 258 971 b 167 914 186 971 167 947 b 222 836 167 876 190 854 z "},"a":{"ha":618,"x_min":0,"x_max":0,"o":"m 194 -11 b 379 71 283 -11 331 25 l 388 79 b 515 -8 399 21 442 -8 b 626 24 586 -8 614 14 l 624 31 b 588 18 614 25 603 18 b 542 179 550 18 542 40 l 542 483 b 278 658 542 622 407 658 b 57 565 157 658 57 625 b 115 514 57 538 78 514 b 189 581 158 514 172 543 b 281 646 210 624 225 646 b 385 547 331 646 385 624 l 385 440 b 299 332 385 371 357 357 l 275 322 b 26 133 147 267 26 260 b 194 -11 26 40 94 -11 z m 186 161 b 278 310 186 239 213 283 l 301 321 b 385 381 347 342 374 354 l 385 113 b 386 92 385 106 385 97 l 379 85 b 271 24 340 47 304 24 b 186 161 215 24 186 72 z "},"b":{"ha":736,"x_min":0,"x_max":0,"o":"m 372 -11 b 703 340 550 -11 703 118 b 451 658 703 560 568 658 b 253 550 354 658 299 599 l 233 528 l 233 1078 l 19 964 l 19 953 b 76 785 76 946 76 944 l 76 22 l 88 22 b 125 56 92 33 96 56 b 372 -11 179 56 250 -11 z m 271 28 b 233 146 244 46 233 75 l 233 511 l 253 533 b 406 629 299 585 343 629 b 538 317 475 629 538 575 b 371 1 538 89 472 1 b 271 28 315 1 293 13 z "},"c":{"ha":590,"x_min":0,"x_max":0,"o":"m 353 -10 b 574 88 458 -10 531 33 l 565 94 b 393 17 525 46 472 17 b 196 351 275 17 196 124 b 358 647 196 568 268 647 b 426 599 396 647 415 636 b 511 506 444 538 456 506 b 568 557 544 506 568 525 b 357 660 568 621 472 660 b 32 314 218 660 32 536 b 353 -10 32 118 179 -10 z "},"d":{"ha":746,"x_min":0,"x_max":0,"o":"m 299 -10 b 497 96 386 -10 443 36 l 510 110 l 510 0 l 728 0 l 728 10 b 667 213 668 25 667 46 l 667 1078 l 453 963 l 453 951 b 510 783 510 947 510 943 l 510 604 b 361 657 472 633 422 657 b 40 303 192 657 40 531 b 299 -10 40 92 171 -10 z m 206 321 b 364 644 206 547 269 644 b 510 588 424 644 467 621 l 510 126 l 497 113 b 342 18 443 51 396 18 b 206 321 269 18 206 88 z "},"e":{"ha":631,"x_min":0,"x_max":0,"o":"m 368 -11 b 586 65 475 -11 538 26 l 579 75 b 404 15 531 40 483 15 b 193 338 264 15 193 146 b 200 451 193 381 196 418 l 601 451 b 338 660 590 546 510 660 b 32 329 215 660 32 558 b 368 -11 32 90 201 -11 z m 338 647 b 458 464 419 647 447 575 l 201 464 b 338 647 222 599 275 647 z "},"f":{"ha":378,"x_min":0,"x_max":0,"o":"m 31 0 l 325 0 l 325 10 b 244 213 246 25 244 46 l 244 633 l 368 633 l 368 647 l 244 647 l 244 872 b 308 1046 244 1011 268 1046 b 347 978 332 1046 338 1033 b 414 921 354 938 369 921 b 468 969 453 921 468 947 b 315 1058 468 1031 400 1058 b 88 810 226 1058 88 997 l 88 729 b 21 644 88 672 81 654 l 21 633 l 86 633 l 86 213 b 31 10 86 46 85 24 z "},"g":{"ha":615,"x_min":0,"x_max":0,"o":"m 294 224 b 551 436 413 224 551 297 b 438 621 551 519 503 583 b 476 632 450 628 464 632 b 575 590 510 632 535 590 b 617 638 596 590 617 606 b 557 688 617 669 600 688 b 428 626 525 688 476 665 b 294 660 385 649 339 660 b 40 436 176 660 40 576 b 151 260 39 353 86 294 l 132 246 b 53 122 92 214 53 178 b 147 13 53 74 81 33 b 15 -103 85 -10 15 -44 b 292 -239 15 -206 158 -239 b 597 -35 475 -239 597 -157 b 394 125 597 50 539 107 l 169 153 b 104 189 121 158 104 174 b 144 240 104 207 115 219 l 163 254 b 294 224 203 233 250 224 z m 294 236 b 183 436 238 236 183 285 b 294 647 183 588 235 647 b 408 436 356 647 408 588 b 294 236 408 285 350 236 z m 106 -93 b 161 8 106 -49 118 -12 b 206 0 175 4 190 1 l 367 -18 b 539 -106 476 -31 539 -44 b 292 -226 539 -161 458 -226 b 106 -93 174 -226 106 -183 z "},"h":{"ha":713,"x_min":0,"x_max":0,"o":"m 21 0 l 294 0 l 294 10 b 233 213 235 25 233 46 l 233 496 l 264 525 b 415 621 329 590 376 621 b 482 528 450 621 482 599 l 482 213 b 421 10 482 46 479 24 l 421 0 l 696 0 l 696 10 b 640 213 640 25 640 46 l 640 483 b 479 658 640 619 560 658 b 264 542 394 658 336 613 l 233 513 l 233 1078 l 19 963 l 19 951 b 76 783 76 947 76 943 l 76 213 b 21 10 76 46 75 24 z "},"i":{"ha":315,"x_min":0,"x_max":0,"o":"m 156 739 b 244 828 206 739 244 779 b 156 914 244 876 206 914 b 68 828 107 914 68 876 b 156 739 68 779 107 739 z m 19 0 l 296 0 l 296 10 b 235 213 236 25 235 46 l 235 667 l 21 549 l 21 538 b 78 365 78 531 78 528 l 78 213 b 19 10 78 46 75 25 z "},"j":{"ha":314,"x_min":0,"x_max":0,"o":"m 156 739 b 244 828 206 739 244 779 b 156 914 244 876 206 914 b 68 828 107 914 68 876 b 156 739 68 779 107 739 z m -40 -193 b 94 -140 3 -193 35 -183 b 235 128 200 -64 235 17 l 235 667 l 21 549 l 21 538 b 78 364 78 531 78 528 l 78 -10 b 58 -147 78 -103 74 -136 b 46 -153 54 -151 51 -153 b -53 -86 18 -153 -7 -86 b -103 -136 -81 -86 -103 -103 b -40 -193 -103 -174 -72 -193 z "},"k":{"ha":671,"x_min":0,"x_max":0,"o":"m 21 0 l 294 0 l 294 10 b 233 213 235 25 233 46 l 233 1078 l 19 963 l 19 951 b 76 783 76 947 76 943 l 76 213 b 21 10 76 46 75 24 z m 413 0 l 679 0 l 679 10 b 608 78 661 14 646 28 l 356 432 l 488 542 b 642 639 568 608 597 628 l 642 647 l 474 647 l 474 639 b 479 551 522 633 540 606 l 240 350 l 239 342 l 422 82 b 413 10 457 33 450 14 z "},"l":{"ha":318,"x_min":0,"x_max":0,"o":"m 21 0 l 300 0 l 300 10 b 236 213 239 24 236 46 l 236 1078 l 19 963 l 19 951 b 78 783 79 947 78 943 l 78 213 b 21 10 78 46 76 25 z "},"m":{"ha":1071,"x_min":0,"x_max":0,"o":"m 19 0 l 294 0 l 294 10 b 233 213 235 25 233 46 l 233 513 l 246 525 b 396 621 313 592 357 621 b 457 528 431 621 457 599 l 457 213 b 396 10 457 46 453 25 l 396 0 l 671 0 l 671 10 b 615 213 615 25 615 46 l 615 507 l 613 508 l 613 510 l 628 525 b 778 621 694 592 739 621 b 839 528 813 621 839 599 l 839 213 b 778 10 839 46 835 25 l 778 0 l 1053 0 l 1053 10 b 997 213 997 25 997 46 l 997 483 b 843 658 997 619 921 658 b 628 542 758 658 700 613 l 611 525 b 461 658 596 626 533 658 b 246 542 376 658 318 613 l 233 529 l 233 667 l 18 549 l 18 538 b 75 365 75 531 75 528 l 75 213 b 19 10 75 46 74 24 z "},"n":{"ha":718,"x_min":0,"x_max":0,"o":"m 21 0 l 294 0 l 294 10 b 233 213 235 25 233 46 l 233 492 l 268 525 b 419 621 335 590 382 621 b 488 528 457 621 488 599 l 488 213 b 425 10 488 46 481 25 l 425 0 l 701 0 l 701 10 b 646 213 646 25 646 46 l 646 483 b 485 658 646 619 564 658 b 268 542 400 658 340 613 l 233 508 l 233 667 l 19 549 l 19 538 b 76 365 76 531 76 528 l 76 213 b 21 10 76 46 75 24 z "},"o":{"ha":704,"x_min":0,"x_max":0,"o":"m 353 -11 b 672 321 475 -11 672 76 b 353 661 672 561 475 661 b 32 321 231 661 32 561 b 353 -11 32 76 231 -11 z m 353 1 b 196 321 268 1 196 74 b 353 649 196 567 268 649 b 508 321 438 649 508 567 b 353 1 508 74 438 1 z "},"p":{"ha":736,"x_min":0,"x_max":0,"o":"m 21 -231 l 294 -231 l 294 -221 b 233 -18 235 -206 233 -185 l 233 38 b 375 -10 276 6 326 -10 b 703 340 560 -10 703 118 b 443 658 703 568 560 658 b 249 550 354 658 293 601 l 233 532 l 233 667 l 19 549 l 19 538 b 76 365 76 531 76 528 l 76 -18 b 21 -221 76 -185 75 -207 z m 249 533 b 399 631 293 585 344 631 b 538 317 478 631 538 561 b 372 3 538 94 467 3 b 233 53 324 3 278 19 l 233 515 z "},"q":{"ha":731,"x_min":0,"x_max":0,"o":"m 440 -231 l 715 -231 l 715 -221 b 660 -18 661 -207 660 -185 l 660 639 l 649 639 b 603 592 642 607 626 592 b 369 657 558 592 507 657 b 33 296 188 657 33 524 b 296 -10 33 85 167 -10 b 492 96 383 -10 438 36 l 501 107 l 501 -18 b 440 -221 501 -185 500 -206 z m 197 314 b 371 644 197 557 271 644 b 471 617 428 644 453 632 b 501 508 494 599 501 575 l 501 124 l 492 113 b 336 17 438 53 393 17 b 197 314 265 17 197 76 z "},"r":{"ha":511,"x_min":0,"x_max":0,"o":"m 21 0 l 294 0 l 294 10 b 233 213 235 25 233 46 l 233 500 l 260 529 b 331 581 299 572 310 581 b 438 529 364 581 381 529 b 501 597 471 529 501 549 b 431 658 501 636 474 658 b 260 544 378 658 346 638 l 233 515 l 233 667 l 19 549 l 19 538 b 76 365 76 531 76 528 l 76 213 b 21 10 76 46 75 24 z "},"s":{"ha":513,"x_min":0,"x_max":0,"o":"m 251 3 b 42 211 140 3 76 71 l 29 211 l 29 17 l 42 17 b 67 40 46 32 56 40 b 251 -10 106 40 144 -10 b 479 192 381 -10 479 72 b 276 419 479 313 414 364 b 121 554 178 460 121 486 b 238 649 121 611 153 649 b 425 488 328 649 390 594 l 436 488 l 436 650 l 425 650 b 401 626 421 638 413 626 b 238 661 354 626 329 661 b 36 486 117 661 36 582 b 228 269 36 367 104 318 b 383 117 343 224 383 183 b 251 3 383 54 353 3 z "},"t":{"ha":400,"x_min":0,"x_max":0,"o":"m 250 -10 b 388 43 339 -10 372 25 l 381 49 b 307 15 365 32 339 15 b 239 168 246 15 239 58 l 239 633 l 376 633 l 376 647 l 239 647 l 239 876 l 226 876 b 25 646 196 733 108 657 l 25 633 l 82 633 l 82 142 b 250 -10 82 51 139 -10 z "},"u":{"ha":700,"x_min":0,"x_max":0,"o":"m 235 -11 b 451 110 319 -11 378 39 l 469 126 l 469 0 l 685 0 l 685 10 b 626 213 629 25 626 46 l 626 667 l 413 549 l 413 538 b 469 365 469 531 469 528 l 469 143 l 451 126 b 299 26 385 61 336 26 b 232 119 264 26 232 49 l 232 667 l 17 549 l 17 538 b 74 365 74 531 74 528 l 74 160 b 235 -11 74 28 154 -11 z "},"v":{"ha":618,"x_min":0,"x_max":0,"o":"m 293 -7 l 324 -7 l 513 464 b 624 639 572 615 585 628 l 624 647 l 474 647 l 474 639 b 497 464 528 628 557 614 l 376 163 l 249 497 b 258 639 204 613 214 632 l 258 647 l -4 647 l -4 639 b 92 493 29 628 43 613 z "},"w":{"ha":915,"x_min":0,"x_max":0,"o":"m 274 -7 l 306 -7 l 464 364 l 597 -7 l 629 -7 l 804 467 b 913 639 860 617 871 628 l 913 647 l 760 647 l 760 639 b 789 467 814 632 844 614 l 683 179 l 567 497 b 576 639 526 613 536 632 l 576 647 l 331 647 l 331 639 b 417 493 360 628 372 615 l 456 385 l 365 169 l 247 497 b 253 639 207 613 211 631 l 253 647 l 3 647 l 3 639 b 89 493 32 628 44 615 z "},"x":{"ha":632,"x_min":0,"x_max":0,"o":"m 10 0 l 156 0 l 156 8 b 168 147 114 15 101 51 l 260 278 l 340 138 b 351 8 400 33 394 15 l 351 0 l 621 0 l 621 8 b 499 154 589 19 569 31 l 372 374 l 458 494 b 601 639 542 613 540 617 l 601 647 l 457 647 l 457 639 b 444 500 496 631 522 611 l 365 386 l 293 511 b 283 639 233 615 239 632 l 283 647 l 14 647 l 14 639 b 133 496 47 628 63 618 l 251 290 l 156 151 b 10 8 86 53 69 31 z "},"y":{"ha":629,"x_min":0,"x_max":0,"o":"m 143 -237 b 315 -49 215 -237 260 -187 l 522 467 b 633 639 582 615 594 628 l 633 647 l 482 647 l 482 639 b 507 467 536 632 567 614 l 388 171 l 250 500 b 258 639 203 614 218 632 l 258 647 l -4 647 l -4 639 b 90 497 29 628 38 617 l 313 -17 l 301 -44 b 215 -164 261 -144 239 -164 b 118 -128 174 -164 167 -128 b 68 -179 92 -128 68 -142 b 143 -237 68 -212 93 -237 z "},"z":{"ha":574,"x_min":0,"x_max":0,"o":"m 553 178 l 542 178 b 325 11 501 71 475 11 l 185 11 l 550 647 l 244 647 b 64 661 140 647 93 649 l 35 492 l 46 492 b 253 636 79 579 107 636 l 376 636 l 15 0 l 346 0 b 526 -14 469 0 501 -3 z "},"{":{"ha":397,"x_min":0,"x_max":0,"o":"m 379 -136 b 233 14 279 -136 233 -96 b 278 319 233 104 278 221 b 89 479 278 393 221 468 b 278 639 221 490 278 565 b 233 944 278 735 233 854 b 379 1094 233 1051 278 1094 l 379 1106 b 94 931 196 1106 94 1046 b 181 597 94 818 181 694 b 22 485 181 542 178 485 l 22 474 b 181 361 178 474 181 417 b 94 28 181 261 94 140 b 379 -147 94 -87 197 -147 z "},"|":{"ha":349,"x_min":0,"x_max":0,"o":"m 164 1139 l 164 -147 l 185 -147 l 185 1139 z "},"}":{"ha":397,"x_min":0,"x_max":0,"o":"m 18 -147 b 301 28 200 -147 301 -87 b 215 361 301 140 215 261 b 374 474 215 417 218 474 l 374 485 b 215 597 218 485 215 542 b 301 931 215 694 301 818 b 18 1106 301 1046 200 1106 l 18 1094 b 163 944 119 1094 163 1051 b 118 639 163 854 118 735 b 308 479 118 565 175 490 b 118 319 175 468 118 393 b 163 14 118 221 163 104 b 18 -136 163 -96 118 -136 z "},"~":{"ha":497,"x_min":0,"x_max":0,"o":"m 158 576 b 50 429 119 576 83 528 l 61 425 b 140 489 99 479 114 489 b 339 469 201 489 274 469 b 446 617 385 469 419 526 l 436 621 b 357 557 403 569 381 557 b 158 576 303 557 225 576 z "}," ":{"ha":256,"x_min":0,"x_max":0,"o":""},"¡":{"ha":333,"x_min":0,"x_max":0,"o":"m 160 342 b 65 -303 131 -61 65 -214 b 167 -414 65 -374 101 -414 b 268 -303 232 -414 268 -374 b 174 342 268 -214 203 -61 z m 168 658 b 74 565 114 658 74 619 b 168 471 74 510 114 471 b 261 565 222 471 261 510 b 168 658 261 619 222 658 z "},"¢":{"ha":590,"x_min":0,"x_max":0,"o":"m 343 782 l 343 660 b 32 321 194 649 32 531 b 343 -10 32 121 175 -6 l 343 -131 l 360 -131 l 360 -10 b 574 85 458 -10 531 31 l 565 93 b 386 13 525 44 465 13 b 360 14 376 13 369 13 l 360 647 l 361 647 b 429 592 404 647 418 632 b 513 507 446 532 458 507 b 568 557 544 507 568 529 b 360 660 568 624 476 660 l 360 782 z m 196 343 b 343 646 196 554 260 635 l 343 18 b 196 343 250 39 196 138 z "},"£":{"ha":715,"x_min":0,"x_max":0,"o":"m 33 0 l 613 0 b 664 53 646 0 653 8 l 710 218 l 697 218 b 414 150 668 157 633 150 l 189 150 b 324 369 240 194 324 261 b 322 396 324 379 324 386 l 560 396 l 560 410 l 321 410 b 296 513 315 442 307 475 l 560 513 l 560 528 l 290 528 b 242 778 268 604 242 683 b 400 1039 242 928 274 1039 b 514 883 522 1039 500 949 b 599 814 524 840 549 814 b 668 888 642 814 668 844 b 401 1050 668 978 563 1050 b 64 753 239 1050 64 946 b 125 528 64 669 93 599 l 18 528 l 18 513 l 132 513 b 175 410 147 478 163 444 l 18 410 l 18 396 l 179 396 b 200 282 192 358 200 321 b 103 71 200 190 169 140 z "},"¥":{"ha":761,"x_min":0,"x_max":0,"o":"m 228 0 l 550 0 l 550 10 b 478 353 482 29 478 53 l 478 418 l 719 418 l 719 433 l 478 433 l 478 536 l 719 536 l 719 551 l 478 551 l 478 553 l 617 847 b 749 1033 683 996 708 1015 l 749 1042 l 601 1042 l 601 1033 b 601 850 669 1011 660 979 l 468 569 l 269 929 b 281 1033 229 1001 240 1024 l 281 1042 l -19 1042 l -19 1033 b 118 867 36 1011 54 975 l 294 551 l 58 551 l 58 536 l 300 536 l 300 433 l 58 433 l 58 418 l 300 418 l 300 353 b 228 10 300 53 296 29 z "},"§":{"ha":701,"x_min":0,"x_max":0,"o":"m 313 -201 b 179 -40 207 -201 197 -135 b 107 26 172 -3 157 26 b 44 -33 69 26 44 0 b 313 -214 44 -129 164 -214 b 567 56 461 -214 567 -100 b 544 158 567 94 561 126 b 674 383 622 215 674 279 b 451 685 674 489 614 556 b 244 939 290 817 244 857 b 378 1063 244 1017 294 1063 b 481 944 463 1063 461 1001 b 553 879 493 901 510 879 b 607 932 590 879 607 903 b 378 1074 607 1000 521 1074 b 147 849 247 1074 147 992 b 172 739 147 807 156 771 b 35 533 96 701 35 638 b 211 261 35 428 82 364 b 453 -50 390 115 453 58 b 313 -201 453 -140 413 -201 z m 325 383 b 129 624 176 510 129 542 b 179 726 129 672 150 706 b 340 561 211 672 264 626 b 576 275 493 431 576 376 b 538 172 576 232 567 204 b 325 383 504 226 440 285 z "},"¨":{"ha":619,"x_min":0,"x_max":0,"o":"m 428 740 b 510 826 474 740 510 776 b 428 906 510 871 474 906 b 346 826 379 906 346 871 b 428 740 346 776 379 740 z m 192 740 b 274 826 240 740 274 776 b 192 906 274 871 240 906 b 110 826 146 906 110 871 b 192 740 110 776 146 740 z "},"©":{"ha":1161,"x_min":0,"x_max":0,"o":"m 582 1054 b 44 519 286 1054 44 814 b 582 -15 44 226 286 -15 b 1117 519 875 -15 1117 226 b 582 1054 1117 814 875 1054 z m 582 -3 b 57 519 299 -3 57 226 b 582 1042 57 813 299 1042 b 1103 519 865 1042 1103 808 b 582 -3 1103 231 865 -3 z m 601 200 b 799 290 708 200 772 253 l 792 297 b 625 221 760 260 708 221 b 436 533 514 221 436 304 b 601 828 436 739 507 828 b 778 675 683 828 746 781 l 788 675 l 788 829 l 778 829 b 750 806 774 814 764 806 b 601 839 714 806 688 839 b 306 521 463 839 306 738 b 601 200 306 322 442 200 z "},"ª":{"ha":499,"x_min":0,"x_max":0,"o":"m 158 543 b 299 606 226 543 264 571 l 306 611 b 407 546 314 568 347 546 b 494 569 461 546 485 563 l 490 576 b 463 567 483 569 475 567 b 429 689 436 567 429 583 l 429 919 b 225 1053 429 1025 329 1053 b 54 982 132 1053 54 1026 b 100 943 54 961 72 943 b 157 994 133 943 146 965 b 226 1042 174 1026 183 1042 b 303 967 264 1042 303 1026 l 303 886 b 238 804 303 832 283 822 l 221 797 b 31 653 124 756 31 749 b 158 543 31 582 82 543 z m 158 674 b 224 788 158 733 175 767 l 240 794 b 303 836 274 810 293 818 l 303 636 b 304 621 303 629 303 625 l 297 615 b 218 571 271 589 244 571 b 158 674 179 571 158 608 z "},"«":{"ha":532,"x_min":0,"x_max":0,"o":"m 474 89 l 482 94 l 376 319 l 481 544 l 472 550 l 251 325 l 251 314 z m 274 89 l 282 94 l 176 319 l 281 544 l 272 550 l 51 325 l 51 314 z "},"®":{"ha":708,"x_min":0,"x_max":0,"o":"m 356 1054 b 42 743 183 1054 42 915 b 356 432 42 571 183 432 b 667 743 528 432 667 571 b 356 1054 667 915 528 1054 z m 356 443 b 56 743 192 443 56 572 b 356 1042 56 911 192 1042 b 653 743 518 1042 653 911 b 356 443 653 575 518 443 z m 228 592 l 339 592 l 339 597 b 317 701 318 601 317 611 l 317 756 l 332 756 b 382 672 360 756 367 750 b 472 589 394 607 424 589 b 519 606 499 589 513 599 l 517 611 b 494 601 511 604 504 601 b 449 675 472 601 461 626 b 365 757 433 729 408 751 b 493 842 433 757 493 782 b 353 921 493 892 453 921 l 228 921 l 228 915 b 251 810 250 908 251 904 l 251 701 b 228 597 251 611 250 601 z m 349 914 b 432 835 414 914 432 886 b 360 763 432 789 411 763 l 317 763 l 317 914 z "},"¯":{"ha":619,"x_min":0,"x_max":0,"o":"m 164 856 l 164 790 l 461 790 l 461 856 z "},"°":{"ha":347,"x_min":0,"x_max":0,"o":"m 172 1053 b 46 924 101 1053 46 994 b 172 793 46 851 101 793 b 300 924 244 793 300 850 b 172 1053 300 996 244 1053 z m 63 924 b 172 1039 63 989 111 1039 b 283 924 238 1039 283 989 b 172 807 283 858 238 807 b 63 924 111 807 63 858 z "},"´":{"ha":619,"x_min":0,"x_max":0,"o":"m 203 721 l 397 836 b 453 914 429 854 453 876 b 396 971 453 947 433 971 b 315 910 361 971 342 953 l 196 729 z "},"¶":{"ha":733,"x_min":0,"x_max":0,"o":"m 400 492 l 400 1028 l 519 1028 l 519 222 b 396 -106 519 -54 444 -106 b 233 3 325 -106 310 3 b 176 -49 200 3 176 -19 b 319 -131 176 -99 225 -131 b 639 294 503 -131 639 -31 l 639 688 b 711 1032 639 993 643 1013 l 711 1042 l 349 1042 b 28 769 165 1042 28 949 b 347 492 28 593 165 492 z "},"·":{"ha":303,"x_min":0,"x_max":0,"o":"m 151 317 b 244 410 206 317 244 356 b 151 504 244 465 206 504 b 57 410 97 504 57 465 b 151 317 57 356 97 317 z "},"¸":{"ha":619,"x_min":0,"x_max":0,"o":"m 329 0 l 243 -143 l 247 -150 b 342 -203 304 -154 342 -171 b 206 -272 342 -236 283 -260 l 207 -283 b 440 -169 358 -279 440 -247 b 306 -67 440 -115 383 -76 l 344 0 z "},"º":{"ha":543,"x_min":0,"x_max":0,"o":"m 271 538 b 519 792 365 538 519 606 b 271 1053 519 976 365 1053 b 24 792 175 1053 24 976 b 271 538 24 606 175 538 z m 271 549 b 154 792 210 549 154 604 b 271 1042 154 981 210 1042 b 388 792 332 1042 388 981 b 271 549 388 604 332 549 z "},"»":{"ha":532,"x_min":0,"x_max":0,"o":"m 58 89 l 281 314 l 281 325 l 60 550 l 51 544 l 156 319 l 50 94 z m 258 89 l 481 314 l 481 325 l 260 550 l 251 544 l 356 319 l 250 94 z "},"¿":{"ha":583,"x_min":0,"x_max":0,"o":"m 372 358 b 38 -193 367 94 38 40 b 342 -415 38 -326 157 -415 b 556 -310 486 -415 556 -369 b 489 -246 556 -278 529 -246 b 404 -346 426 -246 415 -296 b 343 -404 394 -383 381 -404 b 214 -214 249 -404 214 -351 b 383 358 214 -17 389 86 z m 356 658 b 263 565 301 658 263 619 b 356 471 263 510 301 471 b 450 565 410 471 450 510 b 356 658 450 619 410 658 z "},"À":{"ha":951,"x_min":0,"x_max":0,"o":"m 11 0 l 185 0 l 185 8 b 142 194 101 36 104 94 l 188 322 l 600 322 l 676 124 b 660 10 704 51 703 19 l 660 0 l 940 0 l 940 10 b 838 176 892 26 872 83 l 518 1022 b 496 1042 513 1039 511 1042 l 281 1042 l 281 1033 b 358 944 315 1025 332 1011 l 378 893 l 126 194 b 11 8 72 44 53 24 z m 192 333 l 386 872 l 594 333 z m 560 1082 l 563 1090 l 381 1226 b 307 1253 357 1244 333 1253 b 251 1199 274 1253 251 1226 b 336 1121 251 1161 274 1136 z "},"Á":{"ha":951,"x_min":0,"x_max":0,"o":"m 11 0 l 185 0 l 185 8 b 142 194 101 36 104 94 l 188 322 l 600 322 l 676 124 b 660 10 704 51 703 19 l 660 0 l 940 0 l 940 10 b 838 176 892 26 872 83 l 518 1022 b 496 1042 513 1039 511 1042 l 281 1042 l 281 1033 b 358 944 315 1025 332 1011 l 378 893 l 126 194 b 11 8 72 44 53 24 z m 192 333 l 386 872 l 594 333 z m 292 1082 l 515 1121 b 600 1199 578 1136 600 1161 b 544 1253 600 1226 578 1253 b 471 1226 518 1253 493 1244 l 288 1090 z "},"Â":{"ha":951,"x_min":0,"x_max":0,"o":"m 11 0 l 185 0 l 185 8 b 142 194 101 36 104 94 l 188 322 l 600 322 l 676 124 b 660 10 704 51 703 19 l 660 0 l 940 0 l 940 10 b 838 176 892 26 872 83 l 518 1022 b 496 1042 513 1039 511 1042 l 281 1042 l 281 1033 b 358 944 315 1025 332 1011 l 378 893 l 126 194 b 11 8 72 44 53 24 z m 192 333 l 386 872 l 594 333 z m 233 1088 l 238 1079 l 422 1135 l 607 1079 l 611 1088 l 422 1258 z "},"Ã":{"ha":951,"x_min":0,"x_max":0,"o":"m 11 0 l 185 0 l 185 8 b 142 194 101 36 104 94 l 188 322 l 600 322 l 676 124 b 660 10 704 51 703 19 l 660 0 l 940 0 l 940 10 b 838 176 892 26 872 83 l 518 1022 b 496 1042 513 1039 511 1042 l 281 1042 l 281 1033 b 358 944 315 1025 332 1011 l 378 893 l 126 194 b 11 8 72 44 53 24 z m 192 333 l 386 872 l 594 333 z m 363 1219 b 260 1068 325 1219 288 1175 l 269 1065 b 347 1125 301 1114 325 1125 b 497 1117 397 1125 443 1117 b 604 1269 543 1117 583 1175 l 594 1272 b 513 1211 565 1228 536 1211 b 363 1219 472 1211 418 1219 z "},"Ä":{"ha":951,"x_min":0,"x_max":0,"o":"m 11 0 l 185 0 l 185 8 b 142 194 101 36 104 94 l 188 322 l 600 322 l 676 124 b 660 10 704 51 703 19 l 660 0 l 940 0 l 940 10 b 838 176 892 26 872 83 l 518 1022 b 496 1042 513 1039 511 1042 l 281 1042 l 281 1033 b 358 944 315 1025 332 1011 l 378 893 l 126 194 b 11 8 72 44 53 24 z m 192 333 l 386 872 l 594 333 z m 547 1090 b 629 1175 593 1090 629 1126 b 547 1256 629 1219 593 1256 b 465 1175 501 1256 465 1219 b 547 1090 465 1126 501 1090 z m 297 1090 b 379 1175 343 1090 379 1126 b 297 1256 379 1219 343 1256 b 215 1175 251 1256 215 1219 b 297 1090 215 1126 251 1090 z "},"Å":{"ha":951,"x_min":0,"x_max":0,"o":"m 11 0 l 185 0 l 185 8 b 142 194 101 36 104 94 l 188 322 l 600 322 l 676 124 b 660 10 704 51 703 19 l 660 0 l 940 0 l 940 10 b 838 176 892 26 872 83 l 518 1022 b 496 1042 513 1039 511 1042 l 281 1042 l 281 1033 b 358 944 315 1025 332 1011 l 378 893 l 126 194 b 11 8 72 44 53 24 z m 192 333 l 386 872 l 594 333 z m 304 1188 b 422 1081 304 1122 351 1081 b 542 1188 493 1081 542 1122 b 422 1294 542 1250 493 1294 b 304 1188 354 1294 304 1250 z m 364 1188 b 422 1282 364 1247 385 1282 b 482 1188 460 1282 482 1247 b 422 1093 482 1125 463 1093 b 364 1188 383 1093 364 1125 z "},"Æ":{"ha":1313,"x_min":0,"x_max":0,"o":"m 1026 456 l 1026 696 l 1015 696 b 854 582 997 633 996 582 l 799 582 l 799 1029 l 953 1029 b 1239 874 1146 1029 1197 997 l 1253 874 l 1228 1013 b 1203 1042 1222 1040 1218 1042 l 533 1042 l 533 1032 b 574 946 589 1022 608 1007 l 135 175 b 1 8 68 53 39 26 l 1 0 l 151 0 l 151 8 b 150 175 88 35 106 93 l 238 329 l 618 329 b 546 10 618 47 613 28 l 546 0 l 1240 0 b 1267 25 1256 0 1263 -1 l 1283 186 l 1271 186 b 971 13 1233 42 1178 13 l 799 13 l 799 569 l 854 569 b 1015 456 996 569 997 518 z m 244 340 l 618 997 l 618 340 z "},"Ç":{"ha":899,"x_min":0,"x_max":0,"o":"m 533 -17 b 863 136 711 -17 819 75 l 854 144 b 575 14 803 83 707 14 b 243 543 382 14 243 153 b 531 1043 243 894 369 1043 b 831 797 667 1043 786 968 l 843 797 l 843 1038 l 831 1038 b 783 999 824 1011 807 999 b 531 1056 724 999 674 1056 b 47 522 304 1056 47 886 b 533 -17 47 190 271 -17 z m 447 0 l 361 -143 l 365 -150 b 460 -203 422 -154 460 -171 b 324 -272 460 -236 401 -260 l 325 -283 b 558 -169 476 -279 558 -247 b 424 -67 558 -115 501 -76 l 463 0 z "},"È":{"ha":811,"x_min":0,"x_max":0,"o":"m 24 0 l 739 0 b 765 25 754 0 761 -1 l 782 186 l 769 186 b 469 13 732 42 676 13 l 276 13 l 276 569 l 353 569 b 514 456 494 569 496 518 l 525 456 l 525 696 l 514 696 b 353 582 496 633 494 582 l 276 582 l 276 1029 l 451 1029 b 738 874 644 1029 696 997 l 751 874 l 726 1013 b 701 1042 721 1040 717 1042 l 24 1042 l 24 1032 b 96 692 92 1013 96 992 l 96 350 b 24 10 96 50 92 29 z m 550 1082 l 553 1090 l 371 1226 b 297 1253 347 1244 324 1253 b 242 1199 264 1253 242 1226 b 326 1121 242 1161 264 1136 z "},"É":{"ha":811,"x_min":0,"x_max":0,"o":"m 24 0 l 739 0 b 765 25 754 0 761 -1 l 782 186 l 769 186 b 469 13 732 42 676 13 l 276 13 l 276 569 l 353 569 b 514 456 494 569 496 518 l 525 456 l 525 696 l 514 696 b 353 582 496 633 494 582 l 276 582 l 276 1029 l 451 1029 b 738 874 644 1029 696 997 l 751 874 l 726 1013 b 701 1042 721 1040 717 1042 l 24 1042 l 24 1032 b 96 692 92 1013 96 992 l 96 350 b 24 10 96 50 92 29 z m 282 1082 l 506 1121 b 590 1199 568 1136 590 1161 b 535 1253 590 1226 568 1253 b 461 1226 508 1253 483 1244 l 278 1090 z "},"Ê":{"ha":811,"x_min":0,"x_max":0,"o":"m 24 0 l 739 0 b 765 25 754 0 761 -1 l 782 186 l 769 186 b 469 13 732 42 676 13 l 276 13 l 276 569 l 353 569 b 514 456 494 569 496 518 l 525 456 l 525 696 l 514 696 b 353 582 496 633 494 582 l 276 582 l 276 1029 l 451 1029 b 738 874 644 1029 696 997 l 751 874 l 726 1013 b 701 1042 721 1040 717 1042 l 24 1042 l 24 1032 b 96 692 92 1013 96 992 l 96 350 b 24 10 96 50 92 29 z m 224 1088 l 228 1079 l 413 1135 l 597 1079 l 601 1088 l 413 1258 z "},"Ë":{"ha":811,"x_min":0,"x_max":0,"o":"m 24 0 l 739 0 b 765 25 754 0 761 -1 l 782 186 l 769 186 b 469 13 732 42 676 13 l 276 13 l 276 569 l 353 569 b 514 456 494 569 496 518 l 525 456 l 525 696 l 514 696 b 353 582 496 633 494 582 l 276 582 l 276 1029 l 451 1029 b 738 874 644 1029 696 997 l 751 874 l 726 1013 b 701 1042 721 1040 717 1042 l 24 1042 l 24 1032 b 96 692 92 1013 96 992 l 96 350 b 24 10 96 50 92 29 z m 538 1090 b 619 1175 583 1090 619 1126 b 538 1256 619 1219 583 1256 b 456 1175 492 1256 456 1219 b 538 1090 456 1126 492 1090 z m 288 1090 b 369 1175 333 1090 369 1126 b 288 1256 369 1219 333 1256 b 206 1175 242 1256 206 1219 b 288 1090 206 1126 242 1090 z "},"Ì":{"ha":368,"x_min":0,"x_max":0,"o":"m 24 0 l 344 0 l 344 10 b 272 350 276 29 272 50 l 272 692 b 344 1032 272 993 276 1013 l 344 1042 l 24 1042 l 24 1032 b 96 692 92 1013 96 993 l 96 350 b 24 10 96 50 92 29 z m 319 1082 l 322 1090 l 140 1226 b 67 1253 117 1244 93 1253 b 11 1199 33 1253 11 1226 b 96 1121 11 1161 33 1136 z "},"Í":{"ha":368,"x_min":0,"x_max":0,"o":"m 24 0 l 344 0 l 344 10 b 272 350 276 29 272 50 l 272 692 b 344 1032 272 993 276 1013 l 344 1042 l 24 1042 l 24 1032 b 96 692 92 1013 96 993 l 96 350 b 24 10 96 50 92 29 z m 53 1082 l 276 1121 b 361 1199 339 1136 361 1161 b 306 1253 361 1226 339 1253 b 232 1226 279 1253 254 1244 l 49 1090 z "},"Î":{"ha":368,"x_min":0,"x_max":0,"o":"m 24 0 l 344 0 l 344 10 b 272 350 276 29 272 50 l 272 692 b 344 1032 272 993 276 1013 l 344 1042 l 24 1042 l 24 1032 b 96 692 92 1013 96 993 l 96 350 b 24 10 96 50 92 29 z m -6 1088 l -1 1079 l 183 1135 l 368 1079 l 372 1088 l 183 1258 z "},"Ï":{"ha":368,"x_min":0,"x_max":0,"o":"m 293 1090 b 375 1175 339 1090 375 1126 b 293 1256 375 1219 339 1256 b 211 1175 247 1256 211 1219 b 293 1090 211 1126 247 1090 z m 75 1090 b 157 1175 121 1090 157 1126 b 75 1256 157 1219 121 1256 b -7 1175 29 1256 -7 1219 b 75 1090 -7 1126 29 1090 z m 24 0 l 344 0 l 344 10 b 272 350 276 29 272 50 l 272 692 b 344 1032 272 993 276 1013 l 344 1042 l 24 1042 l 24 1032 b 96 692 92 1013 96 993 l 96 350 b 24 10 96 50 92 29 z "},"Ñ":{"ha":890,"x_min":0,"x_max":0,"o":"m 24 0 l 192 0 l 192 10 b 110 356 114 43 110 63 l 110 1013 l 768 -4 l 806 -4 l 806 686 b 878 1032 806 979 810 999 l 878 1042 l 710 1042 l 710 1032 b 792 686 788 999 792 979 l 792 281 l 326 1000 b 272 1042 300 1039 299 1042 l 24 1042 l 24 1032 b 96 692 92 1013 96 992 l 96 356 b 24 10 96 63 92 43 z m 446 1219 b 343 1068 408 1219 371 1175 l 353 1065 b 431 1125 385 1114 408 1125 b 581 1117 481 1125 526 1117 b 688 1269 626 1117 667 1175 l 678 1272 b 596 1211 649 1228 619 1211 b 446 1219 556 1211 501 1219 z "},"Ò":{"ha":1040,"x_min":0,"x_max":0,"o":"m 519 -18 b 993 522 767 -18 993 207 b 519 1056 993 838 767 1056 b 47 522 274 1056 47 838 b 519 -18 47 207 274 -18 z m 519 -6 b 243 522 360 -6 243 154 b 519 1044 243 889 375 1044 b 797 522 665 1044 797 889 b 519 -6 797 154 679 -6 z m 657 1082 l 660 1090 l 478 1226 b 404 1253 454 1244 431 1253 b 349 1199 371 1253 349 1226 b 433 1121 349 1161 371 1136 z "},"Ó":{"ha":1040,"x_min":0,"x_max":0,"o":"m 519 -18 b 993 522 767 -18 993 207 b 519 1056 993 838 767 1056 b 47 522 274 1056 47 838 b 519 -18 47 207 274 -18 z m 519 -6 b 243 522 360 -6 243 154 b 519 1044 243 889 375 1044 b 797 522 665 1044 797 889 b 519 -6 797 154 679 -6 z m 389 1082 l 613 1121 b 697 1199 675 1136 697 1161 b 642 1253 697 1226 675 1253 b 568 1226 615 1253 590 1244 l 385 1090 z "},"Ô":{"ha":1040,"x_min":0,"x_max":0,"o":"m 519 -18 b 993 522 767 -18 993 207 b 519 1056 993 838 767 1056 b 47 522 274 1056 47 838 b 519 -18 47 207 274 -18 z m 519 -6 b 243 522 360 -6 243 154 b 519 1044 243 889 375 1044 b 797 522 665 1044 797 889 b 519 -6 797 154 679 -6 z m 332 1088 l 336 1079 l 521 1135 l 706 1079 l 710 1088 l 521 1258 z "},"Õ":{"ha":1040,"x_min":0,"x_max":0,"o":"m 519 -18 b 993 522 767 -18 993 207 b 519 1056 993 838 767 1056 b 47 522 274 1056 47 838 b 519 -18 47 207 274 -18 z m 519 -6 b 243 522 360 -6 243 154 b 519 1044 243 889 375 1044 b 797 522 665 1044 797 889 b 519 -6 797 154 679 -6 z m 461 1219 b 358 1068 424 1219 386 1175 l 368 1065 b 446 1125 400 1114 424 1125 b 596 1117 496 1125 542 1117 b 703 1269 642 1117 682 1175 l 693 1272 b 611 1211 664 1228 635 1211 b 461 1219 571 1211 517 1219 z "},"Ö":{"ha":1040,"x_min":0,"x_max":0,"o":"m 519 -18 b 993 522 767 -18 993 207 b 519 1056 993 838 767 1056 b 47 522 274 1056 47 838 b 519 -18 47 207 274 -18 z m 519 -6 b 243 522 360 -6 243 154 b 519 1044 243 889 375 1044 b 797 522 665 1044 797 889 b 519 -6 797 154 679 -6 z m 646 1090 b 728 1175 692 1090 728 1126 b 646 1256 728 1219 692 1256 b 564 1175 600 1256 564 1219 b 646 1090 564 1126 600 1090 z m 396 1090 b 478 1175 442 1090 478 1126 b 396 1256 478 1219 442 1256 b 314 1175 350 1256 314 1219 b 396 1090 314 1126 350 1090 z "},"Ø":{"ha":1040,"x_min":0,"x_max":0,"o":"m 519 -18 b 993 522 767 -18 993 207 b 750 988 993 733 890 899 l 807 1100 l 794 1107 l 739 996 b 519 1056 671 1036 597 1056 b 47 522 274 1056 47 838 b 271 64 47 322 142 157 l 207 -64 l 219 -69 l 282 56 b 519 -18 354 7 435 -18 z m 243 522 b 519 1044 243 889 375 1044 b 707 932 590 1044 656 1010 l 311 143 b 243 522 268 228 243 354 z m 519 -6 b 318 128 438 -6 368 35 l 715 917 b 797 522 765 832 797 704 b 519 -6 797 154 679 -6 z "},"Ù":{"ha":925,"x_min":0,"x_max":0,"o":"m 494 -15 b 833 349 704 -15 833 88 l 833 686 b 906 1032 833 979 838 999 l 906 1042 l 738 1042 l 738 1032 b 818 686 814 999 818 978 l 818 349 b 500 -3 818 93 696 -3 b 267 324 285 -3 267 113 l 267 692 b 339 1032 267 993 271 1013 l 339 1042 l 19 1042 l 19 1032 b 89 692 86 1014 89 993 l 89 354 b 494 -15 89 106 244 -15 z m 668 1082 l 671 1090 l 489 1226 b 415 1253 465 1244 442 1253 b 360 1199 382 1253 360 1226 b 444 1121 360 1161 382 1136 z "},"Ú":{"ha":925,"x_min":0,"x_max":0,"o":"m 494 -15 b 833 349 704 -15 833 88 l 833 686 b 906 1032 833 979 838 999 l 906 1042 l 738 1042 l 738 1032 b 818 686 814 999 818 978 l 818 349 b 500 -3 818 93 696 -3 b 267 324 285 -3 267 113 l 267 692 b 339 1032 267 993 271 1013 l 339 1042 l 19 1042 l 19 1032 b 89 692 86 1014 89 993 l 89 354 b 494 -15 89 106 244 -15 z m 401 1082 l 625 1121 b 710 1199 688 1136 710 1161 b 654 1253 710 1226 688 1253 b 581 1226 628 1253 603 1244 l 397 1090 z "},"Û":{"ha":925,"x_min":0,"x_max":0,"o":"m 494 -15 b 833 349 704 -15 833 88 l 833 686 b 906 1032 833 979 838 999 l 906 1042 l 738 1042 l 738 1032 b 818 686 814 999 818 978 l 818 349 b 500 -3 818 93 696 -3 b 267 324 285 -3 267 113 l 267 692 b 339 1032 267 993 271 1013 l 339 1042 l 19 1042 l 19 1032 b 89 692 86 1014 89 993 l 89 354 b 494 -15 89 106 244 -15 z m 343 1088 l 347 1079 l 532 1135 l 717 1079 l 721 1088 l 532 1258 z "},"Ü":{"ha":925,"x_min":0,"x_max":0,"o":"m 494 -15 b 833 349 704 -15 833 88 l 833 686 b 906 1032 833 979 838 999 l 906 1042 l 738 1042 l 738 1032 b 818 686 814 999 818 978 l 818 349 b 500 -3 818 93 696 -3 b 267 324 285 -3 267 113 l 267 692 b 339 1032 267 993 271 1013 l 339 1042 l 19 1042 l 19 1032 b 89 692 86 1014 89 993 l 89 354 b 494 -15 89 106 244 -15 z m 657 1090 b 739 1175 703 1090 739 1126 b 657 1256 739 1219 703 1256 b 575 1175 611 1256 575 1219 b 657 1090 575 1126 611 1090 z m 407 1090 b 489 1175 453 1090 489 1126 b 407 1256 489 1219 453 1256 b 325 1175 361 1256 325 1219 b 407 1090 325 1126 361 1090 z "},"ß":{"ha":761,"x_min":0,"x_max":0,"o":"m 244 851 b 388 1046 244 994 299 1046 b 515 869 493 1046 515 976 b 451 686 515 799 506 742 b 325 499 400 631 325 588 b 482 300 325 421 375 371 b 624 115 589 231 624 188 b 517 1 624 54 588 1 b 342 188 418 1 368 67 l 331 188 l 331 11 l 343 11 b 365 33 347 22 353 33 b 517 -10 399 33 419 -10 b 742 189 633 -10 742 67 b 569 428 742 283 692 346 b 419 589 476 488 419 528 b 471 688 419 622 428 644 b 643 890 538 754 643 790 b 388 1058 643 994 531 1058 b 88 776 253 1058 88 976 l 88 761 b 21 644 88 669 81 656 l 21 633 l 86 633 l 86 213 b 31 10 86 46 85 24 l 31 0 l 300 0 l 300 10 b 244 213 244 25 244 46 z "},"à":{"ha":618,"x_min":0,"x_max":0,"o":"m 194 -11 b 379 71 283 -11 331 25 l 388 79 b 515 -8 399 21 442 -8 b 626 24 586 -8 614 14 l 624 31 b 588 18 614 25 603 18 b 542 179 550 18 542 40 l 542 483 b 278 658 542 622 407 658 b 57 565 157 658 57 625 b 115 514 57 538 78 514 b 189 581 158 514 172 543 b 281 646 210 624 225 646 b 385 547 331 646 385 624 l 385 440 b 299 332 385 371 357 357 l 275 322 b 26 133 147 267 26 260 b 194 -11 26 40 94 -11 z m 186 161 b 278 310 186 239 213 283 l 301 321 b 385 381 347 342 374 354 l 385 113 b 386 92 385 106 385 97 l 379 85 b 271 24 340 47 304 24 b 186 161 215 24 186 72 z m 393 721 l 400 729 l 281 910 b 200 971 254 953 235 971 b 143 914 163 971 143 947 b 199 836 143 876 167 854 z "},"á":{"ha":618,"x_min":0,"x_max":0,"o":"m 194 -11 b 379 71 283 -11 331 25 l 388 79 b 515 -8 399 21 442 -8 b 626 24 586 -8 614 14 l 624 31 b 588 18 614 25 603 18 b 542 179 550 18 542 40 l 542 483 b 278 658 542 622 407 658 b 57 565 157 658 57 625 b 115 514 57 538 78 514 b 189 581 158 514 172 543 b 281 646 210 624 225 646 b 385 547 331 646 385 624 l 385 440 b 299 332 385 371 357 357 l 275 322 b 26 133 147 267 26 260 b 194 -11 26 40 94 -11 z m 186 161 b 278 310 186 239 213 283 l 301 321 b 385 381 347 342 374 354 l 385 113 b 386 92 385 106 385 97 l 379 85 b 271 24 340 47 304 24 b 186 161 215 24 186 72 z m 207 721 l 401 836 b 457 914 433 854 457 876 b 400 971 457 947 438 971 b 319 910 365 971 346 953 l 200 729 z "},"â":{"ha":618,"x_min":0,"x_max":0,"o":"m 194 -11 b 379 71 283 -11 331 25 l 388 79 b 515 -8 399 21 442 -8 b 626 24 586 -8 614 14 l 624 31 b 588 18 614 25 603 18 b 542 179 550 18 542 40 l 542 483 b 278 658 542 622 407 658 b 57 565 157 658 57 625 b 115 514 57 538 78 514 b 189 581 158 514 172 543 b 281 646 210 624 225 646 b 385 547 331 646 385 624 l 385 440 b 299 332 385 371 357 357 l 275 322 b 26 133 147 267 26 260 b 194 -11 26 40 94 -11 z m 186 161 b 278 310 186 239 213 283 l 301 321 b 385 381 347 342 374 354 l 385 113 b 386 92 385 106 385 97 l 379 85 b 271 24 340 47 304 24 b 186 161 215 24 186 72 z m 126 724 l 135 718 l 290 825 l 446 718 l 454 724 l 290 978 z "},"ã":{"ha":618,"x_min":0,"x_max":0,"o":"m 194 -11 b 379 71 283 -11 331 25 l 388 79 b 515 -8 399 21 442 -8 b 626 24 586 -8 614 14 l 624 31 b 588 18 614 25 603 18 b 542 179 550 18 542 40 l 542 483 b 278 658 542 622 407 658 b 57 565 157 658 57 625 b 115 514 57 538 78 514 b 189 581 158 514 172 543 b 281 646 210 624 225 646 b 385 547 331 646 385 624 l 385 440 b 299 332 385 371 357 357 l 275 322 b 26 133 147 267 26 260 b 194 -11 26 40 94 -11 z m 186 161 b 278 310 186 239 213 283 l 301 321 b 385 381 347 342 374 354 l 385 113 b 386 92 385 106 385 97 l 379 85 b 271 24 340 47 304 24 b 186 161 215 24 186 72 z m 231 896 b 128 746 188 896 160 840 l 138 742 b 213 801 171 790 186 801 b 357 788 263 801 306 788 b 460 939 406 788 438 851 l 451 943 b 376 882 419 897 400 882 b 231 896 332 882 286 896 z "},"ä":{"ha":618,"x_min":0,"x_max":0,"o":"m 194 -11 b 379 71 283 -11 331 25 l 388 79 b 515 -8 399 21 442 -8 b 626 24 586 -8 614 14 l 624 31 b 588 18 614 25 603 18 b 542 179 550 18 542 40 l 542 483 b 278 658 542 622 407 658 b 57 565 157 658 57 625 b 115 514 57 538 78 514 b 189 581 158 514 172 543 b 281 646 210 624 225 646 b 385 547 331 646 385 624 l 385 440 b 299 332 385 371 357 357 l 275 322 b 26 133 147 267 26 260 b 194 -11 26 40 94 -11 z m 186 161 b 278 310 186 239 213 283 l 301 321 b 385 381 347 342 374 354 l 385 113 b 386 92 385 106 385 97 l 379 85 b 271 24 340 47 304 24 b 186 161 215 24 186 72 z m 408 740 b 490 826 454 740 490 776 b 408 906 490 871 454 906 b 326 826 360 906 326 871 b 408 740 326 776 360 740 z m 172 740 b 254 826 221 740 254 776 b 172 906 254 871 221 906 b 90 826 126 906 90 871 b 172 740 90 776 126 740 z "},"å":{"ha":618,"x_min":0,"x_max":0,"o":"m 194 -11 b 379 71 283 -11 331 25 l 388 79 b 515 -8 399 21 442 -8 b 626 24 586 -8 614 14 l 624 31 b 588 18 614 25 603 18 b 542 179 550 18 542 40 l 542 483 b 278 658 542 622 407 658 b 57 565 157 658 57 625 b 115 514 57 538 78 514 b 189 581 158 514 172 543 b 281 646 210 624 225 646 b 385 547 331 646 385 624 l 385 440 b 299 332 385 371 357 357 l 275 322 b 26 133 147 267 26 260 b 194 -11 26 40 94 -11 z m 186 161 b 278 310 186 239 213 283 l 301 321 b 385 381 347 342 374 354 l 385 113 b 386 92 385 106 385 97 l 379 85 b 271 24 340 47 304 24 b 186 161 215 24 186 72 z m 172 843 b 290 736 172 778 219 736 b 408 843 361 736 408 778 b 290 950 408 906 361 950 b 172 843 222 950 172 906 z m 232 843 b 290 938 232 903 253 938 b 350 843 328 938 350 903 b 290 749 350 781 331 749 b 232 843 251 749 232 781 z "},"æ":{"ha":979,"x_min":0,"x_max":0,"o":"m 196 -11 b 386 71 293 -11 335 24 l 442 124 b 719 -11 507 29 613 -11 b 936 65 826 -11 888 26 l 928 75 b 756 15 882 40 835 15 b 546 338 615 15 546 146 b 553 451 546 381 549 418 l 950 451 b 689 660 939 546 863 660 b 503 590 632 660 563 639 b 278 658 453 642 365 658 b 57 565 157 658 57 625 b 115 514 57 538 78 514 b 189 581 158 514 172 543 b 281 646 210 624 225 646 b 385 547 331 646 385 624 l 385 440 b 299 332 385 371 357 357 l 275 322 b 26 133 147 267 26 260 b 196 -11 26 40 96 -11 z m 689 647 b 807 464 771 647 797 575 l 554 464 b 689 647 575 599 626 647 z m 186 161 b 278 310 186 239 213 283 l 301 321 b 385 381 347 342 374 354 l 385 329 b 436 132 385 247 404 183 l 386 85 b 271 24 343 46 304 24 b 186 161 215 24 186 72 z "},"ç":{"ha":590,"x_min":0,"x_max":0,"o":"m 353 -10 b 574 88 458 -10 531 33 l 565 94 b 393 17 525 46 472 17 b 196 351 275 17 196 124 b 358 647 196 568 268 647 b 426 599 396 647 415 636 b 511 506 444 538 456 506 b 568 557 544 506 568 525 b 357 660 568 621 472 660 b 32 314 218 660 32 536 b 353 -10 32 118 179 -10 z m 292 0 l 206 -143 l 210 -150 b 304 -203 267 -154 304 -171 b 168 -272 304 -236 246 -260 l 169 -283 b 403 -169 321 -279 403 -247 b 268 -67 403 -115 346 -76 l 307 0 z "},"è":{"ha":631,"x_min":0,"x_max":0,"o":"m 368 -11 b 586 65 475 -11 538 26 l 579 75 b 404 15 531 40 483 15 b 193 338 264 15 193 146 b 200 451 193 381 196 418 l 601 451 b 338 660 590 546 510 660 b 32 329 215 660 32 558 b 368 -11 32 90 201 -11 z m 338 647 b 458 464 419 647 447 575 l 201 464 b 338 647 222 599 275 647 z m 447 721 l 454 729 l 335 910 b 254 971 308 953 289 971 b 197 914 217 971 197 947 b 253 836 197 876 221 854 z "},"é":{"ha":631,"x_min":0,"x_max":0,"o":"m 368 -11 b 586 65 475 -11 538 26 l 579 75 b 404 15 531 40 483 15 b 193 338 264 15 193 146 b 200 451 193 381 196 418 l 601 451 b 338 660 590 546 510 660 b 32 329 215 660 32 558 b 368 -11 32 90 201 -11 z m 338 647 b 458 464 419 647 447 575 l 201 464 b 338 647 222 599 275 647 z m 260 721 l 454 836 b 510 914 486 854 510 876 b 453 971 510 947 490 971 b 372 910 418 971 399 953 l 253 729 z "},"ê":{"ha":631,"x_min":0,"x_max":0,"o":"m 368 -11 b 586 65 475 -11 538 26 l 579 75 b 404 15 531 40 483 15 b 193 338 264 15 193 146 b 200 451 193 381 196 418 l 601 451 b 338 660 590 546 510 660 b 32 329 215 660 32 558 b 368 -11 32 90 201 -11 z m 338 647 b 458 464 419 647 447 575 l 201 464 b 338 647 222 599 275 647 z m 179 724 l 188 718 l 343 825 l 499 718 l 507 724 l 343 978 z "},"ë":{"ha":631,"x_min":0,"x_max":0,"o":"m 368 -11 b 586 65 475 -11 538 26 l 579 75 b 404 15 531 40 483 15 b 193 338 264 15 193 146 b 200 451 193 381 196 418 l 601 451 b 338 660 590 546 510 660 b 32 329 215 660 32 558 b 368 -11 32 90 201 -11 z m 338 647 b 458 464 419 647 447 575 l 201 464 b 338 647 222 599 275 647 z m 461 740 b 543 826 507 740 543 776 b 461 906 543 871 507 906 b 379 826 413 906 379 871 b 461 740 379 776 413 740 z m 225 740 b 307 826 274 740 307 776 b 225 906 307 871 274 906 b 143 826 179 906 143 871 b 225 740 143 776 179 740 z "},"ì":{"ha":313,"x_min":0,"x_max":0,"o":"m 19 0 l 296 0 l 296 10 b 235 213 236 25 235 46 l 235 667 l 21 549 l 21 538 b 78 365 78 531 78 528 l 78 213 b 19 10 78 46 75 25 z m 260 721 l 267 729 l 147 910 b 67 971 121 953 101 971 b 10 914 29 971 10 947 b 65 836 10 876 33 854 z "},"í":{"ha":313,"x_min":0,"x_max":0,"o":"m 19 0 l 296 0 l 296 10 b 235 213 236 25 235 46 l 235 667 l 21 549 l 21 538 b 78 365 78 531 78 528 l 78 213 b 19 10 78 46 75 25 z m 74 721 l 268 836 b 324 914 300 854 324 876 b 267 971 324 947 304 971 b 186 910 232 971 213 953 l 67 729 z "},"î":{"ha":313,"x_min":0,"x_max":0,"o":"m 19 0 l 296 0 l 296 10 b 235 213 236 25 235 46 l 235 667 l 21 549 l 21 538 b 78 365 78 531 78 528 l 78 213 b 19 10 78 46 75 25 z m -7 724 l 1 718 l 157 825 l 313 718 l 321 724 l 157 978 z "},"ï":{"ha":313,"x_min":0,"x_max":0,"o":"m 256 740 b 336 826 301 740 336 776 b 256 906 336 871 301 906 b 172 826 207 906 172 871 b 256 740 172 776 207 740 z m 56 740 b 138 826 104 740 138 776 b 56 906 138 871 104 906 b -26 826 10 906 -26 871 b 56 740 -26 776 10 740 z m 19 0 l 296 0 l 296 10 b 235 213 236 25 235 46 l 235 667 l 21 549 l 21 538 b 78 365 78 531 78 528 l 78 213 b 19 10 78 46 75 25 z "},"ñ":{"ha":718,"x_min":0,"x_max":0,"o":"m 21 0 l 294 0 l 294 10 b 233 213 235 25 233 46 l 233 492 l 268 525 b 419 621 335 590 382 621 b 488 528 457 621 488 599 l 488 213 b 425 10 488 46 481 25 l 425 0 l 701 0 l 701 10 b 646 213 646 25 646 46 l 646 483 b 485 658 646 619 564 658 b 268 542 400 658 340 613 l 233 508 l 233 667 l 19 549 l 19 538 b 76 365 76 531 76 528 l 76 213 b 21 10 76 46 75 24 z m 313 896 b 210 746 269 896 242 840 l 219 742 b 294 801 253 790 268 801 b 439 788 344 801 388 788 b 542 939 488 788 519 851 l 533 943 b 458 882 501 897 482 882 b 313 896 414 882 368 896 z "},"ò":{"ha":704,"x_min":0,"x_max":0,"o":"m 353 -11 b 672 321 475 -11 672 76 b 353 661 672 561 475 661 b 32 321 231 661 32 561 b 353 -11 32 76 231 -11 z m 353 1 b 196 321 268 1 196 74 b 353 649 196 567 268 649 b 508 321 438 649 508 567 b 353 1 508 74 438 1 z m 456 721 l 463 729 l 343 910 b 263 971 317 953 297 971 b 206 914 225 971 206 947 b 261 836 206 876 229 854 z "},"ó":{"ha":704,"x_min":0,"x_max":0,"o":"m 353 -11 b 672 321 475 -11 672 76 b 353 661 672 561 475 661 b 32 321 231 661 32 561 b 353 -11 32 76 231 -11 z m 353 1 b 196 321 268 1 196 74 b 353 649 196 567 268 649 b 508 321 438 649 508 567 b 353 1 508 74 438 1 z m 268 721 l 463 836 b 518 914 494 854 518 876 b 461 971 518 947 499 971 b 381 910 426 971 407 953 l 261 729 z "},"ô":{"ha":704,"x_min":0,"x_max":0,"o":"m 353 -11 b 672 321 475 -11 672 76 b 353 661 672 561 475 661 b 32 321 231 661 32 561 b 353 -11 32 76 231 -11 z m 353 1 b 196 321 268 1 196 74 b 353 649 196 567 268 649 b 508 321 438 649 508 567 b 353 1 508 74 438 1 z m 188 724 l 196 718 l 351 825 l 507 718 l 515 724 l 351 978 z "},"õ":{"ha":704,"x_min":0,"x_max":0,"o":"m 353 -11 b 672 321 475 -11 672 76 b 353 661 672 561 475 661 b 32 321 231 661 32 561 b 353 -11 32 76 231 -11 z m 353 1 b 196 321 268 1 196 74 b 353 649 196 567 268 649 b 508 321 438 649 508 567 b 353 1 508 74 438 1 z m 292 896 b 189 746 249 896 221 840 l 199 742 b 274 801 232 790 247 801 b 418 788 324 801 367 788 b 521 939 467 788 499 851 l 513 943 b 438 882 481 897 461 882 b 292 896 393 882 347 896 z "},"ö":{"ha":704,"x_min":0,"x_max":0,"o":"m 353 -11 b 672 321 475 -11 672 76 b 353 661 672 561 475 661 b 32 321 231 661 32 561 b 353 -11 32 76 231 -11 z m 353 1 b 196 321 268 1 196 74 b 353 649 196 567 268 649 b 508 321 438 649 508 567 b 353 1 508 74 438 1 z m 469 740 b 551 826 515 740 551 776 b 469 906 551 871 515 906 b 388 826 421 906 388 871 b 469 740 388 776 421 740 z m 233 740 b 315 826 282 740 315 776 b 233 906 315 871 282 906 b 151 826 188 906 151 871 b 233 740 151 776 188 740 z "},"÷":{"ha":653,"x_min":0,"x_max":0,"o":"m 238 699 b 328 608 238 650 278 608 b 418 699 376 608 418 650 b 328 789 418 747 376 789 b 238 699 278 789 238 747 z m 63 479 l 592 479 l 592 496 l 63 496 z m 238 275 b 328 183 238 225 278 183 b 418 275 376 183 418 225 b 328 365 418 324 376 365 b 238 275 278 365 238 324 z "},"ø":{"ha":704,"x_min":0,"x_max":0,"o":"m 353 1 b 233 86 304 1 263 24 l 475 550 b 468 565 474 556 472 560 l 499 622 b 353 661 449 649 396 661 b 32 321 231 661 32 561 b 192 33 32 172 106 82 l 139 -67 l 150 -74 l 203 28 b 192 33 197 29 193 32 l 226 101 b 196 321 206 151 196 221 b 353 649 196 567 268 649 b 468 565 399 649 440 625 l 226 101 l 233 86 l 203 28 b 353 -11 254 0 308 -11 b 672 321 475 -11 672 76 b 510 617 672 471 596 564 l 556 704 l 544 711 l 499 622 l 510 617 l 475 550 b 508 321 496 499 508 425 b 353 1 508 74 438 1 z "},"ù":{"ha":700,"x_min":0,"x_max":0,"o":"m 235 -11 b 451 110 319 -11 378 39 l 469 126 l 469 0 l 685 0 l 685 10 b 626 213 629 25 626 46 l 626 667 l 413 549 l 413 538 b 469 365 469 531 469 528 l 469 143 l 451 126 b 299 26 385 61 336 26 b 232 119 264 26 232 49 l 232 667 l 17 549 l 17 538 b 74 365 74 531 74 528 l 74 160 b 235 -11 74 28 154 -11 z m 478 721 l 485 729 l 365 910 b 285 971 339 953 319 971 b 228 914 247 971 228 947 b 283 836 228 876 251 854 z "},"ú":{"ha":700,"x_min":0,"x_max":0,"o":"m 235 -11 b 451 110 319 -11 378 39 l 469 126 l 469 0 l 685 0 l 685 10 b 626 213 629 25 626 46 l 626 667 l 413 549 l 413 538 b 469 365 469 531 469 528 l 469 143 l 451 126 b 299 26 385 61 336 26 b 232 119 264 26 232 49 l 232 667 l 17 549 l 17 538 b 74 365 74 531 74 528 l 74 160 b 235 -11 74 28 154 -11 z m 290 721 l 485 836 b 540 914 517 854 540 876 b 483 971 540 947 521 971 b 403 910 449 971 429 953 l 283 729 z "},"û":{"ha":700,"x_min":0,"x_max":0,"o":"m 235 -11 b 451 110 319 -11 378 39 l 469 126 l 469 0 l 685 0 l 685 10 b 626 213 629 25 626 46 l 626 667 l 413 549 l 413 538 b 469 365 469 531 469 528 l 469 143 l 451 126 b 299 26 385 61 336 26 b 232 119 264 26 232 49 l 232 667 l 17 549 l 17 538 b 74 365 74 531 74 528 l 74 160 b 235 -11 74 28 154 -11 z m 210 724 l 218 718 l 374 825 l 529 718 l 538 724 l 374 978 z "},"ü":{"ha":700,"x_min":0,"x_max":0,"o":"m 235 -11 b 451 110 319 -11 378 39 l 469 126 l 469 0 l 685 0 l 685 10 b 626 213 629 25 626 46 l 626 667 l 413 549 l 413 538 b 469 365 469 531 469 528 l 469 143 l 451 126 b 299 26 385 61 336 26 b 232 119 264 26 232 49 l 232 667 l 17 549 l 17 538 b 74 365 74 531 74 528 l 74 160 b 235 -11 74 28 154 -11 z m 492 740 b 574 826 538 740 574 776 b 492 906 574 871 538 906 b 410 826 443 906 410 871 b 492 740 410 776 443 740 z m 256 740 b 338 826 304 740 338 776 b 256 906 338 871 304 906 b 174 826 210 906 174 871 b 256 740 174 776 210 740 z "},"ÿ":{"ha":629,"x_min":0,"x_max":0,"o":"m 143 -237 b 315 -49 215 -237 260 -187 l 522 467 b 633 639 582 615 594 628 l 633 647 l 482 647 l 482 639 b 507 467 536 632 567 614 l 388 171 l 250 500 b 258 639 203 614 218 632 l 258 647 l -4 647 l -4 639 b 90 497 29 628 38 617 l 313 -17 l 301 -44 b 215 -164 261 -144 239 -164 b 118 -128 174 -164 167 -128 b 68 -179 92 -128 68 -142 b 143 -237 68 -212 93 -237 z m 486 740 b 568 826 532 740 568 776 b 486 906 568 871 532 906 b 404 826 438 906 404 871 b 486 740 404 776 438 740 z m 250 740 b 332 826 299 740 332 776 b 250 906 332 871 299 906 b 168 826 204 906 168 871 b 250 740 168 776 204 740 z "},"ı":{"ha":315,"x_min":0,"x_max":0,"o":"m 19 0 l 296 0 l 296 10 b 235 213 236 25 235 46 l 235 667 l 21 549 l 21 538 b 78 365 78 531 78 528 l 78 213 b 19 10 78 46 75 25 z "},"Œ":{"ha":1389,"x_min":0,"x_max":0,"o":"m 1101 456 l 1101 696 l 1092 696 b 931 582 1074 633 1072 582 l 875 582 l 875 1029 l 1029 1029 b 1315 874 1222 1029 1274 997 l 1329 874 l 1304 1013 b 1279 1042 1299 1040 1294 1042 l 569 1042 b 47 522 268 1042 47 838 b 571 0 47 189 271 0 l 1317 0 b 1343 25 1332 0 1339 -1 l 1360 186 l 1346 186 b 1047 13 1308 42 1254 13 l 875 13 l 875 569 l 931 569 b 1092 456 1072 569 1074 518 z m 571 1029 b 693 681 688 1029 693 994 l 693 356 b 571 13 693 49 692 13 b 242 522 378 13 242 161 b 571 1029 242 876 350 1029 z "},"œ":{"ha":1106,"x_min":0,"x_max":0,"o":"m 351 -10 b 588 99 425 -10 521 22 b 843 -11 653 22 744 -11 b 1063 65 953 -11 1014 26 l 1054 75 b 879 15 1008 40 958 15 b 668 338 740 15 668 146 b 675 451 668 381 671 418 l 1076 451 b 813 660 1065 546 986 660 b 586 547 740 660 649 625 b 351 660 519 625 424 660 b 32 321 229 660 32 563 b 351 -10 32 78 229 -10 z m 351 3 b 196 321 267 3 196 72 b 351 649 196 567 267 649 b 506 321 435 649 506 567 b 351 3 506 72 435 3 z m 813 647 b 933 464 894 647 924 575 l 676 464 b 813 647 697 599 751 647 z "},"Ÿ":{"ha":871,"x_min":0,"x_max":0,"o":"m 281 0 l 603 0 l 603 10 b 531 350 535 29 531 50 l 531 531 l 718 867 b 863 1033 789 997 821 1015 l 863 1042 l 710 1042 l 710 1033 b 703 867 778 1011 754 963 l 524 546 l 304 929 b 321 1033 271 989 282 1018 l 321 1042 l 8 1042 l 8 1033 b 147 867 68 1003 94 957 l 353 513 l 353 350 b 281 10 353 50 349 29 z m 635 1090 b 717 1175 681 1090 717 1126 b 635 1256 717 1219 681 1256 b 553 1175 589 1256 553 1219 b 635 1090 553 1126 589 1090 z m 385 1090 b 467 1175 431 1090 467 1126 b 385 1256 467 1219 431 1256 b 303 1175 339 1256 303 1219 b 385 1090 303 1126 339 1090 z "},"ƒ":{"ha":551,"x_min":0,"x_max":0,"o":"m 97 633 l 186 633 l 129 204 b 24 -153 89 -94 76 -153 b -22 -87 -6 -153 -12 -137 b -85 -24 -29 -44 -42 -24 b -142 -76 -125 -24 -142 -53 b 15 -165 -142 -139 -64 -165 b 279 190 138 -165 246 -61 l 335 633 l 467 633 l 467 647 l 338 647 l 365 872 b 435 1046 382 1006 397 1046 b 471 979 458 1046 461 1033 b 536 921 478 939 493 921 b 590 971 575 921 590 949 b 446 1058 590 1031 528 1058 b 208 799 349 1058 235 993 l 188 647 l 97 647 z "},"ˆ":{"ha":619,"x_min":0,"x_max":0,"o":"m 153 724 l 161 718 l 317 825 l 472 718 l 481 724 l 317 978 z "},"ˇ":{"ha":619,"x_min":0,"x_max":0,"o":"m 153 982 l 317 729 l 481 982 l 472 988 l 317 881 l 161 988 z "},"˘":{"ha":619,"x_min":0,"x_max":0,"o":"m 310 829 b 183 917 233 829 196 874 l 171 917 b 310 738 171 826 214 738 b 447 915 404 738 447 831 l 435 915 b 310 829 419 872 383 829 z "},"˙":{"ha":619,"x_min":0,"x_max":0,"o":"m 308 739 b 397 828 358 739 397 779 b 308 914 397 876 358 914 b 221 828 260 914 221 876 b 308 739 221 779 260 739 z "},"˚":{"ha":619,"x_min":0,"x_max":0,"o":"m 203 843 b 321 736 203 778 250 736 b 439 843 392 736 439 778 b 321 950 439 906 392 950 b 203 843 253 950 203 906 z m 263 843 b 321 938 263 903 283 938 b 381 843 358 938 381 903 b 321 749 381 781 361 749 b 263 843 282 749 263 781 z "},"˛":{"ha":619,"x_min":0,"x_max":0,"o":"m 311 -243 b 442 -185 394 -243 428 -199 l 436 -176 b 388 -197 421 -189 408 -197 b 324 -124 347 -197 324 -168 b 385 0 324 -58 357 -22 l 368 0 b 181 -150 307 -11 181 -67 b 311 -243 181 -210 238 -243 z "},"˜":{"ha":619,"x_min":0,"x_max":0,"o":"m 242 896 b 139 746 199 896 171 840 l 149 742 b 224 801 182 790 197 801 b 368 788 274 801 317 788 b 471 939 417 788 449 851 l 463 943 b 388 882 431 897 411 882 b 242 896 343 882 297 896 z "},"˝":{"ha":619,"x_min":0,"x_max":0,"o":"m 343 743 l 472 892 b 497 950 489 911 497 931 b 446 1004 497 982 479 1004 b 381 932 407 1004 392 975 l 335 746 z m 165 743 l 293 892 b 319 950 311 911 319 931 b 268 1004 319 982 303 1004 b 203 932 229 1004 214 975 l 157 746 z "},"–":{"ha":699,"x_min":0,"x_max":0,"o":"m 57 382 l 642 382 l 642 399 l 57 399 z "},"—":{"ha":1224,"x_min":0,"x_max":0,"o":"m 57 382 l 1167 382 l 1167 399 l 57 399 z "},"‘":{"ha":303,"x_min":0,"x_max":0,"o":"m 110 907 b 96 942 100 914 96 925 b 206 1076 96 993 135 1039 l 200 1086 b 63 886 122 1049 63 986 b 158 774 63 808 110 774 b 243 857 204 774 243 806 b 169 935 243 901 210 935 b 110 907 138 935 119 922 z "},"’":{"ha":303,"x_min":0,"x_max":0,"o":"m 193 926 b 207 892 203 919 207 908 b 96 757 207 840 167 794 l 101 747 b 240 947 181 785 240 847 b 144 1060 240 1025 190 1060 b 60 976 99 1060 60 1028 b 133 899 60 932 93 899 b 193 926 165 899 182 911 z "},"‚":{"ha":299,"x_min":0,"x_max":0,"o":"m 192 21 b 206 -14 201 14 206 3 b 94 -149 206 -65 165 -111 l 100 -158 b 239 42 179 -121 239 -58 b 143 154 239 119 189 154 b 58 71 97 154 58 122 b 132 -7 58 26 92 -7 b 192 21 164 -7 181 6 z "},"“":{"ha":519,"x_min":0,"x_max":0,"o":"m 110 907 b 96 942 100 914 96 925 b 206 1076 96 993 135 1039 l 200 1086 b 63 886 122 1049 63 986 b 158 774 63 808 110 774 b 243 857 204 774 243 806 b 169 935 243 901 210 935 b 110 907 138 935 119 922 z m 326 907 b 313 942 319 913 313 925 b 424 1076 313 993 353 1039 l 417 1086 b 279 886 339 1049 279 986 b 375 774 279 808 326 774 b 461 857 421 774 461 806 b 388 935 461 901 426 935 b 326 907 354 935 336 922 z "},"”":{"ha":519,"x_min":0,"x_max":0,"o":"m 410 926 b 424 892 417 921 424 908 b 314 757 424 840 385 794 l 319 747 b 458 947 397 785 458 847 b 361 1060 458 1025 410 1060 b 276 976 317 1060 276 1028 b 350 899 276 932 310 899 b 410 926 382 899 400 911 z m 193 926 b 207 892 203 919 207 908 b 96 757 207 840 167 794 l 101 747 b 240 947 181 785 240 847 b 144 1060 240 1025 190 1060 b 60 976 99 1060 60 1028 b 133 899 60 932 93 899 b 193 926 165 899 182 911 z "},"„":{"ha":515,"x_min":0,"x_max":0,"o":"m 408 21 b 422 -14 415 15 422 3 b 313 -149 422 -65 383 -111 l 318 -158 b 457 42 396 -121 457 -58 b 360 154 457 119 408 154 b 275 71 315 154 275 122 b 349 -7 275 26 308 -7 b 408 21 381 -7 399 6 z m 192 21 b 206 -14 201 14 206 3 b 94 -149 206 -65 165 -111 l 100 -158 b 239 42 179 -121 239 -58 b 143 154 239 119 189 154 b 58 71 97 154 58 122 b 132 -7 58 26 92 -7 b 192 21 164 -7 181 6 z "},"†":{"ha":529,"x_min":0,"x_max":0,"o":"m 272 -3 b 343 603 278 217 332 561 b 272 772 308 643 272 707 b 429 706 326 772 364 706 b 511 779 483 706 511 740 b 429 851 511 818 483 851 b 272 783 364 851 328 783 b 346 967 272 843 346 896 b 265 1050 346 1011 314 1050 b 185 967 217 1050 185 1011 b 258 783 185 896 258 843 b 100 851 204 783 164 851 b 18 779 46 851 18 818 b 100 706 18 740 46 706 b 258 772 164 706 204 772 b 188 603 258 707 222 643 b 260 -3 199 557 249 217 z "},"‡":{"ha":529,"x_min":0,"x_max":0,"o":"m 265 -11 b 346 72 314 -11 346 28 b 272 256 346 143 272 196 b 429 188 328 256 364 188 b 511 260 483 188 511 221 b 429 333 511 299 483 333 b 272 267 364 333 328 267 b 347 519 272 372 307 453 b 272 772 307 586 272 668 b 429 706 328 772 364 706 b 511 779 483 706 511 740 b 429 851 511 818 483 851 b 272 783 364 851 328 783 b 346 967 272 843 346 896 b 265 1050 346 1011 314 1050 b 185 967 217 1050 185 1011 b 258 783 185 896 258 843 b 100 851 201 783 164 851 b 18 779 46 851 18 818 b 100 706 18 740 46 706 b 258 772 163 706 201 772 b 182 519 258 668 225 586 b 258 267 225 454 258 372 b 100 333 201 267 163 333 b 18 260 46 333 18 299 b 100 188 18 221 46 188 b 258 256 164 188 201 256 b 185 72 258 196 185 143 b 265 -11 185 28 217 -11 z "},"•":{"ha":507,"x_min":0,"x_max":0,"o":"m 254 583 b 68 399 147 583 68 504 b 254 213 68 292 147 213 b 439 399 361 213 439 292 b 254 583 439 504 361 583 z "},"…":{"ha":943,"x_min":0,"x_max":0,"o":"m 781 -19 b 874 74 835 -19 874 19 b 781 168 874 129 835 168 b 686 74 726 168 686 129 b 781 -19 686 19 726 -19 z m 472 -19 b 565 74 526 -19 565 19 b 472 168 565 129 526 168 b 378 74 418 168 378 129 b 472 -19 378 19 418 -19 z m 163 -19 b 256 74 217 -19 256 19 b 163 168 256 129 217 168 b 68 74 108 168 68 129 b 163 -19 68 19 108 -19 z "},"‰":{"ha":1560,"x_min":0,"x_max":0,"o":"m 268 526 b 504 789 381 526 504 628 b 268 1050 504 950 381 1050 b 32 789 153 1050 32 950 b 268 526 32 628 153 526 z m 181 -3 l 863 1036 l 846 1047 l 164 8 z m 268 539 b 154 789 214 539 154 606 b 268 1038 154 972 214 1038 b 383 789 322 1038 383 972 b 268 539 383 606 322 539 z m 763 -8 b 1000 254 874 -8 1000 93 b 763 515 1000 415 874 515 b 526 254 647 515 526 415 b 763 -8 526 93 647 -8 z m 1290 -8 b 1528 254 1401 -8 1528 93 b 1290 515 1528 415 1401 515 b 1056 254 1178 515 1056 415 b 1290 -8 1056 93 1178 -8 z m 763 4 b 649 254 708 4 649 71 b 763 503 649 438 708 503 b 878 254 817 503 878 438 b 763 4 878 71 817 4 z m 1290 4 b 1176 254 1236 4 1176 71 b 1290 503 1176 438 1236 503 b 1406 254 1346 503 1406 438 b 1290 4 1406 71 1346 4 z "},"‹":{"ha":340,"x_min":0,"x_max":0,"o":"m 282 89 l 290 94 l 186 319 l 289 544 l 281 550 l 51 325 l 51 314 z "},"›":{"ha":340,"x_min":0,"x_max":0,"o":"m 58 89 l 289 314 l 289 325 l 60 550 l 51 544 l 154 319 l 50 94 z "},"⁄":{"ha":690,"x_min":0,"x_max":0,"o":"m 88 515 l 603 515 l 603 526 l 88 526 z "},"€":{"ha":857,"x_min":0,"x_max":0,"o":"m 13 465 l 108 465 b 529 -12 126 182 283 -12 b 807 146 694 -12 767 85 l 797 153 b 553 13 749 86 688 13 b 299 465 411 13 314 143 l 601 465 l 601 481 l 299 481 b 297 543 297 501 297 521 l 297 583 l 601 583 l 601 599 l 299 599 b 540 1039 308 893 396 1039 b 665 897 664 1039 646 981 b 751 818 676 842 707 818 b 824 889 800 818 824 854 b 540 1050 824 979 707 1050 b 111 599 349 1050 140 893 l 13 599 l 13 583 l 110 583 b 107 522 108 563 107 543 b 108 481 107 507 107 496 l 13 481 z "},"™":{"ha":986,"x_min":0,"x_max":0,"o":"m 160 619 l 304 619 l 304 625 b 272 763 275 636 272 643 l 272 1033 l 299 1033 b 406 947 364 1033 389 1015 l 413 947 l 403 1031 b 393 1042 401 1042 399 1042 l 69 1042 b 60 1031 64 1042 61 1042 l 51 947 l 60 947 b 164 1033 75 1018 101 1033 l 190 1033 l 190 763 b 160 625 190 643 186 636 z m 453 619 l 528 619 l 528 625 b 492 764 494 640 492 649 l 492 1026 l 644 618 l 647 618 l 647 619 l 653 618 l 801 1015 l 801 761 b 775 625 801 643 801 632 l 775 619 l 918 619 l 918 625 b 885 761 890 632 885 643 l 885 900 b 917 1036 885 1018 889 1029 l 917 1042 l 801 1042 l 686 731 l 579 1029 b 569 1042 575 1042 574 1042 l 453 1042 l 453 1036 b 483 900 482 1025 483 1019 l 483 764 b 453 625 483 649 482 640 z "},"ﬁ":{"ha":669,"x_min":0,"x_max":0,"o":"m 31 0 l 325 0 l 325 10 b 244 213 246 25 244 46 l 244 633 l 375 633 b 432 461 432 626 432 624 l 432 213 b 375 10 432 46 431 25 l 375 0 l 651 0 l 651 10 b 590 213 592 25 590 46 l 590 667 l 375 647 l 244 647 l 244 872 b 307 1046 244 1011 268 1046 b 342 985 329 1046 332 1033 b 401 928 349 946 361 928 b 454 976 439 928 454 953 b 314 1058 454 1032 393 1058 b 88 810 226 1058 88 997 l 88 729 b 21 644 88 672 81 654 l 21 633 l 86 633 l 86 213 b 31 10 86 46 85 24 z m 514 731 b 601 819 563 731 601 771 b 514 904 601 868 563 904 b 426 819 465 904 426 868 b 514 731 426 769 465 731 z "},"ﬂ":{"ha":671,"x_min":0,"x_max":0,"o":"m 31 0 l 325 0 l 325 10 b 244 213 246 25 244 46 l 244 633 l 363 633 l 363 647 l 244 647 l 244 882 b 319 1040 244 999 269 1040 b 367 969 347 1040 357 1029 b 426 913 372 929 386 913 b 479 963 461 913 479 942 b 326 1053 479 1019 415 1053 b 88 789 231 1053 88 994 l 88 729 b 21 644 88 672 81 654 l 21 633 l 86 633 l 86 213 b 31 10 86 46 85 24 z m 375 0 l 654 0 l 654 10 b 590 213 593 24 590 46 l 590 1078 l 374 963 l 374 951 b 432 783 433 947 432 943 l 432 213 b 375 10 432 46 431 25 z "},"A":{"ha":951,"x_min":0,"x_max":0,"o":"m 11 0 l 185 0 l 185 8 b 142 194 101 36 104 94 l 188 322 l 600 322 l 676 124 b 660 10 704 51 703 19 l 660 0 l 940 0 l 940 10 b 838 176 892 26 872 83 l 518 1022 b 496 1042 513 1039 511 1042 l 281 1042 l 281 1033 b 358 944 315 1025 332 1011 l 378 893 l 126 194 b 11 8 72 44 53 24 z m 192 333 l 386 872 l 594 333 z "}," ":{"ha":256,"x_min":0,"x_max":0,"o":""},"\u0000":{"ha":0,"x_min":0,"x_max":0,"o":""},"\r":{"ha":256,"x_min":0,"x_max":0,"o":""},"¦":{"ha":349,"x_min":0,"x_max":0,"o":"m 164 1139 l 164 611 l 185 611 l 185 1139 z m 185 381 l 164 381 l 164 -147 l 185 -147 z "},"²":{"ha":561,"x_min":0,"x_max":0,"o":"m 174 732 l 269 804 b 442 1032 367 875 442 947 b 250 1165 442 1136 333 1165 b 101 1081 150 1165 101 1115 b 143 1036 101 1051 119 1036 b 193 1081 176 1036 189 1053 b 249 1156 197 1114 199 1156 b 333 1036 308 1156 333 1113 b 222 803 333 951 304 897 l 82 646 l 419 646 b 436 668 429 646 432 650 l 460 769 l 451 769 b 275 732 436 736 425 732 z "},"³":{"ha":543,"x_min":0,"x_max":0,"o":"m 113 1038 l 121 1038 b 261 1075 135 1069 140 1075 l 357 1075 l 186 921 l 193 914 b 294 957 221 938 251 957 b 368 813 357 957 368 894 b 258 651 368 718 340 651 b 193 736 192 651 197 710 b 149 772 190 760 175 772 b 103 731 117 772 103 751 b 258 642 103 688 160 642 b 474 813 399 642 474 717 b 304 968 474 919 411 968 b 236 953 276 968 253 963 l 461 1154 l 461 1161 l 153 1161 b 140 1140 146 1161 146 1158 z "},"¹":{"ha":382,"x_min":0,"x_max":0,"o":"m 304 646 l 304 656 b 253 819 256 663 253 669 l 253 1172 l 96 1072 l 96 1064 b 151 963 147 1064 151 1058 l 151 819 b 97 656 151 669 147 663 l 97 646 z "},"¼":{"ha":690,"x_min":0,"x_max":0,"o":"m 533 -3 l 564 68 l 471 68 l 471 399 l 438 399 l 119 3 l 119 -3 l 368 -3 b 329 -111 368 -97 360 -104 l 329 -121 l 510 -121 l 510 -111 b 471 -3 479 -104 471 -97 z m 186 68 l 368 294 l 368 68 z m 88 515 l 603 515 l 603 526 l 88 526 z m 449 646 l 449 656 b 397 819 400 663 397 669 l 397 1172 l 240 1072 l 240 1064 b 296 963 292 1064 296 1058 l 296 819 b 242 656 296 669 292 663 l 242 646 z "},"½":{"ha":690,"x_min":0,"x_max":0,"o":"m 88 515 l 603 515 l 603 526 l 88 526 z m 449 646 l 449 656 b 397 819 400 663 397 669 l 397 1172 l 240 1072 l 240 1064 b 296 963 292 1064 296 1058 l 296 819 b 242 656 296 669 292 663 l 242 646 z m 249 -35 l 344 38 b 517 265 442 108 517 181 b 325 399 517 369 408 399 b 176 314 225 399 176 349 b 218 269 176 285 194 269 b 268 314 251 269 264 286 b 324 389 272 347 274 389 b 408 269 383 389 408 346 b 297 36 408 185 379 131 l 157 -121 l 494 -121 b 511 -99 504 -121 507 -117 l 535 3 l 526 3 b 350 -35 511 -31 500 -35 z "},"¾":{"ha":690,"x_min":0,"x_max":0,"o":"m 533 -3 l 564 68 l 471 68 l 471 399 l 438 399 l 119 3 l 119 -3 l 368 -3 b 329 -111 368 -97 360 -104 l 329 -121 l 510 -121 l 510 -111 b 471 -3 479 -104 471 -97 z m 186 68 l 368 294 l 368 68 z m 88 515 l 603 515 l 603 526 l 88 526 z m 169 1038 l 178 1038 b 318 1075 192 1069 197 1075 l 414 1075 l 243 921 l 250 914 b 351 957 278 938 308 957 b 425 813 414 957 425 894 b 315 651 425 718 397 651 b 250 736 249 651 254 710 b 206 772 247 760 232 772 b 160 731 174 772 160 751 b 315 642 160 688 217 642 b 531 813 456 642 531 717 b 361 968 531 919 468 968 b 293 953 333 968 310 963 l 518 1154 l 518 1161 l 210 1161 b 197 1140 203 1161 203 1158 z "},"Ð":{"ha":990,"x_min":0,"x_max":0,"o":"m 26 0 l 338 0 b 943 535 731 0 943 208 b 338 1042 943 874 704 1042 l 26 1042 l 26 1032 b 99 692 94 1013 99 992 l 99 549 l -12 549 l -12 538 l 99 538 l 99 350 b 26 10 99 50 94 29 z m 279 11 l 279 538 l 476 538 l 476 549 l 279 549 l 279 1029 l 338 1029 b 747 536 581 1029 747 932 b 338 11 747 151 621 11 z "},"×":{"ha":553,"x_min":0,"x_max":0,"o":"m 67 281 l 79 267 l 278 475 l 478 267 l 490 279 l 290 489 l 490 699 l 478 711 l 278 501 l 75 714 l 63 701 l 265 489 z "},"Ý":{"ha":871,"x_min":0,"x_max":0,"o":"m 281 0 l 603 0 l 603 10 b 531 350 535 29 531 50 l 531 531 l 718 867 b 863 1033 789 997 821 1015 l 863 1042 l 710 1042 l 710 1033 b 703 867 778 1011 754 963 l 524 546 l 304 929 b 321 1033 271 989 282 1018 l 321 1042 l 8 1042 l 8 1033 b 147 867 68 1003 94 957 l 353 513 l 353 350 b 281 10 353 50 349 29 z m 385 1082 l 608 1121 b 693 1199 671 1136 693 1161 b 638 1253 693 1226 671 1253 b 564 1226 611 1253 586 1244 l 381 1090 z "},"Þ":{"ha":811,"x_min":0,"x_max":0,"o":"m 24 0 l 344 0 l 344 10 b 272 282 283 28 272 46 l 410 282 b 797 579 626 282 797 376 b 408 843 797 774 636 843 l 274 843 b 344 1032 278 1003 289 1017 l 344 1042 l 24 1042 l 24 1032 b 96 692 92 1013 96 993 l 96 350 b 24 10 96 50 92 29 z m 272 294 l 272 692 b 274 831 272 747 272 793 l 407 831 b 629 564 535 831 629 771 b 406 294 629 358 538 294 z "},"ð":{"ha":704,"x_min":0,"x_max":0,"o":"m 672 386 b 443 904 672 565 617 757 l 589 971 l 583 982 l 433 913 b 169 1058 363 969 279 1019 l 160 1054 b 361 881 236 1011 304 951 l 196 804 l 201 793 l 369 871 b 490 619 426 794 469 710 b 353 661 447 649 396 661 b 32 321 231 661 32 561 b 353 -11 32 76 231 -11 b 672 386 483 -11 672 79 z m 353 1 b 196 321 268 1 196 74 b 353 649 196 567 268 649 b 508 321 438 649 508 567 b 353 1 508 74 438 1 z "},"ý":{"ha":629,"x_min":0,"x_max":0,"o":"m 143 -237 b 315 -49 215 -237 260 -187 l 522 467 b 633 639 582 615 594 628 l 633 647 l 482 647 l 482 639 b 507 467 536 632 567 614 l 388 171 l 250 500 b 258 639 203 614 218 632 l 258 647 l -4 647 l -4 639 b 90 497 29 628 38 617 l 313 -17 l 301 -44 b 215 -164 261 -144 239 -164 b 118 -128 174 -164 167 -128 b 68 -179 92 -128 68 -142 b 143 -237 68 -212 93 -237 z m 294 721 l 489 836 b 544 914 521 854 544 876 b 488 971 544 947 525 971 b 407 910 453 971 433 953 l 288 729 z "},"þ":{"ha":736,"x_min":0,"x_max":0,"o":"m 21 -231 l 294 -231 l 294 -221 b 233 -18 235 -206 233 -185 l 233 38 b 375 -10 276 6 326 -10 b 703 340 560 -10 703 118 b 443 658 703 568 560 658 b 249 550 354 658 293 601 l 233 532 l 233 1078 l 19 964 l 19 953 b 76 785 76 946 76 944 l 76 -18 b 21 -221 76 -185 75 -207 z m 249 533 b 399 631 293 585 344 631 b 538 317 478 631 538 561 b 372 3 538 94 467 3 b 233 53 324 3 278 19 l 233 515 z "},"Ł":{"ha":750,"x_min":0,"x_max":0,"o":"m 517 656 l 511 665 l -25 363 l -19 353 z m 24 0 l 699 0 b 724 25 714 0 718 -1 l 758 211 l 743 211 b 444 13 692 49 642 13 l 276 13 l 276 692 b 351 1032 276 993 281 1014 l 351 1042 l 24 1042 l 24 1032 b 96 692 92 1013 96 993 l 96 350 b 24 10 96 49 92 29 z "},"ł":{"ha":318,"x_min":0,"x_max":0,"o":"m 340 663 l 333 672 l -25 440 l -18 432 z m 21 0 l 300 0 l 300 10 b 236 213 239 24 236 46 l 236 1078 l 19 963 l 19 951 b 78 783 79 947 78 943 l 78 213 b 21 10 78 46 76 25 z "},"Š":{"ha":758,"x_min":0,"x_max":0,"o":"m 365 -12 b 717 310 544 -12 717 97 b 383 660 717 496 569 574 b 160 886 229 728 160 786 b 351 1043 160 986 219 1043 b 636 825 506 1043 610 969 l 650 825 l 650 1035 l 638 1035 b 599 1000 632 1011 619 1000 b 351 1056 540 1000 497 1056 b 51 789 167 1056 51 935 b 310 476 51 629 154 547 b 592 196 510 383 592 335 b 364 0 592 68 526 0 b 46 296 174 0 67 114 l 32 296 l 32 31 l 44 31 b 81 61 49 51 61 61 b 365 -12 164 61 197 -12 z m 176 1260 l 365 1089 l 554 1260 l 550 1268 l 365 1213 l 181 1268 z "},"š":{"ha":513,"x_min":0,"x_max":0,"o":"m 251 3 b 42 211 140 3 76 71 l 29 211 l 29 17 l 42 17 b 67 40 46 32 56 40 b 251 -10 106 40 144 -10 b 479 192 381 -10 479 72 b 276 419 479 313 414 364 b 121 554 178 460 121 486 b 238 649 121 611 153 649 b 425 488 328 649 390 594 l 436 488 l 436 650 l 425 650 b 401 626 421 638 413 626 b 238 661 354 626 329 661 b 36 486 117 661 36 582 b 228 269 36 367 104 318 b 383 117 343 224 383 183 b 251 3 383 54 353 3 z m 83 982 l 247 729 l 411 982 l 403 988 l 247 881 l 92 988 z "},"Ž":{"ha":843,"x_min":0,"x_max":0,"o":"m 24 0 l 792 0 l 825 232 l 811 232 b 494 13 767 64 714 13 l 225 13 l 786 1042 l 83 1042 l 47 851 l 60 851 b 347 1029 100 965 157 1029 l 578 1029 z m 233 1260 l 422 1089 l 611 1260 l 607 1268 l 422 1213 l 238 1268 z "},"ž":{"ha":574,"x_min":0,"x_max":0,"o":"m 553 178 l 542 178 b 325 11 501 71 475 11 l 185 11 l 550 647 l 244 647 b 64 661 140 647 93 649 l 35 492 l 46 492 b 253 636 79 579 107 636 l 376 636 l 15 0 l 346 0 b 526 -14 469 0 501 -3 z m 143 982 l 307 729 l 471 982 l 463 988 l 307 881 l 151 988 z "},"−":{"ha":640,"x_min":0,"x_max":0,"o":"m 63 479 l 578 479 l 578 496 l 63 496 z "},"Ă":{"ha":951,"x_min":0,"x_max":0,"o":"m 11 0 l 185 0 l 185 8 b 142 194 101 36 104 94 l 188 322 l 600 322 l 676 124 b 660 10 704 51 703 19 l 660 0 l 940 0 l 940 10 b 838 176 892 26 872 83 l 518 1022 b 496 1042 513 1039 511 1042 l 281 1042 l 281 1033 b 358 944 315 1025 332 1011 l 378 893 l 126 194 b 11 8 72 44 53 24 z m 192 333 l 386 872 l 594 333 z m 424 1188 b 290 1261 346 1188 311 1217 l 278 1261 b 424 1093 282 1165 325 1093 b 568 1260 519 1093 564 1168 l 556 1260 b 424 1188 533 1214 501 1188 z "},"Ā":{"ha":951,"x_min":0,"x_max":0,"o":"m 11 0 l 185 0 l 185 8 b 142 194 101 36 104 94 l 188 322 l 600 322 l 676 124 b 660 10 704 51 703 19 l 660 0 l 940 0 l 940 10 b 838 176 892 26 872 83 l 518 1022 b 496 1042 513 1039 511 1042 l 281 1042 l 281 1033 b 358 944 315 1025 332 1011 l 378 893 l 126 194 b 11 8 72 44 53 24 z m 192 333 l 386 872 l 594 333 z m 582 1178 l 265 1178 l 265 1111 l 582 1111 z "},"Ą":{"ha":951,"x_min":0,"x_max":0,"o":"m 11 0 l 185 0 l 185 8 b 142 194 101 36 104 94 l 188 322 l 600 322 l 724 1 b 526 -150 646 -14 526 -65 b 657 -243 526 -210 579 -243 b 788 -185 740 -243 774 -199 l 781 -176 b 733 -197 767 -190 751 -197 b 668 -124 690 -197 668 -168 b 774 0 668 -58 707 0 l 940 0 l 940 10 b 838 176 892 26 872 83 l 518 1022 b 496 1042 513 1039 511 1042 l 281 1042 l 281 1033 b 358 944 315 1025 332 1011 l 378 893 l 126 194 b 11 8 72 44 53 24 z m 192 335 l 386 872 l 594 335 z "},"Ǻ":{"ha":951,"x_min":0,"x_max":0,"o":"m 11 0 l 185 0 l 185 8 b 142 194 101 36 104 94 l 188 322 l 600 322 l 676 124 b 660 10 704 51 703 19 l 660 0 l 940 0 l 940 10 b 838 176 892 26 872 83 l 518 1022 b 496 1042 513 1039 511 1042 l 281 1042 l 281 1033 b 358 944 315 1025 332 1011 l 378 893 l 126 194 b 11 8 72 44 53 24 z m 192 333 l 386 872 l 594 333 z m 304 1188 b 422 1081 304 1122 351 1081 b 542 1188 493 1081 542 1122 b 422 1294 542 1250 493 1294 b 304 1188 354 1294 304 1250 z m 364 1188 b 422 1282 364 1247 385 1282 b 482 1188 460 1282 482 1247 b 422 1093 482 1125 463 1093 b 364 1188 383 1093 364 1125 z m 292 1307 l 515 1346 b 600 1424 578 1361 600 1386 b 544 1478 600 1451 578 1478 b 471 1451 518 1478 493 1469 l 288 1315 z "},"Ǽ":{"ha":1313,"x_min":0,"x_max":0,"o":"m 1026 456 l 1026 696 l 1015 696 b 854 582 997 633 996 582 l 799 582 l 799 1029 l 953 1029 b 1239 874 1146 1029 1197 997 l 1253 874 l 1228 1013 b 1203 1042 1222 1040 1218 1042 l 533 1042 l 533 1032 b 574 946 589 1022 608 1007 l 135 175 b 1 8 68 53 39 26 l 1 0 l 151 0 l 151 8 b 150 175 88 35 106 93 l 238 329 l 618 329 b 546 10 618 47 613 28 l 546 0 l 1240 0 b 1267 25 1256 0 1263 -1 l 1283 186 l 1271 186 b 971 13 1233 42 1178 13 l 799 13 l 799 569 l 854 569 b 1015 456 996 569 997 518 z m 244 340 l 618 997 l 618 340 z m 775 1082 l 999 1121 b 1083 1199 1061 1136 1083 1161 b 1028 1253 1083 1226 1061 1253 b 954 1226 1001 1253 976 1244 l 771 1090 z "},"Ć":{"ha":899,"x_min":0,"x_max":0,"o":"m 533 -17 b 863 136 711 -17 819 75 l 854 144 b 575 14 803 83 707 14 b 243 543 382 14 243 153 b 531 1043 243 894 369 1043 b 831 797 667 1043 786 968 l 843 797 l 843 1038 l 831 1038 b 783 999 824 1011 807 999 b 531 1056 724 999 674 1056 b 47 522 304 1056 47 886 b 533 -17 47 190 271 -17 z m 396 1082 l 619 1121 b 704 1199 682 1136 704 1161 b 649 1253 704 1226 682 1253 b 575 1226 622 1253 597 1244 l 392 1090 z "},"Č":{"ha":899,"x_min":0,"x_max":0,"o":"m 533 -17 b 863 136 711 -17 819 75 l 854 144 b 575 14 803 83 707 14 b 243 543 382 14 243 153 b 531 1043 243 894 369 1043 b 831 797 667 1043 786 968 l 843 797 l 843 1038 l 831 1038 b 783 999 824 1011 807 999 b 531 1056 724 999 674 1056 b 47 522 304 1056 47 886 b 533 -17 47 190 271 -17 z m 338 1260 l 526 1089 l 715 1260 l 711 1268 l 526 1213 l 342 1268 z "},"Ĉ":{"ha":899,"x_min":0,"x_max":0,"o":"m 533 -17 b 863 136 711 -17 819 75 l 854 144 b 575 14 803 83 707 14 b 243 543 382 14 243 153 b 531 1043 243 894 369 1043 b 831 797 667 1043 786 968 l 843 797 l 843 1038 l 831 1038 b 783 999 824 1011 807 999 b 531 1056 724 999 674 1056 b 47 522 304 1056 47 886 b 533 -17 47 190 271 -17 z m 338 1088 l 342 1079 l 526 1135 l 711 1079 l 715 1088 l 526 1258 z "},"Ċ":{"ha":899,"x_min":0,"x_max":0,"o":"m 533 -17 b 863 136 711 -17 819 75 l 854 144 b 575 14 803 83 707 14 b 243 543 382 14 243 153 b 531 1043 243 894 369 1043 b 831 797 667 1043 786 968 l 843 797 l 843 1038 l 831 1038 b 783 999 824 1011 807 999 b 531 1056 724 999 674 1056 b 47 522 304 1056 47 886 b 533 -17 47 190 271 -17 z m 526 1089 b 614 1178 575 1089 614 1129 b 526 1264 614 1226 575 1264 b 439 1178 478 1264 439 1226 b 526 1089 439 1129 478 1089 z "},"Ď":{"ha":988,"x_min":0,"x_max":0,"o":"m 24 0 l 335 0 b 940 535 728 0 940 208 b 335 1042 940 874 701 1042 l 24 1042 l 24 1032 b 96 692 92 1013 96 992 l 96 350 b 24 10 96 50 92 29 z m 335 1029 b 744 536 578 1029 744 932 b 335 11 744 151 618 11 l 276 11 l 276 1029 z m 236 1260 l 425 1089 l 614 1260 l 610 1268 l 425 1213 l 240 1268 z "},"Ĕ":{"ha":811,"x_min":0,"x_max":0,"o":"m 24 0 l 739 0 b 765 25 754 0 761 -1 l 782 186 l 769 186 b 469 13 732 42 676 13 l 276 13 l 276 569 l 353 569 b 514 456 494 569 496 518 l 525 456 l 525 696 l 514 696 b 353 582 496 633 494 582 l 276 582 l 276 1029 l 451 1029 b 738 874 644 1029 696 997 l 751 874 l 726 1013 b 701 1042 721 1040 717 1042 l 24 1042 l 24 1032 b 96 692 92 1013 96 992 l 96 350 b 24 10 96 50 92 29 z m 414 1188 b 281 1261 336 1188 301 1217 l 268 1261 b 414 1093 272 1165 315 1093 b 558 1260 510 1093 554 1168 l 546 1260 b 414 1188 524 1214 492 1188 z "},"Ě":{"ha":811,"x_min":0,"x_max":0,"o":"m 24 0 l 739 0 b 765 25 754 0 761 -1 l 782 186 l 769 186 b 469 13 732 42 676 13 l 276 13 l 276 569 l 353 569 b 514 456 494 569 496 518 l 525 456 l 525 696 l 514 696 b 353 582 496 633 494 582 l 276 582 l 276 1029 l 451 1029 b 738 874 644 1029 696 997 l 751 874 l 726 1013 b 701 1042 721 1040 717 1042 l 24 1042 l 24 1032 b 96 692 92 1013 96 992 l 96 350 b 24 10 96 50 92 29 z m 224 1260 l 413 1089 l 601 1260 l 597 1268 l 413 1213 l 228 1268 z "},"Ė":{"ha":811,"x_min":0,"x_max":0,"o":"m 24 0 l 739 0 b 765 25 754 0 761 -1 l 782 186 l 769 186 b 469 13 732 42 676 13 l 276 13 l 276 569 l 353 569 b 514 456 494 569 496 518 l 525 456 l 525 696 l 514 696 b 353 582 496 633 494 582 l 276 582 l 276 1029 l 451 1029 b 738 874 644 1029 696 997 l 751 874 l 726 1013 b 701 1042 721 1040 717 1042 l 24 1042 l 24 1032 b 96 692 92 1013 96 992 l 96 350 b 24 10 96 50 92 29 z m 413 1089 b 500 1178 461 1089 500 1129 b 413 1264 500 1226 461 1264 b 325 1178 364 1264 325 1226 b 413 1089 325 1129 364 1089 z "},"Ē":{"ha":811,"x_min":0,"x_max":0,"o":"m 24 0 l 739 0 b 765 25 754 0 761 -1 l 782 186 l 769 186 b 469 13 732 42 676 13 l 276 13 l 276 569 l 353 569 b 514 456 494 569 496 518 l 525 456 l 525 696 l 514 696 b 353 582 496 633 494 582 l 276 582 l 276 1029 l 451 1029 b 738 874 644 1029 696 997 l 751 874 l 726 1013 b 701 1042 721 1040 717 1042 l 24 1042 l 24 1032 b 96 692 92 1013 96 992 l 96 350 b 24 10 96 50 92 29 z m 572 1178 l 256 1178 l 256 1111 l 572 1111 z "},"Ę":{"ha":811,"x_min":0,"x_max":0,"o":"m 24 0 l 739 0 b 765 25 754 0 761 -1 l 782 186 l 769 186 b 469 13 732 42 676 13 l 276 13 l 276 569 l 353 569 b 514 456 494 569 496 518 l 525 456 l 525 696 l 514 696 b 353 582 496 633 494 582 l 276 582 l 276 1029 l 451 1029 b 738 874 644 1029 696 997 l 751 874 l 726 1013 b 701 1042 721 1040 717 1042 l 24 1042 l 24 1032 b 96 692 92 1013 96 992 l 96 350 b 24 10 96 50 92 29 z m 565 -243 b 696 -185 649 -243 682 -199 l 690 -176 b 642 -197 675 -189 663 -197 b 578 -124 601 -197 578 -168 b 639 0 578 -58 611 -22 l 622 0 b 435 -150 561 -11 435 -67 b 565 -243 435 -210 492 -243 z "},"Ğ":{"ha":1010,"x_min":0,"x_max":0,"o":"m 536 -17 b 914 158 692 -17 847 74 l 914 200 b 993 464 914 424 921 444 l 993 474 l 663 474 l 663 464 b 743 271 725 446 743 422 l 743 261 b 536 -4 743 76 693 -4 b 242 543 351 -4 242 151 b 542 1043 242 921 371 1043 b 851 799 701 1043 814 956 l 865 799 l 865 1039 l 851 1039 b 810 1003 846 1015 831 1003 b 542 1056 736 1003 692 1056 b 47 529 321 1056 47 890 b 536 -17 47 210 253 -17 z m 543 1188 b 410 1261 465 1188 431 1217 l 397 1261 b 543 1093 401 1165 444 1093 b 688 1260 639 1093 683 1168 l 675 1260 b 543 1188 653 1214 621 1188 z "},"Ĝ":{"ha":1010,"x_min":0,"x_max":0,"o":"m 536 -17 b 914 158 692 -17 847 74 l 914 200 b 993 464 914 424 921 444 l 993 474 l 663 474 l 663 464 b 743 271 725 446 743 422 l 743 261 b 536 -4 743 76 693 -4 b 242 543 351 -4 242 151 b 542 1043 242 921 371 1043 b 851 799 701 1043 814 956 l 865 799 l 865 1039 l 851 1039 b 810 1003 846 1015 831 1003 b 542 1056 736 1003 692 1056 b 47 529 321 1056 47 890 b 536 -17 47 210 253 -17 z m 353 1088 l 357 1079 l 542 1135 l 726 1079 l 731 1088 l 542 1258 z "},"Ģ":{"ha":1010,"x_min":0,"x_max":0,"o":"m 536 -17 b 914 158 692 -17 847 74 l 914 200 b 993 464 914 424 921 444 l 993 474 l 663 474 l 663 464 b 743 271 725 446 743 422 l 743 261 b 536 -4 743 76 693 -4 b 242 543 351 -4 242 151 b 542 1043 242 921 371 1043 b 851 799 701 1043 814 956 l 865 799 l 865 1039 l 851 1039 b 810 1003 846 1015 831 1003 b 542 1056 736 1003 692 1056 b 47 529 321 1056 47 890 b 536 -17 47 210 253 -17 z m 583 -167 b 592 -186 589 -168 592 -175 b 492 -268 592 -218 563 -258 l 496 -279 b 624 -151 574 -272 624 -228 b 532 -51 624 -79 578 -51 b 454 -125 492 -51 454 -79 b 526 -194 454 -168 488 -194 b 583 -167 560 -194 578 -178 z "},"Ġ":{"ha":1010,"x_min":0,"x_max":0,"o":"m 536 -17 b 914 158 692 -17 847 74 l 914 200 b 993 464 914 424 921 444 l 993 474 l 663 474 l 663 464 b 743 271 725 446 743 422 l 743 261 b 536 -4 743 76 693 -4 b 242 543 351 -4 242 151 b 542 1043 242 921 371 1043 b 851 799 701 1043 814 956 l 865 799 l 865 1039 l 851 1039 b 810 1003 846 1015 831 1003 b 542 1056 736 1003 692 1056 b 47 529 321 1056 47 890 b 536 -17 47 210 253 -17 z m 542 1089 b 629 1178 590 1089 629 1129 b 542 1264 629 1226 590 1264 b 454 1178 493 1264 454 1226 b 542 1089 454 1129 493 1089 z "},"Ĥ":{"ha":988,"x_min":0,"x_max":0,"o":"m 24 0 l 344 0 l 344 10 b 272 350 276 29 272 49 l 272 565 l 715 565 l 715 350 b 643 10 715 49 711 29 l 643 0 l 965 0 l 965 10 b 893 350 897 29 893 49 l 893 692 b 965 1032 893 993 897 1013 l 965 1042 l 643 1042 l 643 1032 b 715 692 711 1013 715 993 l 715 576 l 272 576 l 272 692 b 344 1032 272 993 276 1013 l 344 1042 l 24 1042 l 24 1032 b 96 692 92 1013 96 993 l 96 350 b 24 10 96 49 92 29 z m 304 1088 l 308 1079 l 493 1135 l 678 1079 l 682 1088 l 493 1258 z "},"Ĭ":{"ha":368,"x_min":0,"x_max":0,"o":"m 24 0 l 344 0 l 344 10 b 272 350 276 29 272 50 l 272 692 b 344 1032 272 993 276 1013 l 344 1042 l 24 1042 l 24 1032 b 96 692 92 1013 96 993 l 96 350 b 24 10 96 50 92 29 z m 185 1188 b 51 1261 107 1188 72 1217 l 39 1261 b 185 1093 43 1165 86 1093 b 329 1260 281 1093 325 1168 l 317 1260 b 185 1188 294 1214 263 1188 z "},"İ":{"ha":368,"x_min":0,"x_max":0,"o":"m 24 0 l 344 0 l 344 10 b 272 350 276 29 272 50 l 272 692 b 344 1032 272 993 276 1013 l 344 1042 l 24 1042 l 24 1032 b 96 692 92 1013 96 993 l 96 350 b 24 10 96 50 92 29 z m 183 1089 b 271 1178 232 1089 271 1129 b 183 1264 271 1226 232 1264 b 96 1178 135 1264 96 1226 b 183 1089 96 1129 135 1089 z "},"Ī":{"ha":368,"x_min":0,"x_max":0,"o":"m 24 0 l 344 0 l 344 10 b 272 350 276 29 272 50 l 272 692 b 344 1032 272 993 276 1013 l 344 1042 l 24 1042 l 24 1032 b 96 692 92 1013 96 993 l 96 350 b 24 10 96 50 92 29 z m 342 1178 l 25 1178 l 25 1111 l 342 1111 z "},"Į":{"ha":368,"x_min":0,"x_max":0,"o":"m 24 0 l 344 0 l 344 10 b 272 350 276 29 272 50 l 272 692 b 344 1032 272 993 276 1013 l 344 1042 l 24 1042 l 24 1032 b 96 692 92 1013 96 993 l 96 350 b 24 10 96 50 92 29 z m 196 -243 b 326 -185 279 -243 313 -199 l 321 -176 b 272 -197 306 -189 293 -197 b 208 -124 232 -197 208 -168 b 269 0 208 -58 242 -22 l 253 0 b 65 -150 192 -11 65 -67 b 196 -243 65 -210 122 -243 z "},"Ĩ":{"ha":368,"x_min":0,"x_max":0,"o":"m 24 0 l 344 0 l 344 10 b 272 350 276 29 272 50 l 272 692 b 344 1032 272 993 276 1013 l 344 1042 l 24 1042 l 24 1032 b 96 692 92 1013 96 993 l 96 350 b 24 10 96 50 92 29 z m 124 1219 b 21 1068 86 1219 49 1175 l 31 1065 b 108 1125 63 1114 86 1125 b 258 1117 158 1125 204 1117 b 365 1269 304 1117 344 1175 l 356 1272 b 274 1211 326 1228 297 1211 b 124 1219 233 1211 179 1219 z "},"Ĵ":{"ha":600,"x_min":0,"x_max":0,"o":"m 247 -14 b 510 235 383 -14 510 76 l 510 692 b 582 1032 510 996 514 1013 l 582 1042 l 260 1042 l 260 1032 b 332 692 328 1013 332 996 l 332 90 b 250 -1 332 25 296 -1 b 160 111 182 -1 175 32 b 78 193 144 174 118 193 b 8 124 43 193 8 169 b 247 -14 8 39 114 -14 z m 232 1088 l 236 1079 l 421 1135 l 606 1079 l 610 1088 l 421 1258 z "},"Ķ":{"ha":893,"x_min":0,"x_max":0,"o":"m 24 0 l 344 0 l 344 10 b 272 350 276 29 272 49 l 272 565 l 586 115 b 592 8 632 47 643 19 l 592 0 l 903 0 l 903 8 b 800 110 865 24 849 42 l 408 669 l 701 932 b 844 1033 772 997 817 1026 l 844 1042 l 674 1042 l 674 1033 b 656 908 736 1011 744 986 l 272 565 l 272 692 b 344 1032 272 993 276 1013 l 344 1042 l 24 1042 l 24 1032 b 96 692 92 1013 96 993 l 96 350 b 24 10 96 49 92 29 z m 492 -167 b 500 -186 497 -168 500 -175 b 400 -268 500 -218 471 -258 l 404 -279 b 532 -151 482 -272 532 -228 b 440 -51 532 -79 486 -51 b 363 -125 400 -51 363 -79 b 435 -194 363 -168 396 -194 b 492 -167 468 -194 486 -178 z "},"Ĺ":{"ha":775,"x_min":0,"x_max":0,"o":"m 24 0 l 699 0 b 724 25 714 0 718 -1 l 758 211 l 743 211 b 444 13 692 49 642 13 l 276 13 l 276 692 b 351 1032 276 993 281 1014 l 351 1042 l 24 1042 l 24 1032 b 96 692 92 1013 96 993 l 96 350 b 24 10 96 49 92 29 z m 56 1082 l 279 1121 b 364 1199 342 1136 364 1161 b 308 1253 364 1226 342 1253 b 235 1226 282 1253 257 1244 l 51 1090 z "},"Ľ":{"ha":775,"x_min":0,"x_max":0,"o":"m 24 0 l 699 0 b 724 25 714 0 718 -1 l 758 211 l 743 211 b 444 13 692 49 642 13 l 276 13 l 276 692 b 351 1032 276 993 281 1014 l 351 1042 l 24 1042 l 24 1032 b 96 692 92 1013 96 993 l 96 350 b 24 10 96 49 92 29 z m 392 764 l 488 938 b 506 999 497 958 506 978 b 453 1056 506 1036 488 1056 b 392 958 415 1056 396 1026 l 383 767 z "},"Ļ":{"ha":775,"x_min":0,"x_max":0,"o":"m 24 0 l 699 0 b 724 25 714 0 718 -1 l 758 211 l 743 211 b 444 13 692 49 642 13 l 276 13 l 276 692 b 351 1032 276 993 281 1014 l 351 1042 l 24 1042 l 24 1032 b 96 692 92 1013 96 993 l 96 350 b 24 10 96 49 92 29 z m 454 -167 b 463 -186 460 -168 463 -175 b 363 -268 463 -218 433 -258 l 367 -279 b 494 -151 444 -272 494 -228 b 403 -51 494 -79 449 -51 b 325 -125 363 -51 325 -79 b 397 -194 325 -168 358 -194 b 454 -167 431 -194 449 -178 z "},"Ń":{"ha":890,"x_min":0,"x_max":0,"o":"m 24 0 l 192 0 l 192 10 b 110 356 114 43 110 63 l 110 1013 l 768 -4 l 806 -4 l 806 686 b 878 1032 806 979 810 999 l 878 1042 l 710 1042 l 710 1032 b 792 686 788 999 792 979 l 792 281 l 326 1000 b 272 1042 300 1039 299 1042 l 24 1042 l 24 1032 b 96 692 92 1013 96 992 l 96 356 b 24 10 96 63 92 43 z m 374 1082 l 597 1121 b 682 1199 660 1136 682 1161 b 626 1253 682 1226 660 1253 b 553 1226 600 1253 575 1244 l 369 1090 z "},"Ň":{"ha":890,"x_min":0,"x_max":0,"o":"m 24 0 l 192 0 l 192 10 b 110 356 114 43 110 63 l 110 1013 l 768 -4 l 806 -4 l 806 686 b 878 1032 806 979 810 999 l 878 1042 l 710 1042 l 710 1032 b 792 686 788 999 792 979 l 792 281 l 326 1000 b 272 1042 300 1039 299 1042 l 24 1042 l 24 1032 b 96 692 92 1013 96 992 l 96 356 b 24 10 96 63 92 43 z m 317 1260 l 506 1089 l 694 1260 l 690 1268 l 506 1213 l 321 1268 z "},"Ņ":{"ha":890,"x_min":0,"x_max":0,"o":"m 24 0 l 192 0 l 192 10 b 110 356 114 43 110 63 l 110 1013 l 768 -4 l 806 -4 l 806 686 b 878 1032 806 979 810 999 l 878 1042 l 710 1042 l 710 1032 b 792 686 788 999 792 979 l 792 281 l 326 1000 b 272 1042 300 1039 299 1042 l 24 1042 l 24 1032 b 96 692 92 1013 96 992 l 96 356 b 24 10 96 63 92 43 z m 488 -167 b 496 -186 493 -168 496 -175 b 396 -268 496 -218 467 -258 l 400 -279 b 528 -151 478 -272 528 -228 b 436 -51 528 -79 482 -51 b 358 -125 396 -51 358 -79 b 431 -194 358 -168 392 -194 b 488 -167 464 -194 482 -178 z "},"Ŏ":{"ha":1040,"x_min":0,"x_max":0,"o":"m 519 -18 b 993 522 767 -18 993 207 b 519 1056 993 838 767 1056 b 47 522 274 1056 47 838 b 519 -18 47 207 274 -18 z m 519 -6 b 243 522 360 -6 243 154 b 519 1044 243 889 375 1044 b 797 522 665 1044 797 889 b 519 -6 797 154 679 -6 z m 522 1188 b 389 1261 444 1188 410 1217 l 376 1261 b 522 1093 381 1165 424 1093 b 667 1260 618 1093 663 1168 l 654 1260 b 522 1188 632 1214 600 1188 z "},"Ő":{"ha":1040,"x_min":0,"x_max":0,"o":"m 519 -18 b 993 522 767 -18 993 207 b 519 1056 993 838 767 1056 b 47 522 274 1056 47 838 b 519 -18 47 207 274 -18 z m 519 -6 b 243 522 360 -6 243 154 b 519 1044 243 889 375 1044 b 797 522 665 1044 797 889 b 519 -6 797 154 679 -6 z m 572 1101 l 724 1176 b 776 1239 756 1192 776 1210 b 728 1289 776 1260 761 1289 b 646 1221 690 1289 674 1261 l 565 1110 z m 389 1101 l 540 1176 b 593 1239 572 1192 593 1210 b 543 1289 593 1260 578 1289 b 463 1221 506 1289 490 1261 l 382 1110 z "},"Ō":{"ha":1040,"x_min":0,"x_max":0,"o":"m 519 -18 b 993 522 767 -18 993 207 b 519 1056 993 838 767 1056 b 47 522 274 1056 47 838 b 519 -18 47 207 274 -18 z m 519 -6 b 243 522 360 -6 243 154 b 519 1044 243 889 375 1044 b 797 522 665 1044 797 889 b 519 -6 797 154 679 -6 z m 679 1178 l 363 1178 l 363 1111 l 679 1111 z "},"Ǿ":{"ha":1040,"x_min":0,"x_max":0,"o":"m 519 -18 b 993 522 767 -18 993 207 b 750 988 993 733 890 899 l 807 1100 l 794 1107 l 739 996 b 519 1056 671 1036 597 1056 b 47 522 274 1056 47 838 b 271 64 47 322 142 157 l 207 -64 l 219 -69 l 282 56 b 519 -18 354 7 435 -18 z m 243 522 b 519 1044 243 889 375 1044 b 707 932 590 1044 656 1010 l 311 143 b 243 522 268 228 243 354 z m 519 -6 b 318 128 438 -6 368 35 l 715 917 b 797 522 765 832 797 704 b 519 -6 797 154 679 -6 z m 389 1082 l 613 1121 b 697 1199 675 1136 697 1161 b 642 1253 697 1226 675 1253 b 568 1226 615 1253 590 1244 l 385 1090 z "},"Ŕ":{"ha":892,"x_min":0,"x_max":0,"o":"m 24 0 l 349 0 l 349 10 b 276 350 281 29 276 49 l 276 522 l 317 522 b 494 256 422 522 450 499 b 771 -10 535 50 626 -10 b 906 46 844 -10 885 24 l 897 54 b 826 24 879 33 864 24 b 678 265 754 24 717 103 b 413 522 633 440 547 504 l 425 522 b 828 796 646 522 828 606 b 385 1042 828 951 696 1042 l 24 1042 l 24 1032 b 96 692 92 1013 96 993 l 96 350 b 24 10 96 49 92 29 z m 379 1029 b 654 772 593 1029 654 935 b 414 533 654 610 588 533 l 276 533 l 276 1029 z m 308 1082 l 532 1121 b 617 1199 594 1136 617 1161 b 561 1253 617 1226 594 1253 b 488 1226 535 1253 510 1244 l 304 1090 z "},"Ř":{"ha":892,"x_min":0,"x_max":0,"o":"m 24 0 l 349 0 l 349 10 b 276 350 281 29 276 49 l 276 522 l 317 522 b 494 256 422 522 450 499 b 771 -10 535 50 626 -10 b 906 46 844 -10 885 24 l 897 54 b 826 24 879 33 864 24 b 678 265 754 24 717 103 b 413 522 633 440 547 504 l 425 522 b 828 796 646 522 828 606 b 385 1042 828 951 696 1042 l 24 1042 l 24 1032 b 96 692 92 1013 96 993 l 96 350 b 24 10 96 49 92 29 z m 379 1029 b 654 772 593 1029 654 935 b 414 533 654 610 588 533 l 276 533 l 276 1029 z m 250 1260 l 439 1089 l 628 1260 l 624 1268 l 439 1213 l 254 1268 z "},"Ŗ":{"ha":892,"x_min":0,"x_max":0,"o":"m 24 0 l 349 0 l 349 10 b 276 350 281 29 276 49 l 276 522 l 317 522 b 494 256 422 522 450 499 b 771 -10 535 50 626 -10 b 906 46 844 -10 885 24 l 897 54 b 826 24 879 33 864 24 b 678 265 754 24 717 103 b 413 522 633 440 547 504 l 425 522 b 828 796 646 522 828 606 b 385 1042 828 951 696 1042 l 24 1042 l 24 1032 b 96 692 92 1013 96 993 l 96 350 b 24 10 96 49 92 29 z m 379 1029 b 654 772 593 1029 654 935 b 414 533 654 610 588 533 l 276 533 l 276 1029 z m 492 -167 b 500 -186 497 -168 500 -175 b 400 -268 500 -218 471 -258 l 404 -279 b 532 -151 482 -272 532 -228 b 440 -51 532 -79 486 -51 b 363 -125 400 -51 363 -79 b 435 -194 363 -168 396 -194 b 492 -167 468 -194 486 -178 z "},"Ś":{"ha":758,"x_min":0,"x_max":0,"o":"m 365 -12 b 717 310 544 -12 717 97 b 383 660 717 496 569 574 b 160 886 229 728 160 786 b 351 1043 160 986 219 1043 b 636 825 506 1043 610 969 l 650 825 l 650 1035 l 638 1035 b 599 1000 632 1011 619 1000 b 351 1056 540 1000 497 1056 b 51 789 167 1056 51 935 b 310 476 51 629 154 547 b 592 196 510 383 592 335 b 364 0 592 68 526 0 b 46 296 174 0 67 114 l 32 296 l 32 31 l 44 31 b 81 61 49 51 61 61 b 365 -12 164 61 197 -12 z m 233 1082 l 457 1121 b 542 1199 519 1136 542 1161 b 486 1253 542 1226 519 1253 b 413 1226 460 1253 435 1244 l 229 1090 z "},"Ş":{"ha":758,"x_min":0,"x_max":0,"o":"m 336 -4 l 253 -143 l 257 -150 b 351 -203 314 -154 351 -171 b 215 -272 351 -236 293 -260 l 217 -283 b 450 -169 368 -279 450 -247 b 315 -67 450 -115 393 -76 l 351 -4 z m 365 -12 b 717 310 544 -12 717 97 b 383 660 717 496 569 574 b 160 886 229 728 160 786 b 351 1043 160 986 219 1043 b 636 825 506 1043 610 969 l 650 825 l 650 1035 l 638 1035 b 599 1000 632 1011 619 1000 b 351 1056 540 1000 497 1056 b 51 789 167 1056 51 935 b 310 476 51 629 154 547 b 592 196 510 383 592 335 b 364 0 592 68 526 0 b 46 296 174 0 67 114 l 32 296 l 32 31 l 44 31 b 81 61 49 51 61 61 b 365 -12 164 61 197 -12 z "},"Ŝ":{"ha":758,"x_min":0,"x_max":0,"o":"m 365 -12 b 717 310 544 -12 717 97 b 383 660 717 496 569 574 b 160 886 229 728 160 786 b 351 1043 160 986 219 1043 b 636 825 506 1043 610 969 l 650 825 l 650 1035 l 638 1035 b 599 1000 632 1011 619 1000 b 351 1056 540 1000 497 1056 b 51 789 167 1056 51 935 b 310 476 51 629 154 547 b 592 196 510 383 592 335 b 364 0 592 68 526 0 b 46 296 174 0 67 114 l 32 296 l 32 31 l 44 31 b 81 61 49 51 61 61 b 365 -12 164 61 197 -12 z m 176 1088 l 181 1079 l 365 1135 l 550 1079 l 554 1088 l 365 1258 z "},"Ș":{"ha":758,"x_min":0,"x_max":0,"o":"m 365 -12 b 717 310 544 -12 717 97 b 383 660 717 496 569 574 b 160 886 229 728 160 786 b 351 1043 160 986 219 1043 b 636 825 506 1043 610 969 l 650 825 l 650 1035 l 638 1035 b 599 1000 632 1011 619 1000 b 351 1056 540 1000 497 1056 b 51 789 167 1056 51 935 b 310 476 51 629 154 547 b 592 196 510 383 592 335 b 364 0 592 68 526 0 b 46 296 174 0 67 114 l 32 296 l 32 31 l 44 31 b 81 61 49 51 61 61 b 365 -12 164 61 197 -12 z m 406 -167 b 414 -186 411 -168 414 -175 b 314 -268 414 -218 385 -258 l 318 -279 b 446 -151 396 -272 446 -228 b 354 -51 446 -79 400 -51 b 276 -125 314 -51 276 -79 b 349 -194 276 -168 310 -194 b 406 -167 382 -194 400 -178 z "},"Ť":{"ha":881,"x_min":0,"x_max":0,"o":"m 276 0 l 601 0 l 601 10 b 529 350 533 29 529 50 l 529 1029 l 600 1029 b 857 825 758 1029 821 994 l 871 825 l 849 1013 b 825 1042 844 1042 840 1042 l 53 1042 b 29 1013 38 1042 33 1042 l 10 825 l 24 825 b 282 1029 57 997 119 1029 l 349 1029 l 349 350 b 276 10 349 50 344 29 z m 251 1260 l 440 1089 l 629 1260 l 625 1268 l 440 1213 l 256 1268 z "},"Ţ":{"ha":881,"x_min":0,"x_max":0,"o":"m 276 0 l 601 0 l 601 10 b 529 350 533 29 529 50 l 529 1029 l 600 1029 b 857 825 758 1029 821 994 l 871 825 l 849 1013 b 825 1042 844 1042 840 1042 l 53 1042 b 29 1013 38 1042 33 1042 l 10 825 l 24 825 b 282 1029 57 997 119 1029 l 349 1029 l 349 350 b 276 10 349 50 344 29 z m 488 -167 b 496 -186 493 -168 496 -175 b 396 -268 496 -218 467 -258 l 400 -279 b 528 -151 478 -272 528 -228 b 436 -51 528 -79 482 -51 b 358 -125 396 -51 358 -79 b 431 -194 358 -168 392 -194 b 488 -167 464 -194 482 -178 z "},"Ț":{"ha":881,"x_min":0,"x_max":0,"o":"m 276 0 l 601 0 l 601 10 b 529 350 533 29 529 50 l 529 1029 l 600 1029 b 857 825 758 1029 821 994 l 871 825 l 849 1013 b 825 1042 844 1042 840 1042 l 53 1042 b 29 1013 38 1042 33 1042 l 10 825 l 24 825 b 282 1029 57 997 119 1029 l 349 1029 l 349 350 b 276 10 349 50 344 29 z m 488 -167 b 496 -186 493 -168 496 -175 b 396 -268 496 -218 467 -258 l 400 -279 b 528 -151 478 -272 528 -228 b 436 -51 528 -79 482 -51 b 358 -125 396 -51 358 -79 b 431 -194 358 -168 392 -194 b 488 -167 464 -194 482 -178 z "},"Ŭ":{"ha":925,"x_min":0,"x_max":0,"o":"m 494 -15 b 833 349 704 -15 833 88 l 833 686 b 906 1032 833 979 838 999 l 906 1042 l 738 1042 l 738 1032 b 818 686 814 999 818 978 l 818 349 b 500 -3 818 93 696 -3 b 267 324 285 -3 267 113 l 267 692 b 339 1032 267 993 271 1013 l 339 1042 l 19 1042 l 19 1032 b 89 692 86 1014 89 993 l 89 354 b 494 -15 89 106 244 -15 z m 533 1188 b 400 1261 456 1188 421 1217 l 388 1261 b 533 1093 392 1165 435 1093 b 678 1260 629 1093 674 1168 l 665 1260 b 533 1188 643 1214 611 1188 z "},"Ű":{"ha":925,"x_min":0,"x_max":0,"o":"m 494 -15 b 833 349 704 -15 833 88 l 833 686 b 906 1032 833 979 838 999 l 906 1042 l 738 1042 l 738 1032 b 818 686 814 999 818 978 l 818 349 b 500 -3 818 93 696 -3 b 267 324 285 -3 267 113 l 267 692 b 339 1032 267 993 271 1013 l 339 1042 l 19 1042 l 19 1032 b 89 692 86 1014 89 993 l 89 354 b 494 -15 89 106 244 -15 z m 585 1101 l 736 1176 b 789 1239 768 1192 789 1210 b 740 1289 789 1260 774 1289 b 658 1221 703 1289 686 1261 l 578 1110 z m 401 1101 l 553 1176 b 606 1239 585 1192 606 1210 b 556 1289 606 1260 590 1289 b 475 1221 518 1289 503 1261 l 394 1110 z "},"Ū":{"ha":925,"x_min":0,"x_max":0,"o":"m 494 -15 b 833 349 704 -15 833 88 l 833 686 b 906 1032 833 979 838 999 l 906 1042 l 738 1042 l 738 1032 b 818 686 814 999 818 978 l 818 349 b 500 -3 818 93 696 -3 b 267 324 285 -3 267 113 l 267 692 b 339 1032 267 993 271 1013 l 339 1042 l 19 1042 l 19 1032 b 89 692 86 1014 89 993 l 89 354 b 494 -15 89 106 244 -15 z m 690 1178 l 374 1178 l 374 1111 l 690 1111 z "},"Ų":{"ha":925,"x_min":0,"x_max":0,"o":"m 542 -243 b 672 -185 625 -243 658 -199 l 667 -176 b 618 -197 651 -189 639 -197 b 554 -124 578 -197 554 -167 b 658 13 554 -35 611 -6 b 833 349 769 58 833 164 l 833 686 b 906 1032 833 979 838 999 l 906 1042 l 738 1042 l 738 1032 b 818 686 814 999 818 978 l 818 349 b 500 -3 818 93 696 -3 b 267 324 285 -3 267 113 l 267 692 b 339 1032 267 993 271 1013 l 339 1042 l 19 1042 l 19 1032 b 89 692 86 1014 89 993 l 89 354 b 494 -15 89 106 244 -15 b 581 -10 524 -15 553 -14 b 411 -150 510 -28 411 -79 b 542 -243 411 -210 468 -243 z "},"Ů":{"ha":925,"x_min":0,"x_max":0,"o":"m 494 -15 b 833 349 704 -15 833 88 l 833 686 b 906 1032 833 979 838 999 l 906 1042 l 738 1042 l 738 1032 b 818 686 814 999 818 978 l 818 349 b 500 -3 818 93 696 -3 b 267 324 285 -3 267 113 l 267 692 b 339 1032 267 993 271 1013 l 339 1042 l 19 1042 l 19 1032 b 89 692 86 1014 89 993 l 89 354 b 494 -15 89 106 244 -15 z m 421 1154 b 539 1047 421 1089 468 1047 b 658 1154 610 1047 658 1089 b 539 1261 658 1217 610 1261 b 421 1154 471 1261 421 1217 z m 481 1154 b 539 1249 481 1214 501 1249 b 599 1154 576 1249 599 1214 b 539 1060 599 1092 579 1060 b 481 1154 500 1060 481 1092 z "},"Ũ":{"ha":925,"x_min":0,"x_max":0,"o":"m 494 -15 b 833 349 704 -15 833 88 l 833 686 b 906 1032 833 979 838 999 l 906 1042 l 738 1042 l 738 1032 b 818 686 814 999 818 978 l 818 349 b 500 -3 818 93 696 -3 b 267 324 285 -3 267 113 l 267 692 b 339 1032 267 993 271 1013 l 339 1042 l 19 1042 l 19 1032 b 89 692 86 1014 89 993 l 89 354 b 494 -15 89 106 244 -15 z m 472 1219 b 369 1068 435 1219 397 1175 l 379 1065 b 457 1125 411 1114 435 1125 b 607 1117 507 1125 553 1117 b 714 1269 653 1117 693 1175 l 704 1272 b 622 1211 675 1228 646 1211 b 472 1219 582 1211 528 1219 z "},"Ẃ":{"ha":1263,"x_min":0,"x_max":0,"o":"m 425 -7 l 458 -7 l 642 500 l 825 -7 l 858 -7 l 1149 865 b 1251 1032 1193 1000 1210 1013 l 1251 1042 l 1096 1042 l 1096 1032 b 1133 865 1174 1006 1160 944 l 915 211 l 751 690 l 817 867 b 919 1032 865 1001 879 1014 l 919 1042 l 782 1042 l 782 1032 b 801 867 847 1006 828 946 l 744 711 l 674 918 b 686 1032 647 996 647 1021 l 686 1042 l 410 1042 l 410 1032 b 510 865 463 1010 474 964 l 633 522 l 524 217 l 275 919 b 289 1032 247 996 250 1021 l 289 1042 l 11 1042 l 11 1032 b 110 865 64 1006 72 965 z m 544 1082 l 768 1121 b 853 1199 831 1136 853 1161 b 797 1253 853 1226 831 1253 b 724 1226 771 1253 746 1244 l 540 1090 z "},"Ŵ":{"ha":1263,"x_min":0,"x_max":0,"o":"m 425 -7 l 458 -7 l 642 500 l 825 -7 l 858 -7 l 1149 865 b 1251 1032 1193 1000 1210 1013 l 1251 1042 l 1096 1042 l 1096 1032 b 1133 865 1174 1006 1160 944 l 915 211 l 751 690 l 817 867 b 919 1032 865 1001 879 1014 l 919 1042 l 782 1042 l 782 1032 b 801 867 847 1006 828 946 l 744 711 l 674 918 b 686 1032 647 996 647 1021 l 686 1042 l 410 1042 l 410 1032 b 510 865 463 1010 474 964 l 633 522 l 524 217 l 275 919 b 289 1032 247 996 250 1021 l 289 1042 l 11 1042 l 11 1032 b 110 865 64 1006 72 965 z m 486 1088 l 490 1079 l 675 1135 l 860 1079 l 864 1088 l 675 1258 z "},"Ẅ":{"ha":1263,"x_min":0,"x_max":0,"o":"m 425 -7 l 458 -7 l 642 500 l 825 -7 l 858 -7 l 1149 865 b 1251 1032 1193 1000 1210 1013 l 1251 1042 l 1096 1042 l 1096 1032 b 1133 865 1174 1006 1160 944 l 915 211 l 751 690 l 817 867 b 919 1032 865 1001 879 1014 l 919 1042 l 782 1042 l 782 1032 b 801 867 847 1006 828 946 l 744 711 l 674 918 b 686 1032 647 996 647 1021 l 686 1042 l 410 1042 l 410 1032 b 510 865 463 1010 474 964 l 633 522 l 524 217 l 275 919 b 289 1032 247 996 250 1021 l 289 1042 l 11 1042 l 11 1032 b 110 865 64 1006 72 965 z m 800 1090 b 882 1175 846 1090 882 1126 b 800 1256 882 1219 846 1256 b 718 1175 754 1256 718 1219 b 800 1090 718 1126 754 1090 z m 550 1090 b 632 1175 596 1090 632 1126 b 550 1256 632 1219 596 1256 b 468 1175 504 1256 468 1219 b 550 1090 468 1126 504 1090 z "},"Ẁ":{"ha":1263,"x_min":0,"x_max":0,"o":"m 425 -7 l 458 -7 l 642 500 l 825 -7 l 858 -7 l 1149 865 b 1251 1032 1193 1000 1210 1013 l 1251 1042 l 1096 1042 l 1096 1032 b 1133 865 1174 1006 1160 944 l 915 211 l 751 690 l 817 867 b 919 1032 865 1001 879 1014 l 919 1042 l 782 1042 l 782 1032 b 801 867 847 1006 828 946 l 744 711 l 674 918 b 686 1032 647 996 647 1021 l 686 1042 l 410 1042 l 410 1032 b 510 865 463 1010 474 964 l 633 522 l 524 217 l 275 919 b 289 1032 247 996 250 1021 l 289 1042 l 11 1042 l 11 1032 b 110 865 64 1006 72 965 z m 813 1082 l 815 1090 l 633 1226 b 560 1253 610 1244 586 1253 b 504 1199 526 1253 504 1226 b 589 1121 504 1161 526 1136 z "},"Ŷ":{"ha":871,"x_min":0,"x_max":0,"o":"m 281 0 l 603 0 l 603 10 b 531 350 535 29 531 50 l 531 531 l 718 867 b 863 1033 789 997 821 1015 l 863 1042 l 710 1042 l 710 1033 b 703 867 778 1011 754 963 l 524 546 l 304 929 b 321 1033 271 989 282 1018 l 321 1042 l 8 1042 l 8 1033 b 147 867 68 1003 94 957 l 353 513 l 353 350 b 281 10 353 50 349 29 z m 321 1088 l 325 1079 l 510 1135 l 694 1079 l 699 1088 l 510 1258 z "},"Ỳ":{"ha":871,"x_min":0,"x_max":0,"o":"m 281 0 l 603 0 l 603 10 b 531 350 535 29 531 50 l 531 531 l 718 867 b 863 1033 789 997 821 1015 l 863 1042 l 710 1042 l 710 1033 b 703 867 778 1011 754 963 l 524 546 l 304 929 b 321 1033 271 989 282 1018 l 321 1042 l 8 1042 l 8 1033 b 147 867 68 1003 94 957 l 353 513 l 353 350 b 281 10 353 50 349 29 z m 644 1082 l 647 1090 l 465 1226 b 392 1253 442 1244 418 1253 b 336 1199 358 1253 336 1226 b 421 1121 336 1161 358 1136 z "},"Ź":{"ha":843,"x_min":0,"x_max":0,"o":"m 24 0 l 792 0 l 825 232 l 811 232 b 494 13 767 64 714 13 l 225 13 l 786 1042 l 83 1042 l 47 851 l 60 851 b 347 1029 100 965 157 1029 l 578 1029 z m 301 1082 l 525 1121 b 610 1199 588 1136 610 1161 b 554 1253 610 1226 588 1253 b 481 1226 528 1253 503 1244 l 297 1090 z "},"Ż":{"ha":843,"x_min":0,"x_max":0,"o":"m 24 0 l 792 0 l 825 232 l 811 232 b 494 13 767 64 714 13 l 225 13 l 786 1042 l 83 1042 l 47 851 l 60 851 b 347 1029 100 965 157 1029 l 578 1029 z m 422 1089 b 510 1178 471 1089 510 1129 b 422 1264 510 1226 471 1264 b 335 1178 374 1264 335 1226 b 422 1089 335 1129 374 1089 z "},"ă":{"ha":618,"x_min":0,"x_max":0,"o":"m 194 -11 b 379 71 283 -11 331 25 l 388 79 b 515 -8 399 21 442 -8 b 626 24 586 -8 614 14 l 624 31 b 588 18 614 25 603 18 b 542 179 550 18 542 40 l 542 483 b 278 658 542 622 407 658 b 57 565 157 658 57 625 b 115 514 57 538 78 514 b 189 581 158 514 172 543 b 281 646 210 624 225 646 b 385 547 331 646 385 624 l 385 440 b 299 332 385 371 357 357 l 275 322 b 26 133 147 267 26 260 b 194 -11 26 40 94 -11 z m 186 161 b 278 310 186 239 213 283 l 301 321 b 385 381 347 342 374 354 l 385 113 b 386 92 385 106 385 97 l 379 85 b 271 24 340 47 304 24 b 186 161 215 24 186 72 z m 292 829 b 165 917 215 829 178 874 l 153 917 b 292 738 153 826 196 738 b 429 915 386 738 429 831 l 417 915 b 292 829 401 872 365 829 z "},"ā":{"ha":618,"x_min":0,"x_max":0,"o":"m 194 -11 b 379 71 283 -11 331 25 l 388 79 b 515 -8 399 21 442 -8 b 626 24 586 -8 614 14 l 624 31 b 588 18 614 25 603 18 b 542 179 550 18 542 40 l 542 483 b 278 658 542 622 407 658 b 57 565 157 658 57 625 b 115 514 57 538 78 514 b 189 581 158 514 172 543 b 281 646 210 624 225 646 b 385 547 331 646 385 624 l 385 440 b 299 332 385 371 357 357 l 275 322 b 26 133 147 267 26 260 b 194 -11 26 40 94 -11 z m 186 161 b 278 310 186 239 213 283 l 301 321 b 385 381 347 342 374 354 l 385 113 b 386 92 385 106 385 97 l 379 85 b 271 24 340 47 304 24 b 186 161 215 24 186 72 z m 142 856 l 142 790 l 439 790 l 439 856 z "},"ą":{"ha":618,"x_min":0,"x_max":0,"o":"m 194 -11 b 379 71 283 -11 331 25 l 388 79 b 515 -8 399 21 442 -8 b 539 -7 522 -8 533 -7 b 372 -150 467 -25 372 -74 b 501 -243 372 -210 428 -243 b 632 -185 585 -243 618 -199 l 626 -176 b 578 -197 611 -189 599 -197 b 514 -124 538 -197 514 -168 b 599 7 514 -42 569 -8 b 626 24 614 13 622 19 l 624 31 b 588 18 614 25 603 18 b 542 179 550 18 542 40 l 542 483 b 278 658 542 622 407 658 b 57 565 157 658 57 625 b 115 514 57 538 78 514 b 189 581 158 514 172 543 b 281 646 210 624 225 646 b 385 547 331 646 385 624 l 385 440 b 299 332 385 371 357 357 l 275 322 b 26 133 147 267 26 260 b 194 -11 26 40 94 -11 z m 186 161 b 278 310 186 239 213 283 l 301 321 b 385 381 347 342 374 354 l 385 113 b 386 92 385 106 385 97 l 379 85 b 271 24 340 47 304 24 b 186 161 215 24 186 72 z "},"ǻ":{"ha":618,"x_min":0,"x_max":0,"o":"m 194 -11 b 379 71 283 -11 331 25 l 388 79 b 515 -8 399 21 442 -8 b 626 24 586 -8 614 14 l 624 31 b 588 18 614 25 603 18 b 542 179 550 18 542 40 l 542 483 b 278 658 542 622 407 658 b 57 565 157 658 57 625 b 115 514 57 538 78 514 b 189 581 158 514 172 543 b 281 646 210 624 225 646 b 385 547 331 646 385 624 l 385 440 b 299 332 385 371 357 357 l 275 322 b 26 133 147 267 26 260 b 194 -11 26 40 94 -11 z m 186 161 b 278 310 186 239 213 283 l 301 321 b 385 381 347 342 374 354 l 385 113 b 386 92 385 106 385 97 l 379 85 b 271 24 340 47 304 24 b 186 161 215 24 186 72 z m 172 843 b 290 736 172 778 219 736 b 408 843 361 736 408 778 b 290 950 408 906 361 950 b 172 843 222 950 172 906 z m 232 843 b 290 938 232 903 253 938 b 350 843 328 938 350 903 b 290 749 350 781 331 749 b 232 843 251 749 232 781 z m 160 978 l 383 1017 b 468 1094 446 1032 468 1057 b 413 1149 468 1122 446 1149 b 339 1122 386 1149 361 1140 l 156 986 z "},"ǽ":{"ha":979,"x_min":0,"x_max":0,"o":"m 196 -11 b 386 71 293 -11 335 24 l 442 124 b 719 -11 507 29 613 -11 b 936 65 826 -11 888 26 l 928 75 b 756 15 882 40 835 15 b 546 338 615 15 546 146 b 553 451 546 381 549 418 l 950 451 b 689 660 939 546 863 660 b 503 590 632 660 563 639 b 278 658 453 642 365 658 b 57 565 157 658 57 625 b 115 514 57 538 78 514 b 189 581 158 514 172 543 b 281 646 210 624 225 646 b 385 547 331 646 385 624 l 385 440 b 299 332 385 371 357 357 l 275 322 b 26 133 147 267 26 260 b 196 -11 26 40 96 -11 z m 689 647 b 807 464 771 647 797 575 l 554 464 b 689 647 575 599 626 647 z m 186 161 b 278 310 186 239 213 283 l 301 321 b 385 381 347 342 374 354 l 385 329 b 436 132 385 247 404 183 l 386 85 b 271 24 343 46 304 24 b 186 161 215 24 186 72 z m 419 721 l 614 836 b 669 914 646 854 669 876 b 613 971 669 947 650 971 b 532 910 578 971 558 953 l 413 729 z "},"ć":{"ha":590,"x_min":0,"x_max":0,"o":"m 353 -10 b 574 88 458 -10 531 33 l 565 94 b 393 17 525 46 472 17 b 196 351 275 17 196 124 b 358 647 196 568 268 647 b 426 599 396 647 415 636 b 511 506 444 538 456 506 b 568 557 544 506 568 525 b 357 660 568 621 472 660 b 32 314 218 660 32 536 b 353 -10 32 118 179 -10 z m 268 721 l 463 836 b 518 914 494 854 518 876 b 461 971 518 947 499 971 b 381 910 426 971 407 953 l 261 729 z "},"č":{"ha":590,"x_min":0,"x_max":0,"o":"m 353 -10 b 574 88 458 -10 531 33 l 565 94 b 393 17 525 46 472 17 b 196 351 275 17 196 124 b 358 647 196 568 268 647 b 426 599 396 647 415 636 b 511 506 444 538 456 506 b 568 557 544 506 568 525 b 357 660 568 621 472 660 b 32 314 218 660 32 536 b 353 -10 32 118 179 -10 z m 188 982 l 351 729 l 515 982 l 507 988 l 351 881 l 196 988 z "},"ĉ":{"ha":590,"x_min":0,"x_max":0,"o":"m 353 -10 b 574 88 458 -10 531 33 l 565 94 b 393 17 525 46 472 17 b 196 351 275 17 196 124 b 358 647 196 568 268 647 b 426 599 396 647 415 636 b 511 506 444 538 456 506 b 568 557 544 506 568 525 b 357 660 568 621 472 660 b 32 314 218 660 32 536 b 353 -10 32 118 179 -10 z m 188 724 l 196 718 l 351 825 l 507 718 l 515 724 l 351 978 z "},"ċ":{"ha":590,"x_min":0,"x_max":0,"o":"m 353 -10 b 574 88 458 -10 531 33 l 565 94 b 393 17 525 46 472 17 b 196 351 275 17 196 124 b 358 647 196 568 268 647 b 426 599 396 647 415 636 b 511 506 444 538 456 506 b 568 557 544 506 568 525 b 357 660 568 621 472 660 b 32 314 218 660 32 536 b 353 -10 32 118 179 -10 z m 351 739 b 440 828 401 739 440 779 b 351 914 440 876 401 914 b 264 828 303 914 264 876 b 351 739 264 779 303 739 z "},"ď":{"ha":746,"x_min":0,"x_max":0,"o":"m 299 -10 b 497 96 386 -10 443 36 l 510 110 l 510 0 l 728 0 l 728 10 b 667 213 668 25 667 46 l 667 1078 l 453 963 l 453 951 b 510 783 510 947 510 943 l 510 604 b 361 657 472 633 422 657 b 40 303 192 657 40 531 b 299 -10 40 92 171 -10 z m 206 321 b 364 644 206 547 269 644 b 510 588 424 644 467 621 l 510 126 l 497 113 b 342 18 443 51 396 18 b 206 321 269 18 206 88 z m 726 769 l 822 943 b 840 1004 832 964 840 983 b 788 1061 840 1042 822 1061 b 726 964 750 1061 731 1032 l 718 772 z "},"ĕ":{"ha":631,"x_min":0,"x_max":0,"o":"m 368 -11 b 586 65 475 -11 538 26 l 579 75 b 404 15 531 40 483 15 b 193 338 264 15 193 146 b 200 451 193 381 196 418 l 601 451 b 338 660 590 546 510 660 b 32 329 215 660 32 558 b 368 -11 32 90 201 -11 z m 338 647 b 458 464 419 647 447 575 l 201 464 b 338 647 222 599 275 647 z m 344 829 b 218 917 268 829 231 874 l 206 917 b 344 738 206 826 249 738 b 482 915 439 738 482 831 l 469 915 b 344 829 454 872 418 829 z "},"ě":{"ha":631,"x_min":0,"x_max":0,"o":"m 368 -11 b 586 65 475 -11 538 26 l 579 75 b 404 15 531 40 483 15 b 193 338 264 15 193 146 b 200 451 193 381 196 418 l 601 451 b 338 660 590 546 510 660 b 32 329 215 660 32 558 b 368 -11 32 90 201 -11 z m 338 647 b 458 464 419 647 447 575 l 201 464 b 338 647 222 599 275 647 z m 179 982 l 343 729 l 507 982 l 499 988 l 343 881 l 188 988 z "},"ė":{"ha":631,"x_min":0,"x_max":0,"o":"m 368 -11 b 586 65 475 -11 538 26 l 579 75 b 404 15 531 40 483 15 b 193 338 264 15 193 146 b 200 451 193 381 196 418 l 601 451 b 338 660 590 546 510 660 b 32 329 215 660 32 558 b 368 -11 32 90 201 -11 z m 338 647 b 458 464 419 647 447 575 l 201 464 b 338 647 222 599 275 647 z m 343 739 b 432 828 393 739 432 779 b 343 914 432 876 393 914 b 256 828 294 914 256 876 b 343 739 256 779 294 739 z "},"ē":{"ha":631,"x_min":0,"x_max":0,"o":"m 368 -11 b 586 65 475 -11 538 26 l 579 75 b 404 15 531 40 483 15 b 193 338 264 15 193 146 b 200 451 193 381 196 418 l 601 451 b 338 660 590 546 510 660 b 32 329 215 660 32 558 b 368 -11 32 90 201 -11 z m 338 647 b 458 464 419 647 447 575 l 201 464 b 338 647 222 599 275 647 z m 194 856 l 194 790 l 492 790 l 492 856 z "},"ę":{"ha":631,"x_min":0,"x_max":0,"o":"m 522 -176 b 474 -197 507 -189 494 -197 b 410 -124 433 -197 410 -169 b 508 17 410 -37 469 -1 b 586 65 542 32 564 49 l 579 75 b 404 15 531 40 483 15 b 193 338 264 15 193 146 b 200 451 193 381 196 418 l 601 451 b 338 660 590 546 510 660 b 32 329 215 660 32 558 b 368 -11 32 90 201 -11 b 439 -3 394 -11 421 -7 b 268 -150 364 -33 268 -74 b 397 -243 268 -210 324 -243 b 528 -185 481 -243 514 -199 z m 338 647 b 458 464 419 647 447 575 l 201 464 b 338 647 222 599 275 647 z "},"ğ":{"ha":615,"x_min":0,"x_max":0,"o":"m 294 224 b 551 436 413 224 551 297 b 438 621 551 519 503 583 b 476 632 450 628 464 632 b 575 590 510 632 535 590 b 617 638 596 590 617 606 b 557 688 617 669 600 688 b 428 626 525 688 476 665 b 294 660 385 649 339 660 b 40 436 176 660 40 576 b 151 260 39 353 86 294 l 132 246 b 53 122 92 214 53 178 b 147 13 53 74 81 33 b 15 -103 85 -10 15 -44 b 292 -239 15 -206 158 -239 b 597 -35 475 -239 597 -157 b 394 125 597 50 539 107 l 169 153 b 104 189 121 158 104 174 b 144 240 104 207 115 219 l 163 254 b 294 224 203 233 250 224 z m 294 236 b 183 436 238 236 183 285 b 294 647 183 588 235 647 b 408 436 356 647 408 588 b 294 236 408 285 350 236 z m 106 -93 b 161 8 106 -49 118 -12 b 206 0 175 4 190 1 l 367 -18 b 539 -106 476 -31 539 -44 b 292 -226 539 -161 458 -226 b 106 -93 174 -226 106 -183 z m 307 829 b 181 917 231 829 193 874 l 168 917 b 307 738 168 826 211 738 b 444 915 401 738 444 831 l 432 915 b 307 829 417 872 381 829 z "},"ĝ":{"ha":615,"x_min":0,"x_max":0,"o":"m 294 224 b 551 436 413 224 551 297 b 438 621 551 519 503 583 b 476 632 450 628 464 632 b 575 590 510 632 535 590 b 617 638 596 590 617 606 b 557 688 617 669 600 688 b 428 626 525 688 476 665 b 294 660 385 649 339 660 b 40 436 176 660 40 576 b 151 260 39 353 86 294 l 132 246 b 53 122 92 214 53 178 b 147 13 53 74 81 33 b 15 -103 85 -10 15 -44 b 292 -239 15 -206 158 -239 b 597 -35 475 -239 597 -157 b 394 125 597 50 539 107 l 169 153 b 104 189 121 158 104 174 b 144 240 104 207 115 219 l 163 254 b 294 224 203 233 250 224 z m 294 236 b 183 436 238 236 183 285 b 294 647 183 588 235 647 b 408 436 356 647 408 588 b 294 236 408 285 350 236 z m 106 -93 b 161 8 106 -49 118 -12 b 206 0 175 4 190 1 l 367 -18 b 539 -106 476 -31 539 -44 b 292 -226 539 -161 458 -226 b 106 -93 174 -226 106 -183 z m 142 724 l 150 718 l 306 825 l 461 718 l 469 724 l 306 978 z "},"ģ":{"ha":615,"x_min":0,"x_max":0,"o":"m 294 224 b 551 436 413 224 551 297 b 438 621 551 519 503 583 b 476 632 450 628 464 632 b 575 590 510 632 535 590 b 617 638 596 590 617 606 b 557 688 617 669 600 688 b 428 626 525 688 476 665 b 294 660 385 649 339 660 b 40 436 176 660 40 576 b 151 260 39 353 86 294 l 132 246 b 53 122 92 214 53 178 b 147 13 53 74 81 33 b 15 -103 85 -10 15 -44 b 292 -239 15 -206 158 -239 b 597 -35 475 -239 597 -157 b 394 125 597 50 539 107 l 169 153 b 104 189 121 158 104 174 b 144 240 104 207 115 219 l 163 254 b 294 224 203 233 250 224 z m 294 236 b 183 436 238 236 183 285 b 294 647 183 588 235 647 b 408 436 356 647 408 588 b 294 236 408 285 350 236 z m 106 -93 b 161 8 106 -49 118 -12 b 206 0 175 4 190 1 l 367 -18 b 539 -106 476 -31 539 -44 b 292 -226 539 -161 458 -226 b 106 -93 174 -226 106 -183 z m 253 853 b 246 872 249 854 246 861 b 344 954 246 904 274 943 l 340 965 b 214 838 263 956 214 911 b 304 736 214 765 260 736 b 382 811 344 736 382 765 b 310 881 382 854 349 881 b 253 853 276 881 258 863 z "},"ġ":{"ha":615,"x_min":0,"x_max":0,"o":"m 294 224 b 551 436 413 224 551 297 b 438 621 551 519 503 583 b 476 632 450 628 464 632 b 575 590 510 632 535 590 b 617 638 596 590 617 606 b 557 688 617 669 600 688 b 428 626 525 688 476 665 b 294 660 385 649 339 660 b 40 436 176 660 40 576 b 151 260 39 353 86 294 l 132 246 b 53 122 92 214 53 178 b 147 13 53 74 81 33 b 15 -103 85 -10 15 -44 b 292 -239 15 -206 158 -239 b 597 -35 475 -239 597 -157 b 394 125 597 50 539 107 l 169 153 b 104 189 121 158 104 174 b 144 240 104 207 115 219 l 163 254 b 294 224 203 233 250 224 z m 294 236 b 183 436 238 236 183 285 b 294 647 183 588 235 647 b 408 436 356 647 408 588 b 294 236 408 285 350 236 z m 106 -93 b 161 8 106 -49 118 -12 b 206 0 175 4 190 1 l 367 -18 b 539 -106 476 -31 539 -44 b 292 -226 539 -161 458 -226 b 106 -93 174 -226 106 -183 z m 306 739 b 394 828 356 739 394 779 b 306 914 394 876 356 914 b 218 828 257 914 218 876 b 306 739 218 779 257 739 z "},"ĥ":{"ha":713,"x_min":0,"x_max":0,"o":"m 21 0 l 294 0 l 294 10 b 233 213 235 25 233 46 l 233 496 l 264 525 b 415 621 329 590 376 621 b 482 528 450 621 482 599 l 482 213 b 421 10 482 46 479 24 l 421 0 l 696 0 l 696 10 b 640 213 640 25 640 46 l 640 483 b 479 658 640 619 560 658 b 264 542 394 658 336 613 l 233 513 l 233 1078 l 19 963 l 19 951 b 76 783 76 947 76 943 l 76 213 b 21 10 76 46 75 24 z m 188 1118 l 192 1110 l 376 1165 l 561 1110 l 565 1118 l 376 1289 z "},"ĭ":{"ha":313,"x_min":0,"x_max":0,"o":"m 19 0 l 296 0 l 296 10 b 235 213 236 25 235 46 l 235 667 l 21 549 l 21 538 b 78 365 78 531 78 528 l 78 213 b 19 10 78 46 75 25 z m 158 829 b 32 917 82 829 44 874 l 19 917 b 158 738 19 826 63 738 b 296 915 253 738 296 831 l 283 915 b 158 829 268 872 232 829 z "},"ī":{"ha":313,"x_min":0,"x_max":0,"o":"m 19 0 l 296 0 l 296 10 b 235 213 236 25 235 46 l 235 667 l 21 549 l 21 538 b 78 365 78 531 78 528 l 78 213 b 19 10 78 46 75 25 z m 8 856 l 8 790 l 306 790 l 306 856 z "},"į":{"ha":315,"x_min":0,"x_max":0,"o":"m 156 739 b 244 828 206 739 244 779 b 156 914 244 876 206 914 b 68 828 107 914 68 876 b 156 739 68 779 107 739 z m 19 0 l 296 0 l 296 10 b 235 213 236 25 235 46 l 235 667 l 21 549 l 21 538 b 78 365 78 531 78 528 l 78 213 b 19 10 78 46 75 25 z m 164 -243 b 294 -185 247 -243 281 -199 l 289 -176 b 240 -197 274 -189 261 -197 b 176 -124 200 -197 176 -168 b 238 0 176 -58 210 -22 l 221 0 b 33 -150 160 -11 33 -67 b 164 -243 33 -210 90 -243 z "},"ĩ":{"ha":313,"x_min":0,"x_max":0,"o":"m 19 0 l 296 0 l 296 10 b 235 213 236 25 235 46 l 235 667 l 21 549 l 21 538 b 78 365 78 531 78 528 l 78 213 b 19 10 78 46 75 25 z m 97 896 b -6 746 54 896 26 840 l 4 742 b 79 801 38 790 53 801 b 224 788 129 801 172 788 b 326 939 272 788 304 851 l 318 943 b 243 882 286 897 267 882 b 97 896 199 882 153 896 z "},"ĵ":{"ha":314,"x_min":0,"x_max":0,"o":"m -40 -193 b 94 -140 3 -193 35 -183 b 235 128 200 -64 235 17 l 235 667 l 21 549 l 21 538 b 78 364 78 531 78 528 l 78 -10 b 58 -147 78 -103 74 -136 b 46 -153 54 -151 51 -153 b -53 -86 18 -153 -7 -86 b -103 -136 -81 -86 -103 -103 b -40 -193 -103 -174 -72 -193 z m -7 724 l 1 718 l 157 825 l 313 718 l 321 724 l 157 978 z "},"ķ":{"ha":671,"x_min":0,"x_max":0,"o":"m 21 0 l 294 0 l 294 10 b 233 213 235 25 233 46 l 233 1078 l 19 963 l 19 951 b 76 783 76 947 76 943 l 76 213 b 21 10 76 46 75 24 z m 413 0 l 679 0 l 679 10 b 608 78 661 14 646 28 l 356 432 l 488 542 b 642 639 568 608 597 628 l 642 647 l 474 647 l 474 639 b 479 551 522 633 540 606 l 240 350 l 239 342 l 422 82 b 413 10 457 33 450 14 z m 392 -167 b 400 -186 397 -168 400 -175 b 300 -268 400 -218 371 -258 l 304 -279 b 432 -151 382 -272 432 -228 b 340 -51 432 -79 386 -51 b 263 -125 300 -51 263 -79 b 335 -194 263 -168 296 -194 b 392 -167 368 -194 386 -178 z "},"ĺ":{"ha":318,"x_min":0,"x_max":0,"o":"m 21 0 l 300 0 l 300 10 b 236 213 239 24 236 46 l 236 1078 l 19 963 l 19 951 b 78 783 79 947 78 943 l 78 213 b 21 10 78 46 76 25 z m 28 1082 l 251 1121 b 336 1199 314 1136 336 1161 b 281 1253 336 1226 314 1253 b 207 1226 254 1253 229 1244 l 24 1090 z "},"ľ":{"ha":318,"x_min":0,"x_max":0,"o":"m 21 0 l 300 0 l 300 10 b 236 213 239 24 236 46 l 236 1078 l 19 963 l 19 951 b 78 783 79 947 78 943 l 78 213 b 21 10 78 46 76 25 z m 297 769 l 393 943 b 411 1004 403 964 411 983 b 358 1061 411 1042 393 1061 b 297 964 321 1061 301 1032 l 289 772 z "},"ļ":{"ha":318,"x_min":0,"x_max":0,"o":"m 21 0 l 300 0 l 300 10 b 236 213 239 24 236 46 l 236 1078 l 19 963 l 19 951 b 78 783 79 947 78 943 l 78 213 b 21 10 78 46 76 25 z m 206 -167 b 214 -186 211 -168 214 -175 b 114 -268 214 -218 185 -258 l 118 -279 b 246 -151 196 -272 246 -228 b 154 -51 246 -79 200 -51 b 76 -125 114 -51 76 -79 b 149 -194 76 -168 110 -194 b 206 -167 182 -194 200 -178 z "},"ń":{"ha":718,"x_min":0,"x_max":0,"o":"m 21 0 l 294 0 l 294 10 b 233 213 235 25 233 46 l 233 492 l 268 525 b 419 621 335 590 382 621 b 488 528 457 621 488 599 l 488 213 b 425 10 488 46 481 25 l 425 0 l 701 0 l 701 10 b 646 213 646 25 646 46 l 646 483 b 485 658 646 619 564 658 b 268 542 400 658 340 613 l 233 508 l 233 667 l 19 549 l 19 538 b 76 365 76 531 76 528 l 76 213 b 21 10 76 46 75 24 z m 290 721 l 485 836 b 540 914 517 854 540 876 b 483 971 540 947 521 971 b 403 910 449 971 429 953 l 283 729 z "},"ň":{"ha":718,"x_min":0,"x_max":0,"o":"m 21 0 l 294 0 l 294 10 b 233 213 235 25 233 46 l 233 492 l 268 525 b 419 621 335 590 382 621 b 488 528 457 621 488 599 l 488 213 b 425 10 488 46 481 25 l 425 0 l 701 0 l 701 10 b 646 213 646 25 646 46 l 646 483 b 485 658 646 619 564 658 b 268 542 400 658 340 613 l 233 508 l 233 667 l 19 549 l 19 538 b 76 365 76 531 76 528 l 76 213 b 21 10 76 46 75 24 z m 210 982 l 374 729 l 538 982 l 529 988 l 374 881 l 218 988 z "},"ņ":{"ha":718,"x_min":0,"x_max":0,"o":"m 21 0 l 294 0 l 294 10 b 233 213 235 25 233 46 l 233 492 l 268 525 b 419 621 335 590 382 621 b 488 528 457 621 488 599 l 488 213 b 425 10 488 46 481 25 l 425 0 l 701 0 l 701 10 b 646 213 646 25 646 46 l 646 483 b 485 658 646 619 564 658 b 268 542 400 658 340 613 l 233 508 l 233 667 l 19 549 l 19 538 b 76 365 76 531 76 528 l 76 213 b 21 10 76 46 75 24 z m 403 -167 b 411 -186 408 -168 411 -175 b 311 -268 411 -218 382 -258 l 315 -279 b 443 -151 393 -272 443 -228 b 351 -51 443 -79 397 -51 b 274 -125 311 -51 274 -79 b 346 -194 274 -168 307 -194 b 403 -167 379 -194 397 -178 z "},"ŏ":{"ha":704,"x_min":0,"x_max":0,"o":"m 353 -11 b 672 321 475 -11 672 76 b 353 661 672 561 475 661 b 32 321 231 661 32 561 b 353 -11 32 76 231 -11 z m 353 1 b 196 321 268 1 196 74 b 353 649 196 567 268 649 b 508 321 438 649 508 567 b 353 1 508 74 438 1 z m 353 829 b 226 917 276 829 239 874 l 214 917 b 353 738 214 826 257 738 b 490 915 447 738 490 831 l 478 915 b 353 829 463 872 426 829 z "},"ő":{"ha":704,"x_min":0,"x_max":0,"o":"m 353 -11 b 672 321 475 -11 672 76 b 353 661 672 561 475 661 b 32 321 231 661 32 561 b 353 -11 32 76 231 -11 z m 353 1 b 196 321 268 1 196 74 b 353 649 196 567 268 649 b 508 321 438 649 508 567 b 353 1 508 74 438 1 z m 431 743 l 560 892 b 585 950 576 911 585 931 b 533 1004 585 982 567 1004 b 468 932 494 1004 479 975 l 422 746 z m 253 743 l 381 892 b 407 950 399 911 407 931 b 356 1004 407 982 390 1004 b 290 932 317 1004 301 975 l 244 746 z "},"ō":{"ha":704,"x_min":0,"x_max":0,"o":"m 353 -11 b 672 321 475 -11 672 76 b 353 661 672 561 475 661 b 32 321 231 661 32 561 b 353 -11 32 76 231 -11 z m 353 1 b 196 321 268 1 196 74 b 353 649 196 567 268 649 b 508 321 438 649 508 567 b 353 1 508 74 438 1 z m 203 856 l 203 790 l 500 790 l 500 856 z "},"ǿ":{"ha":704,"x_min":0,"x_max":0,"o":"m 353 1 b 233 86 304 1 263 24 l 475 550 b 468 565 474 556 472 560 l 499 622 b 353 661 449 649 396 661 b 32 321 231 661 32 561 b 192 33 32 172 106 82 l 139 -67 l 150 -74 l 203 28 b 192 33 197 29 193 32 l 226 101 b 196 321 206 151 196 221 b 353 649 196 567 268 649 b 468 565 399 649 440 625 l 226 101 l 233 86 l 203 28 b 353 -11 254 0 308 -11 b 672 321 475 -11 672 76 b 510 617 672 471 596 564 l 556 704 l 544 711 l 499 622 l 510 617 l 475 550 b 508 321 496 499 508 425 b 353 1 508 74 438 1 z m 268 721 l 463 836 b 518 914 494 854 518 876 b 461 971 518 947 499 971 b 381 910 426 971 407 953 l 261 729 z "},"ŕ":{"ha":511,"x_min":0,"x_max":0,"o":"m 21 0 l 294 0 l 294 10 b 233 213 235 25 233 46 l 233 500 l 260 529 b 331 581 299 572 310 581 b 438 529 364 581 381 529 b 501 597 471 529 501 549 b 431 658 501 636 474 658 b 260 544 378 658 346 638 l 233 515 l 233 667 l 19 549 l 19 538 b 76 365 76 531 76 528 l 76 213 b 21 10 76 46 75 24 z m 207 721 l 401 836 b 457 914 433 854 457 876 b 400 971 457 947 438 971 b 319 910 365 971 346 953 l 200 729 z "},"ř":{"ha":511,"x_min":0,"x_max":0,"o":"m 21 0 l 294 0 l 294 10 b 233 213 235 25 233 46 l 233 500 l 260 529 b 331 581 299 572 310 581 b 438 529 364 581 381 529 b 501 597 471 529 501 549 b 431 658 501 636 474 658 b 260 544 378 658 346 638 l 233 515 l 233 667 l 19 549 l 19 538 b 76 365 76 531 76 528 l 76 213 b 21 10 76 46 75 24 z m 126 982 l 290 729 l 454 982 l 446 988 l 290 881 l 135 988 z "},"ŗ":{"ha":511,"x_min":0,"x_max":0,"o":"m 21 0 l 294 0 l 294 10 b 233 213 235 25 233 46 l 233 500 l 260 529 b 331 581 299 572 310 581 b 438 529 364 581 381 529 b 501 597 471 529 501 549 b 431 658 501 636 474 658 b 260 544 378 658 346 638 l 233 515 l 233 667 l 19 549 l 19 538 b 76 365 76 531 76 528 l 76 213 b 21 10 76 46 75 24 z m 201 -167 b 210 -186 207 -168 210 -175 b 110 -268 210 -218 181 -258 l 114 -279 b 242 -151 192 -272 242 -228 b 150 -51 242 -79 196 -51 b 72 -125 110 -51 72 -79 b 144 -194 72 -168 106 -194 b 201 -167 178 -194 196 -178 z "},"ś":{"ha":513,"x_min":0,"x_max":0,"o":"m 251 3 b 42 211 140 3 76 71 l 29 211 l 29 17 l 42 17 b 67 40 46 32 56 40 b 251 -10 106 40 144 -10 b 479 192 381 -10 479 72 b 276 419 479 313 414 364 b 121 554 178 460 121 486 b 238 649 121 611 153 649 b 425 488 328 649 390 594 l 436 488 l 436 650 l 425 650 b 401 626 421 638 413 626 b 238 661 354 626 329 661 b 36 486 117 661 36 582 b 228 269 36 367 104 318 b 383 117 343 224 383 183 b 251 3 383 54 353 3 z m 164 721 l 358 836 b 414 914 390 854 414 876 b 357 971 414 947 394 971 b 276 910 322 971 303 953 l 157 729 z "},"ş":{"ha":513,"x_min":0,"x_max":0,"o":"m 224 -1 l 139 -143 l 143 -150 b 236 -203 199 -154 236 -171 b 100 -272 236 -236 179 -260 l 103 -283 b 336 -169 254 -279 336 -247 b 201 -67 336 -115 279 -76 l 239 -1 z m 251 3 b 42 211 140 3 76 71 l 29 211 l 29 17 l 42 17 b 67 40 46 32 56 40 b 251 -10 106 40 144 -10 b 479 192 381 -10 479 72 b 276 419 479 313 414 364 b 121 554 178 460 121 486 b 238 649 121 611 153 649 b 425 488 328 649 390 594 l 436 488 l 436 650 l 425 650 b 401 626 421 638 413 626 b 238 661 354 626 329 661 b 36 486 117 661 36 582 b 228 269 36 367 104 318 b 383 117 343 224 383 183 b 251 3 383 54 353 3 z "},"ŝ":{"ha":513,"x_min":0,"x_max":0,"o":"m 251 3 b 42 211 140 3 76 71 l 29 211 l 29 17 l 42 17 b 67 40 46 32 56 40 b 251 -10 106 40 144 -10 b 479 192 381 -10 479 72 b 276 419 479 313 414 364 b 121 554 178 460 121 486 b 238 649 121 611 153 649 b 425 488 328 649 390 594 l 436 488 l 436 650 l 425 650 b 401 626 421 638 413 626 b 238 661 354 626 329 661 b 36 486 117 661 36 582 b 228 269 36 367 104 318 b 383 117 343 224 383 183 b 251 3 383 54 353 3 z m 83 724 l 92 718 l 247 825 l 403 718 l 411 724 l 247 978 z "},"ș":{"ha":513,"x_min":0,"x_max":0,"o":"m 251 3 b 42 211 140 3 76 71 l 29 211 l 29 17 l 42 17 b 67 40 46 32 56 40 b 251 -10 106 40 144 -10 b 479 192 381 -10 479 72 b 276 419 479 313 414 364 b 121 554 178 460 121 486 b 238 649 121 611 153 649 b 425 488 328 649 390 594 l 436 488 l 436 650 l 425 650 b 401 626 421 638 413 626 b 238 661 354 626 329 661 b 36 486 117 661 36 582 b 228 269 36 367 104 318 b 383 117 343 224 383 183 b 251 3 383 54 353 3 z m 288 -167 b 296 -186 293 -168 296 -175 b 196 -268 296 -218 267 -258 l 200 -279 b 328 -151 278 -272 328 -228 b 236 -51 328 -79 282 -51 b 158 -125 196 -51 158 -79 b 231 -194 158 -168 192 -194 b 288 -167 264 -194 282 -178 z "},"ť":{"ha":400,"x_min":0,"x_max":0,"o":"m 250 -10 b 388 43 339 -10 372 25 l 381 49 b 307 15 365 32 339 15 b 239 168 246 15 239 58 l 239 633 l 376 633 l 376 647 l 239 647 l 239 876 l 226 876 b 25 646 196 733 108 657 l 25 633 l 82 633 l 82 142 b 250 -10 82 51 139 -10 z m 313 725 l 408 899 b 426 960 418 919 426 939 b 374 1017 426 997 408 1017 b 313 919 336 1017 317 988 l 304 728 z "},"ţ":{"ha":400,"x_min":0,"x_max":0,"o":"m 250 -10 b 388 43 339 -10 372 25 l 381 49 b 307 15 365 32 339 15 b 239 168 246 15 239 58 l 239 633 l 376 633 l 376 647 l 239 647 l 239 876 l 226 876 b 25 646 196 733 108 657 l 25 633 l 82 633 l 82 142 b 250 -10 82 51 139 -10 z m 269 -167 b 278 -186 275 -168 278 -175 b 178 -268 278 -218 249 -258 l 182 -279 b 310 -151 260 -272 310 -228 b 218 -51 310 -79 264 -51 b 140 -125 178 -51 140 -79 b 213 -194 140 -168 174 -194 b 269 -167 246 -194 264 -178 z "},"ț":{"ha":400,"x_min":0,"x_max":0,"o":"m 250 -10 b 388 43 339 -10 372 25 l 381 49 b 307 15 365 32 339 15 b 239 168 246 15 239 58 l 239 633 l 376 633 l 376 647 l 239 647 l 239 876 l 226 876 b 25 646 196 733 108 657 l 25 633 l 82 633 l 82 142 b 250 -10 82 51 139 -10 z m 269 -167 b 278 -186 275 -168 278 -175 b 178 -268 278 -218 249 -258 l 182 -279 b 310 -151 260 -272 310 -228 b 218 -51 310 -79 264 -51 b 140 -125 178 -51 140 -79 b 213 -194 140 -168 174 -194 b 269 -167 246 -194 264 -178 z "},"ŭ":{"ha":700,"x_min":0,"x_max":0,"o":"m 235 -11 b 451 110 319 -11 378 39 l 469 126 l 469 0 l 685 0 l 685 10 b 626 213 629 25 626 46 l 626 667 l 413 549 l 413 538 b 469 365 469 531 469 528 l 469 143 l 451 126 b 299 26 385 61 336 26 b 232 119 264 26 232 49 l 232 667 l 17 549 l 17 538 b 74 365 74 531 74 528 l 74 160 b 235 -11 74 28 154 -11 z m 375 829 b 249 917 299 829 261 874 l 236 917 b 375 738 236 826 279 738 b 513 915 469 738 513 831 l 500 915 b 375 829 485 872 449 829 z "},"ű":{"ha":700,"x_min":0,"x_max":0,"o":"m 235 -11 b 451 110 319 -11 378 39 l 469 126 l 469 0 l 685 0 l 685 10 b 626 213 629 25 626 46 l 626 667 l 413 549 l 413 538 b 469 365 469 531 469 528 l 469 143 l 451 126 b 299 26 385 61 336 26 b 232 119 264 26 232 49 l 232 667 l 17 549 l 17 538 b 74 365 74 531 74 528 l 74 160 b 235 -11 74 28 154 -11 z m 453 743 l 582 892 b 607 950 599 911 607 931 b 556 1004 607 982 589 1004 b 490 932 517 1004 501 975 l 444 746 z m 275 743 l 403 892 b 429 950 421 911 429 931 b 378 1004 429 982 413 1004 b 313 932 339 1004 324 975 l 267 746 z "},"ū":{"ha":700,"x_min":0,"x_max":0,"o":"m 235 -11 b 451 110 319 -11 378 39 l 469 126 l 469 0 l 685 0 l 685 10 b 626 213 629 25 626 46 l 626 667 l 413 549 l 413 538 b 469 365 469 531 469 528 l 469 143 l 451 126 b 299 26 385 61 336 26 b 232 119 264 26 232 49 l 232 667 l 17 549 l 17 538 b 74 365 74 531 74 528 l 74 160 b 235 -11 74 28 154 -11 z m 225 856 l 225 790 l 522 790 l 522 856 z "},"ų":{"ha":700,"x_min":0,"x_max":0,"o":"m 235 -11 b 451 110 319 -11 378 39 l 469 126 l 469 0 b 299 -150 419 -14 299 -64 b 429 -243 299 -210 351 -243 b 560 -185 513 -243 546 -199 l 553 -176 b 506 -197 540 -189 526 -197 b 442 -124 463 -197 442 -168 b 483 0 442 -58 467 -22 l 685 0 l 685 10 b 626 213 629 25 626 46 l 626 667 l 413 549 l 413 538 b 469 365 469 531 469 528 l 469 143 l 451 126 b 299 26 385 61 336 26 b 232 119 264 26 232 49 l 232 667 l 17 549 l 17 538 b 74 365 74 531 74 528 l 74 160 b 235 -11 74 28 154 -11 z "},"ů":{"ha":700,"x_min":0,"x_max":0,"o":"m 235 -11 b 451 110 319 -11 378 39 l 469 126 l 469 0 l 685 0 l 685 10 b 626 213 629 25 626 46 l 626 667 l 413 549 l 413 538 b 469 365 469 531 469 528 l 469 143 l 451 126 b 299 26 385 61 336 26 b 232 119 264 26 232 49 l 232 667 l 17 549 l 17 538 b 74 365 74 531 74 528 l 74 160 b 235 -11 74 28 154 -11 z m 256 843 b 374 736 256 778 303 736 b 492 843 444 736 492 778 b 374 950 492 906 444 950 b 256 843 306 950 256 906 z m 315 843 b 374 938 315 903 336 938 b 433 843 411 938 433 903 b 374 749 433 781 414 749 b 315 843 335 749 315 781 z "},"ũ":{"ha":700,"x_min":0,"x_max":0,"o":"m 235 -11 b 451 110 319 -11 378 39 l 469 126 l 469 0 l 685 0 l 685 10 b 626 213 629 25 626 46 l 626 667 l 413 549 l 413 538 b 469 365 469 531 469 528 l 469 143 l 451 126 b 299 26 385 61 336 26 b 232 119 264 26 232 49 l 232 667 l 17 549 l 17 538 b 74 365 74 531 74 528 l 74 160 b 235 -11 74 28 154 -11 z m 314 896 b 211 746 271 896 243 840 l 221 742 b 296 801 254 790 269 801 b 440 788 346 801 389 788 b 543 939 489 788 521 851 l 535 943 b 460 882 503 897 483 882 b 314 896 415 882 369 896 z "},"ẃ":{"ha":915,"x_min":0,"x_max":0,"o":"m 274 -7 l 306 -7 l 464 364 l 597 -7 l 629 -7 l 804 467 b 913 639 860 617 871 628 l 913 647 l 760 647 l 760 639 b 789 467 814 632 844 614 l 683 179 l 567 497 b 576 639 526 613 536 632 l 576 647 l 331 647 l 331 639 b 417 493 360 628 372 615 l 456 385 l 365 169 l 247 497 b 253 639 207 613 211 631 l 253 647 l 3 647 l 3 639 b 89 493 32 628 44 615 z m 378 721 l 572 836 b 628 914 604 854 628 876 b 571 971 628 947 608 971 b 490 910 536 971 517 953 l 371 729 z "},"ŵ":{"ha":915,"x_min":0,"x_max":0,"o":"m 274 -7 l 306 -7 l 464 364 l 597 -7 l 629 -7 l 804 467 b 913 639 860 617 871 628 l 913 647 l 760 647 l 760 639 b 789 467 814 632 844 614 l 683 179 l 567 497 b 576 639 526 613 536 632 l 576 647 l 331 647 l 331 639 b 417 493 360 628 372 615 l 456 385 l 365 169 l 247 497 b 253 639 207 613 211 631 l 253 647 l 3 647 l 3 639 b 89 493 32 628 44 615 z m 301 724 l 310 718 l 465 825 l 621 718 l 629 724 l 465 978 z "},"ẅ":{"ha":915,"x_min":0,"x_max":0,"o":"m 274 -7 l 306 -7 l 464 364 l 597 -7 l 629 -7 l 804 467 b 913 639 860 617 871 628 l 913 647 l 760 647 l 760 639 b 789 467 814 632 844 614 l 683 179 l 567 497 b 576 639 526 613 536 632 l 576 647 l 331 647 l 331 639 b 417 493 360 628 372 615 l 456 385 l 365 169 l 247 497 b 253 639 207 613 211 631 l 253 647 l 3 647 l 3 639 b 89 493 32 628 44 615 z m 583 740 b 665 826 629 740 665 776 b 583 906 665 871 629 906 b 501 826 535 906 501 871 b 583 740 501 776 535 740 z m 347 740 b 429 826 396 740 429 776 b 347 906 429 871 396 906 b 265 826 301 906 265 871 b 347 740 265 776 301 740 z "},"ẁ":{"ha":915,"x_min":0,"x_max":0,"o":"m 274 -7 l 306 -7 l 464 364 l 597 -7 l 629 -7 l 804 467 b 913 639 860 617 871 628 l 913 647 l 760 647 l 760 639 b 789 467 814 632 844 614 l 683 179 l 567 497 b 576 639 526 613 536 632 l 576 647 l 331 647 l 331 639 b 417 493 360 628 372 615 l 456 385 l 365 169 l 247 497 b 253 639 207 613 211 631 l 253 647 l 3 647 l 3 639 b 89 493 32 628 44 615 z m 565 721 l 572 729 l 453 910 b 372 971 426 953 407 971 b 315 914 335 971 315 947 b 371 836 315 876 339 854 z "},"ŷ":{"ha":629,"x_min":0,"x_max":0,"o":"m 143 -237 b 315 -49 215 -237 260 -187 l 522 467 b 633 639 582 615 594 628 l 633 647 l 482 647 l 482 639 b 507 467 536 632 567 614 l 388 171 l 250 500 b 258 639 203 614 218 632 l 258 647 l -4 647 l -4 639 b 90 497 29 628 38 617 l 313 -17 l 301 -44 b 215 -164 261 -144 239 -164 b 118 -128 174 -164 167 -128 b 68 -179 92 -128 68 -142 b 143 -237 68 -212 93 -237 z m 204 724 l 213 718 l 368 825 l 524 718 l 532 724 l 368 978 z "},"ỳ":{"ha":629,"x_min":0,"x_max":0,"o":"m 143 -237 b 315 -49 215 -237 260 -187 l 522 467 b 633 639 582 615 594 628 l 633 647 l 482 647 l 482 639 b 507 467 536 632 567 614 l 388 171 l 250 500 b 258 639 203 614 218 632 l 258 647 l -4 647 l -4 639 b 90 497 29 628 38 617 l 313 -17 l 301 -44 b 215 -164 261 -144 239 -164 b 118 -128 174 -164 167 -128 b 68 -179 92 -128 68 -142 b 143 -237 68 -212 93 -237 z m 471 721 l 478 729 l 358 910 b 278 971 332 953 313 971 b 221 914 240 971 221 947 b 276 836 221 876 244 854 z "},"ź":{"ha":574,"x_min":0,"x_max":0,"o":"m 553 178 l 542 178 b 325 11 501 71 475 11 l 185 11 l 550 647 l 244 647 b 64 661 140 647 93 649 l 35 492 l 46 492 b 253 636 79 579 107 636 l 376 636 l 15 0 l 346 0 b 526 -14 469 0 501 -3 z m 224 721 l 418 836 b 474 914 450 854 474 876 b 417 971 474 947 454 971 b 336 910 382 971 363 953 l 217 729 z "},"ż":{"ha":574,"x_min":0,"x_max":0,"o":"m 553 178 l 542 178 b 325 11 501 71 475 11 l 185 11 l 550 647 l 244 647 b 64 661 140 647 93 649 l 35 492 l 46 492 b 253 636 79 579 107 636 l 376 636 l 15 0 l 346 0 b 526 -14 469 0 501 -3 z m 307 739 b 396 828 357 739 396 779 b 307 914 396 876 357 914 b 219 828 258 914 219 876 b 307 739 219 779 258 739 z "},"←":{"ha":1075,"x_min":0,"x_max":0,"o":"m 51 488 b 474 183 178 458 394 331 l 485 188 b 321 488 458 344 404 433 l 1011 488 l 1011 501 l 321 501 b 485 801 404 556 458 644 l 474 806 b 51 501 396 661 178 528 z "},"→":{"ha":1075,"x_min":0,"x_max":0,"o":"m 63 488 l 754 488 b 590 188 671 433 617 344 l 601 183 b 1022 488 681 331 897 458 l 1022 501 b 601 806 897 526 679 663 l 590 801 b 754 501 617 644 671 556 l 63 501 z "},"ȷ":{"ha":314,"x_min":0,"x_max":0,"o":"m -40 -193 b 94 -140 3 -193 35 -183 b 235 128 200 -64 235 17 l 235 667 l 21 549 l 21 538 b 78 364 78 531 78 528 l 78 -10 b 58 -147 78 -103 74 -136 b 46 -153 54 -151 51 -153 b -53 -86 18 -153 -7 -86 b -103 -136 -81 -86 -103 -103 b -40 -193 -103 -174 -72 -193 z "}," ":{"ha":100,"x_min":0,"x_max":0,"o":""},"Đ":{"ha":990,"x_min":0,"x_max":0,"o":"m 26 0 l 338 0 b 943 535 731 0 943 208 b 338 1042 943 874 704 1042 l 26 1042 l 26 1032 b 99 692 94 1013 99 992 l 99 549 l -12 549 l -12 538 l 99 538 l 99 350 b 26 10 99 50 94 29 z m 279 11 l 279 538 l 476 538 l 476 549 l 279 549 l 279 1029 l 338 1029 b 747 536 581 1029 747 932 b 338 11 747 151 621 11 z "},"Ħ":{"ha":1000,"x_min":0,"x_max":0,"o":"m -17 790 l 1017 790 l 1017 801 l -17 801 z m 29 0 l 350 0 l 350 10 b 278 350 282 29 278 49 l 278 565 l 721 565 l 721 350 b 649 10 721 49 717 29 l 649 0 l 971 0 l 971 10 b 899 350 903 29 899 49 l 899 692 b 971 1032 899 993 903 1013 l 971 1042 l 649 1042 l 649 1032 b 721 692 717 1013 721 993 l 721 576 l 278 576 l 278 692 b 350 1032 278 993 282 1013 l 350 1042 l 29 1042 l 29 1032 b 101 692 97 1013 101 993 l 101 350 b 29 10 101 49 97 29 z "},"Ĳ":{"ha":968,"x_min":0,"x_max":0,"o":"m 24 0 l 344 0 l 344 10 b 272 350 276 29 272 50 l 272 692 b 344 1032 272 993 276 1013 l 344 1042 l 24 1042 l 24 1032 b 96 692 92 1013 96 993 l 96 350 b 24 10 96 50 92 29 z m 615 -14 b 878 235 751 -14 878 76 l 878 692 b 950 1032 878 996 882 1013 l 950 1042 l 628 1042 l 628 1032 b 700 692 696 1013 700 996 l 700 90 b 618 -1 700 25 664 -1 b 528 111 550 -1 543 32 b 446 193 513 174 486 193 b 376 124 411 193 376 169 b 615 -14 376 39 482 -14 z "},"Ŀ":{"ha":775,"x_min":0,"x_max":0,"o":"m 568 444 b 663 538 624 444 663 483 b 568 632 663 592 624 632 b 475 538 514 632 475 592 b 568 444 475 483 514 444 z m 24 0 l 699 0 b 724 25 714 0 718 -1 l 758 211 l 743 211 b 444 13 692 49 642 13 l 276 13 l 276 692 b 351 1032 276 993 281 1014 l 351 1042 l 24 1042 l 24 1032 b 96 692 92 1013 96 993 l 96 350 b 24 10 96 49 92 29 z "},"Ŋ":{"ha":890,"x_min":0,"x_max":0,"o":"m 24 0 l 192 0 l 192 10 b 110 356 114 43 110 63 l 110 1013 l 792 -22 l 792 -28 b 646 -176 792 -117 740 -176 b 569 -78 600 -176 586 -146 b 496 -1 557 -21 539 -1 b 429 -61 457 -1 429 -21 b 644 -189 429 -139 533 -189 b 806 -31 746 -189 806 -125 l 806 686 b 878 1032 806 979 810 999 l 878 1042 l 714 1042 l 714 1032 b 792 686 786 999 792 978 l 792 300 l 326 1000 b 272 1042 300 1039 296 1042 l 24 1042 l 24 1032 b 96 692 92 1013 96 992 l 96 356 b 24 10 96 63 92 43 z "},"Ŧ":{"ha":881,"x_min":0,"x_max":0,"o":"m 154 583 l 724 583 l 724 596 l 154 596 z m 276 0 l 601 0 l 601 10 b 529 350 533 29 529 50 l 529 1029 l 600 1029 b 857 825 758 1029 821 994 l 871 825 l 849 1013 b 825 1042 844 1042 840 1042 l 53 1042 b 29 1013 38 1042 33 1042 l 10 825 l 24 825 b 282 1029 57 997 119 1029 l 349 1029 l 349 350 b 276 10 349 50 344 29 z "},"đ":{"ha":746,"x_min":0,"x_max":0,"o":"m 332 786 l 765 786 l 765 799 l 332 799 z m 299 -10 b 497 96 386 -10 443 36 l 510 110 l 510 0 l 728 0 l 728 10 b 667 213 668 25 667 46 l 667 1078 l 453 963 l 453 951 b 510 783 510 947 510 943 l 510 604 b 361 657 472 633 422 657 b 40 303 192 657 40 531 b 299 -10 40 92 171 -10 z m 206 321 b 364 644 206 547 269 644 b 510 588 424 644 467 621 l 510 126 l 497 113 b 342 18 443 51 396 18 b 206 321 269 18 206 88 z "},"ħ":{"ha":713,"x_min":0,"x_max":0,"o":"m 411 786 l 411 799 l -22 799 l -22 786 z m 21 0 l 294 0 l 294 10 b 233 213 235 25 233 46 l 233 496 l 264 525 b 415 621 329 590 376 621 b 482 528 450 621 482 599 l 482 213 b 421 10 482 46 479 24 l 421 0 l 696 0 l 696 10 b 640 213 640 25 640 46 l 640 483 b 479 658 640 619 560 658 b 264 542 394 658 336 613 l 233 513 l 233 1078 l 19 963 l 19 951 b 76 783 76 947 76 943 l 76 213 b 21 10 76 46 75 24 z "},"ĳ":{"ha":624,"x_min":0,"x_max":0,"o":"m 156 739 b 244 828 206 739 244 779 b 156 914 244 876 206 914 b 68 828 107 914 68 876 b 156 739 68 779 107 739 z m 19 0 l 296 0 l 296 10 b 235 213 236 25 235 46 l 235 667 l 21 549 l 21 538 b 78 365 78 531 78 528 l 78 213 b 19 10 78 46 75 25 z m 465 739 b 554 828 515 739 554 779 b 465 914 554 876 515 914 b 378 828 417 914 378 876 b 465 739 378 779 417 739 z m 269 -193 b 404 -140 313 -193 344 -183 b 544 128 510 -64 544 17 l 544 667 l 331 549 l 331 538 b 388 364 388 531 388 528 l 388 -10 b 368 -147 388 -103 383 -136 b 356 -153 364 -151 361 -153 b 257 -86 328 -153 303 -86 b 207 -136 229 -86 207 -103 b 269 -193 207 -174 238 -193 z "},"ŀ":{"ha":431,"x_min":0,"x_max":0,"o":"m 372 418 b 465 511 426 418 465 457 b 372 606 465 565 426 606 b 278 511 318 606 278 565 b 372 418 278 457 318 418 z m 21 0 l 300 0 l 300 10 b 236 213 239 24 236 46 l 236 1078 l 19 963 l 19 951 b 78 783 79 947 78 943 l 78 213 b 21 10 78 46 76 25 z "},"ŉ":{"ha":718,"x_min":0,"x_max":0,"o":"m 21 0 l 294 0 l 294 10 b 233 213 235 25 233 46 l 233 492 l 268 525 b 419 621 335 590 382 621 b 488 528 457 621 488 599 l 488 213 b 425 10 488 46 481 25 l 425 0 l 701 0 l 701 10 b 646 213 646 25 646 46 l 646 483 b 485 658 646 619 564 658 b 268 542 400 658 340 613 l 233 508 l 233 667 l 19 549 l 19 538 b 76 365 76 531 76 528 l 76 213 b 21 10 76 46 75 24 z m 43 926 b 57 892 53 919 57 908 b -54 757 57 840 17 794 l -49 747 b 90 947 31 785 90 847 b -6 1060 90 1025 40 1060 b -90 976 -51 1060 -90 1028 b -17 899 -90 932 -57 899 b 43 926 15 899 32 911 z "},"ŋ":{"ha":717,"x_min":0,"x_max":0,"o":"m 21 0 l 294 0 l 294 10 b 233 213 235 25 233 46 l 233 492 l 268 525 b 419 621 335 590 382 621 b 488 528 457 621 488 599 l 488 -10 b 469 -147 488 -103 485 -136 b 456 -153 464 -151 460 -153 b 357 -86 426 -153 404 -86 b 308 -136 331 -86 308 -103 b 369 -193 308 -174 338 -193 b 506 -140 413 -193 446 -183 b 646 128 611 -64 646 17 l 646 483 b 485 658 646 619 564 658 b 268 542 400 658 340 613 l 233 508 l 233 667 l 19 549 l 19 538 b 76 365 76 531 76 528 l 76 213 b 21 10 76 46 75 24 z "},"ŧ":{"ha":400,"x_min":0,"x_max":0,"o":"m 28 419 l 372 419 l 372 433 l 28 433 z m 250 -10 b 388 43 339 -10 372 25 l 381 49 b 307 15 365 32 339 15 b 239 168 246 15 239 58 l 239 633 l 376 633 l 376 647 l 239 647 l 239 876 l 226 876 b 25 646 196 733 108 657 l 25 633 l 82 633 l 82 142 b 250 -10 82 51 139 -10 z "},"ﬀ":{"ha":724,"x_min":0,"x_max":0,"o":"m 376 0 l 671 0 l 671 10 b 590 213 592 25 590 46 l 590 633 l 714 633 l 714 647 l 590 647 l 590 872 b 654 1046 590 1011 614 1046 b 693 978 676 1046 683 1033 b 760 921 700 938 715 921 b 814 969 799 921 814 947 b 661 1058 814 1031 746 1058 b 486 978 607 1058 536 1038 b 333 1051 469 1022 413 1051 b 88 781 238 1051 88 993 l 88 729 b 21 644 88 672 81 654 l 21 633 l 86 633 l 86 213 b 31 10 86 46 85 24 l 31 0 l 325 0 l 325 10 b 244 213 246 25 244 46 l 244 633 l 432 633 l 432 213 b 376 10 432 46 431 24 z m 244 647 l 244 861 b 326 1039 244 996 272 1039 b 381 958 361 1039 365 1026 b 442 901 388 921 401 901 l 446 901 b 432 808 436 875 432 846 l 432 647 z "},"ﬃ":{"ha":1015,"x_min":0,"x_max":0,"o":"m 31 0 l 325 0 l 325 10 b 244 213 246 25 244 46 l 244 633 l 432 633 l 432 213 b 376 10 432 46 431 24 l 376 0 l 671 0 l 671 10 b 590 213 592 25 590 46 l 590 633 l 721 633 b 778 461 778 626 778 624 l 778 213 b 721 10 778 46 776 25 l 721 0 l 996 0 l 996 10 b 935 213 936 25 935 46 l 935 667 l 721 647 l 590 647 l 590 872 b 653 1046 590 1011 613 1046 b 688 985 675 1046 678 1033 b 747 928 694 946 707 928 b 800 976 785 928 800 953 b 660 1058 800 1032 738 1058 b 486 978 606 1058 536 1038 b 333 1051 469 1022 415 1051 b 88 781 238 1051 88 993 l 88 729 b 21 644 88 672 81 654 l 21 633 l 86 633 l 86 213 b 31 10 86 46 85 24 z m 244 647 l 244 861 b 326 1039 244 996 272 1039 b 381 958 361 1039 365 1026 b 442 901 388 921 401 901 l 446 901 b 432 807 436 875 432 844 l 432 647 z m 860 731 b 947 819 908 731 947 771 b 860 904 947 868 908 904 b 772 819 811 904 772 868 b 860 731 772 769 811 731 z "},"ﬄ":{"ha":1017,"x_min":0,"x_max":0,"o":"m 376 0 l 671 0 l 671 10 b 590 213 592 25 590 46 l 590 633 l 708 633 l 708 647 l 590 647 l 590 882 b 665 1040 590 999 615 1040 b 713 969 693 1040 703 1029 b 771 913 718 929 732 913 b 825 963 808 913 825 942 b 672 1053 825 1019 761 1053 b 489 971 613 1053 540 1032 b 333 1050 474 1019 417 1050 b 88 779 238 1050 88 990 l 88 729 b 21 644 88 672 81 654 l 21 633 l 86 633 l 86 213 b 31 10 86 46 85 24 l 31 0 l 325 0 l 325 10 b 244 213 246 25 244 46 l 244 633 l 432 633 l 432 213 b 376 10 432 46 431 24 z m 244 647 l 244 860 b 328 1038 244 994 272 1038 b 381 957 361 1038 369 1025 b 442 900 390 919 403 900 l 450 900 b 432 788 439 868 432 832 l 432 647 z m 719 0 l 999 0 l 999 10 b 935 213 938 24 935 46 l 935 1078 l 718 963 l 718 951 b 776 783 778 947 776 943 l 776 213 b 719 10 776 46 775 25 z "},"⅓":{"ha":690,"x_min":0,"x_max":0,"o":"m 88 515 l 603 515 l 603 526 l 88 526 z m 449 646 l 449 656 b 397 819 400 663 397 669 l 397 1172 l 240 1072 l 240 1064 b 296 963 292 1064 296 1058 l 296 819 b 242 656 296 669 292 663 l 242 646 z m 169 272 l 178 272 b 318 310 192 304 197 310 l 414 310 l 243 156 l 250 149 b 351 192 278 172 308 192 b 425 47 414 192 425 129 b 315 -114 425 -47 397 -114 b 250 -29 249 -114 254 -56 b 206 7 247 -6 232 7 b 160 -35 174 7 160 -14 b 315 -124 160 -78 217 -124 b 531 47 456 -124 531 -49 b 361 203 531 154 468 203 b 293 188 333 203 310 197 l 518 389 l 518 396 l 210 396 b 197 375 203 396 203 393 z "},"⅔":{"ha":690,"x_min":0,"x_max":0,"o":"m 88 515 l 603 515 l 603 526 l 88 526 z m 169 272 l 178 272 b 318 310 192 304 197 310 l 414 310 l 243 156 l 250 149 b 351 192 278 172 308 192 b 425 47 414 192 425 129 b 315 -114 425 -47 397 -114 b 250 -29 249 -114 254 -56 b 206 7 247 -6 232 7 b 160 -35 174 7 160 -14 b 315 -124 160 -78 217 -124 b 531 47 456 -124 531 -49 b 361 203 531 154 468 203 b 293 188 333 203 310 197 l 518 389 l 518 396 l 210 396 b 197 375 203 396 203 393 z m 246 732 l 342 804 b 514 1032 439 875 514 947 b 322 1165 514 1136 406 1165 b 174 1081 222 1165 174 1115 b 215 1036 174 1051 192 1036 b 265 1081 249 1036 261 1053 b 321 1156 269 1114 271 1156 b 406 1036 381 1156 406 1113 b 294 803 406 951 376 897 l 154 646 l 492 646 b 508 668 501 646 504 650 l 532 769 l 524 769 b 347 732 508 736 497 732 z "},"⅛":{"ha":690,"x_min":0,"x_max":0,"o":"m 528 24 b 406 183 528 94 494 133 b 508 292 457 204 508 238 b 344 399 508 346 451 399 b 181 275 261 399 181 357 b 282 138 181 215 204 182 b 161 8 203 106 161 69 b 346 -124 161 -61 239 -124 b 528 24 450 -124 528 -60 z m 346 -114 b 239 6 264 -114 239 -65 b 293 131 239 65 257 107 l 325 114 b 446 -22 408 69 446 44 b 346 -114 446 -71 422 -114 z m 365 204 b 251 319 288 244 251 265 b 344 389 251 364 285 389 b 440 288 408 389 440 356 b 397 188 440 242 426 208 z m 88 515 l 603 515 l 603 526 l 88 526 z m 449 646 l 449 656 b 397 819 400 663 397 669 l 397 1172 l 240 1072 l 240 1064 b 296 963 292 1064 296 1058 l 296 819 b 242 656 296 669 292 663 l 242 646 z "},"⅜":{"ha":690,"x_min":0,"x_max":0,"o":"m 528 24 b 406 183 528 94 494 133 b 508 292 457 204 508 238 b 344 399 508 346 451 399 b 181 275 261 399 181 357 b 282 138 181 215 204 182 b 161 8 203 106 161 69 b 346 -124 161 -61 239 -124 b 528 24 450 -124 528 -60 z m 346 -114 b 239 6 264 -114 239 -65 b 293 131 239 65 257 107 l 325 114 b 446 -22 408 69 446 44 b 346 -114 446 -71 422 -114 z m 365 204 b 251 319 288 244 251 265 b 344 389 251 364 285 389 b 440 288 408 389 440 356 b 397 188 440 242 426 208 z m 88 515 l 603 515 l 603 526 l 88 526 z m 169 1038 l 178 1038 b 318 1075 192 1069 197 1075 l 414 1075 l 243 921 l 250 914 b 351 957 278 938 308 957 b 425 813 414 957 425 894 b 315 651 425 718 397 651 b 250 736 249 651 254 710 b 206 772 247 760 232 772 b 160 731 174 772 160 751 b 315 642 160 688 217 642 b 531 813 456 642 531 717 b 361 968 531 919 468 968 b 293 953 333 968 310 963 l 518 1154 l 518 1161 l 210 1161 b 197 1140 203 1161 203 1158 z "},"⅝":{"ha":690,"x_min":0,"x_max":0,"o":"m 528 24 b 406 183 528 94 494 133 b 508 292 457 204 508 238 b 344 399 508 346 451 399 b 181 275 261 399 181 357 b 282 138 181 215 204 182 b 161 8 203 106 161 69 b 346 -124 161 -61 239 -124 b 528 24 450 -124 528 -60 z m 481 1076 b 494 1090 490 1076 490 1078 l 518 1161 l 260 1161 l 200 929 l 200 928 l 206 925 b 332 967 229 947 276 967 b 421 825 393 967 421 914 b 308 653 421 735 383 653 b 249 732 244 653 253 703 b 203 774 244 758 231 774 b 160 732 176 774 160 758 b 308 643 160 683 221 643 b 526 825 438 643 526 724 b 332 976 526 931 436 976 b 214 942 286 976 242 963 l 249 1076 z m 346 -114 b 239 6 264 -114 239 -65 b 293 131 239 65 257 107 l 325 114 b 446 -22 408 69 446 44 b 346 -114 446 -71 422 -114 z m 365 204 b 251 319 288 244 251 265 b 344 389 251 364 285 389 b 440 288 408 389 440 356 b 397 188 440 242 426 208 z m 88 515 l 603 515 l 603 526 l 88 526 z "},"⅞":{"ha":690,"x_min":0,"x_max":0,"o":"m 528 24 b 406 183 528 94 494 133 b 508 292 457 204 508 238 b 344 399 508 346 451 399 b 181 275 261 399 181 357 b 282 138 181 215 204 182 b 161 8 203 106 161 69 b 346 -124 161 -61 239 -124 b 528 24 450 -124 528 -60 z m 346 -114 b 239 6 264 -114 239 -65 b 293 131 239 65 257 107 l 325 114 b 446 -22 408 69 446 44 b 346 -114 446 -71 422 -114 z m 519 1154 l 519 1161 l 224 1161 b 207 1143 213 1161 211 1156 l 176 1039 l 186 1039 b 311 1076 201 1074 206 1076 l 476 1076 l 299 646 l 310 646 z m 365 204 b 251 319 288 244 251 265 b 344 389 251 364 285 389 b 440 288 408 389 440 356 b 397 188 440 242 426 208 z m 88 515 l 603 515 l 603 526 l 88 526 z "},"′":{"ha":240,"x_min":0,"x_max":0,"o":"m 63 753 b 144 872 89 801 117 838 b 201 983 178 915 201 951 b 132 1053 201 1026 175 1053 b 58 956 86 1053 58 1021 b 53 756 58 899 63 826 z "},"″":{"ha":421,"x_min":0,"x_max":0,"o":"m 243 753 b 325 872 269 801 297 838 b 382 983 358 915 382 951 b 313 1053 382 1026 356 1053 b 239 956 267 1053 239 1021 b 233 756 239 899 243 826 z m 63 753 b 144 872 89 801 117 838 b 201 983 178 915 201 951 b 132 1053 201 1026 175 1053 b 58 956 86 1053 58 1021 b 53 756 58 899 63 826 z "},"Ⓟ":{"ha":1161,"x_min":0,"x_max":0,"o":"m 582 1054 b 44 519 286 1054 44 814 b 582 -15 44 226 286 -15 b 1117 519 875 -15 1117 226 b 582 1054 1117 814 875 1054 z m 582 -3 b 57 519 299 -3 57 226 b 582 1042 57 813 299 1042 b 1103 519 865 1042 1103 808 b 582 -3 1103 231 865 -3 z m 374 206 l 586 206 l 586 214 b 539 415 542 225 539 238 l 539 494 l 613 494 b 853 672 747 494 853 551 b 611 831 853 789 751 831 l 374 831 l 374 822 b 417 621 413 811 417 799 l 417 415 b 374 214 417 238 413 225 z m 611 821 b 738 663 682 821 738 785 b 610 504 738 542 683 504 l 539 504 l 539 821 z "}}}
